<svg width="206" height="207" viewBox="0 0 206 207" fill="none" xmlns="http://www.w3.org/2000/svg">
<circle cx="102.5" cy="102.5" r="79.5" fill="#101010"/>
<path d="M112.854 100.894C112.822 100.925 112.791 100.958 112.758 100.99C110.761 100.619 109.033 100.122 107.44 98.7649C105.653 97.2422 104.4 95.1333 103.341 93.0691C101.415 89.3127 100.543 85.4349 99.5088 81.3786C99.4381 81.1011 98.9932 81.1747 99.014 81.4618C99.0278 81.6546 99.0496 81.8489 99.069 82.043C98.9762 82.0885 98.9016 82.1896 98.9226 82.304C99.6623 86.365 100.263 90.1748 99.5172 94.2968C98.8341 98.0707 96.9276 102.896 93.0041 104.267C92.505 104.284 92.0086 104.35 91.5212 104.476C91.2455 104.547 91.2888 105.003 91.5687 105.031C93.971 105.272 95.9691 105.385 98.1462 106.583C100.064 107.637 101.704 109.122 103.059 110.832C106.268 114.881 107.587 119.802 110.028 124.261C110.03 124.267 110.036 124.265 110.041 124.266C110.055 124.292 110.068 124.318 110.083 124.344C110.09 124.357 110.113 124.35 110.109 124.335C109.065 120.285 107.932 116.454 108.315 112.211C108.684 108.124 110.366 104.299 113.359 101.461C113.713 101.124 113.209 100.557 112.854 100.894ZM107.732 117.379C106.444 114.366 104.795 111.49 102.699 109.195C100.651 106.951 97.3639 104.661 94.0899 104.314C97.0662 103.103 99.0193 99.0762 99.7429 96.3206C100.373 93.919 100.716 91.26 100.628 88.6391C101.605 91.3375 102.938 93.9279 104.436 96.1193C106.164 98.6469 109.209 101.564 112.542 101.207C108.358 105.409 106.855 111.576 107.732 117.379Z" fill="white"/>
<path d="M141.562 55.7416C143.007 54.7255 145.371 52.6563 148.655 49.5341C149.175 49.9356 149.322 50.3066 149.098 50.6471C149.03 50.7523 148.98 50.8255 148.948 50.8667C148.924 50.9143 148.801 51.0489 148.576 51.2706C148.359 51.4841 148.048 51.7836 147.644 52.1693C147.249 52.5614 146.783 53.0107 146.246 53.5174C145.709 54.024 145.141 54.5458 144.541 55.0828C143.12 56.3409 141.869 57.362 140.789 58.146C140.333 58.1225 140.077 57.977 140.02 57.7095C140.003 57.578 140.014 57.4281 140.052 57.2599C140.096 57.0835 140.145 56.8842 140.198 56.662C140.2 56.4391 140.289 55.9154 140.465 55.0908C140.642 54.2663 140.777 53.6068 140.87 53.1123C140.971 52.6241 141.057 52.1639 141.128 51.7316C141.278 50.7545 141.27 50.1096 141.104 49.7966C140.45 50.0286 138.945 50.8854 136.587 52.3671C136.175 52.6277 135.794 52.8731 135.445 53.1033C135.102 53.3253 134.82 53.5024 134.599 53.6345L133.861 53.0047L136.298 43.4712C136.313 43.4173 136.337 43.3697 136.368 43.3285C136.4 43.2873 136.444 43.2557 136.501 43.2336C136.566 43.2179 136.648 43.2222 136.748 43.2466C136.926 43.3055 137.085 43.3892 137.225 43.4975C137.365 43.6059 137.442 43.7112 137.455 43.8135C137.483 43.9139 137.481 44.0181 137.45 44.1259C137.428 44.2402 137.391 44.3563 137.339 44.4743C137.287 44.5923 137.234 44.7551 137.179 44.9626C137.132 45.1765 137.056 45.4869 136.952 45.8937C136.856 46.3069 136.756 46.743 136.651 47.2019C136.547 47.6608 136.442 48.1197 136.337 48.5786C136.239 49.0293 136.151 49.4488 136.075 49.8373C135.893 50.6847 135.811 51.1742 135.828 51.3057C138.606 49.6886 140.276 48.7477 140.836 48.4831C141.402 48.2103 141.753 48.0467 141.887 47.9925C142.086 47.9225 142.21 47.9066 142.26 47.9449C142.614 48.2189 142.599 49.472 142.216 51.704C142.122 52.3027 142.024 52.8721 141.922 53.4123C141.681 54.7277 141.562 55.5041 141.562 55.7416Z" fill="white"/>
<path d="M146.461 59.3759C147.395 58.5769 148.493 58.3373 149.753 58.6572C150.753 58.9125 151.686 59.4506 152.553 60.2718C152.594 60.3193 152.688 60.4301 152.837 60.6043C152.986 60.7784 153.135 61.0559 153.282 61.4368C153.616 62.2755 153.603 63.054 153.244 63.7722C153.104 64.0568 152.955 64.2668 152.796 64.4022C152.646 64.5308 152.536 64.6183 152.466 64.6646C151.476 65.5109 150.375 65.8019 149.162 65.5374C148.043 65.2877 147.037 64.6404 146.143 63.5955C145.5 62.8435 145.187 62.1246 145.203 61.4388C145.227 60.7609 145.646 60.0733 146.461 59.3759ZM146.877 60.4389C146.386 60.8587 146.166 61.2737 146.215 61.6839C146.258 61.9901 146.479 62.3768 146.878 62.8438C147.278 63.3108 147.665 63.692 148.041 63.9872C148.417 64.2825 148.811 64.4942 149.222 64.6223C150.11 64.891 150.953 64.6834 151.753 63.9995C152.228 63.5932 152.507 63.1348 152.591 62.6242C152.679 62.0695 152.53 61.5666 152.144 61.1154C151.824 60.8541 151.497 60.5922 151.163 60.3297C150.836 60.0752 150.463 59.8872 150.044 59.7659C149.141 59.4961 148.086 59.7204 146.877 60.4389Z" fill="white"/>
<path d="M158.889 71.4353C158.926 70.8989 158.765 70.338 158.404 69.7524C158.066 69.2024 157.65 68.755 157.157 68.4103C156.238 67.7524 155.385 67.4394 154.598 67.4714C154.244 67.4932 153.917 67.5969 153.615 67.7824C153.562 67.8152 153.411 67.908 153.163 68.0608C152.923 68.2082 152.622 68.4545 152.26 68.7998C151.906 69.1396 151.516 69.4405 151.091 69.7025C150.967 69.5216 150.852 69.3845 150.746 69.291C150.639 69.1975 150.561 69.1108 150.512 69.0309C150.463 68.9511 150.455 68.8583 150.488 68.7525C150.526 68.6556 150.625 68.5089 150.786 68.3124C150.834 68.2708 150.973 68.1602 151.205 67.9808C151.438 67.8013 151.717 67.5802 152.045 67.3175C152.378 67.0637 152.737 66.7819 153.121 66.4721C153.519 66.1658 153.909 65.8649 154.29 65.5694C155.117 64.926 155.723 64.4494 156.107 64.1396C156.32 64.0086 156.522 64.0984 156.713 64.4089C156.828 64.5952 156.838 64.7907 156.744 64.9954C156.658 65.1947 156.533 65.3882 156.367 65.5758C156.21 65.758 156.039 65.918 155.855 66.0558C155.676 66.2025 155.552 66.3093 155.483 66.3762C157.251 66.9032 158.669 68.0362 159.739 69.7751C159.859 69.9703 159.98 70.1771 160.103 70.3954C160.144 70.4432 160.19 70.507 160.239 70.5869C160.288 70.6667 160.284 70.7793 160.226 70.9247C160.162 71.0987 160.041 71.2403 159.864 71.3494C159.42 71.6224 159.096 71.651 158.889 71.4353Z" fill="white"/>
<path d="M158.17 75.9109L156.941 76.4961C156.169 76.8105 155.626 76.8178 155.313 76.518C155.253 76.4526 155.201 76.3669 155.158 76.2607C155.115 76.1546 155.088 76.0194 155.077 75.855L160.495 73.6648C161.276 73.3465 162.038 72.9799 162.78 72.5651C163.536 72.1561 164.304 71.7924 165.085 71.474C165.394 71.3483 165.615 71.4494 165.749 71.7774L165.796 71.8932C165.824 71.9607 165.836 72.0061 165.835 72.0293C165.296 72.4177 164.611 72.8089 163.782 73.2029C161.944 74.0754 160.72 74.6867 160.109 75.0368C160.262 75.1654 160.658 75.4318 161.295 75.8359C161.932 76.24 162.442 76.5666 162.824 76.8156C163.217 77.0607 163.582 77.2944 163.92 77.5167C164.687 78.0476 165.108 78.4047 165.183 78.588C165.246 78.7424 165.203 78.9003 165.055 79.0618C164.251 78.827 163.259 78.3255 162.08 77.5573C161.604 77.2451 161.129 76.9328 160.653 76.6205C160.19 76.3139 159.727 76.047 159.264 75.8198C159.353 76.5369 159.419 77.2241 159.462 77.8815C159.515 78.535 159.574 79.1633 159.64 79.7664C159.78 81.1602 160.009 82.3155 160.326 83.2323C160.066 83.3384 159.887 83.3831 159.79 83.3663C159.62 83.3345 159.47 83.1874 159.341 82.9252L159.293 82.8094C159.218 82.1542 159.083 81.2981 158.888 80.2412C158.502 78.1604 158.262 76.7169 158.17 75.9109Z" fill="white"/>
<path d="M165.257 94.0916C164.476 93.9503 163.755 93.8388 163.096 93.7569C162.438 93.6855 161.888 93.6015 161.447 93.5052C160.81 93.3474 160.476 93.1236 160.442 92.8338C160.425 92.6786 160.477 92.4943 160.599 92.2811C161.052 91.747 162.098 90.9459 163.737 89.8777C165.337 88.8349 166.35 88.2892 166.774 88.2406C166.96 88.2193 167.08 88.2632 167.135 88.3723C167.2 88.4803 167.22 88.609 167.195 88.7587C167.132 89.1224 167 89.3891 166.799 89.5588C166.704 89.6431 166.533 89.7518 166.286 89.8849L165.368 90.3831C164.331 90.9421 163.386 91.4852 162.534 92.0126C162.912 92.2 163.393 92.3652 163.975 92.5083L165.365 92.8368C166.582 93.117 167.22 93.4215 167.278 93.7503C167.474 93.99 166.646 94.871 164.797 96.3932C164.011 97.0387 163.543 97.4383 163.393 97.5918C163.404 97.6849 163.726 97.7581 164.362 97.8112C164.998 97.8747 165.534 97.9288 165.969 97.9734C166.415 98.0271 166.833 98.1051 167.222 98.2074C168.13 98.4495 168.61 98.793 168.661 99.238C168.678 99.3829 168.637 99.4872 168.54 99.5508C168.454 99.6235 168.379 99.6634 168.317 99.6705C168.255 99.6776 168.209 99.683 168.178 99.6865C167.812 99.6026 167.393 99.5194 166.922 99.4369C166.462 99.3533 165.985 99.2611 165.491 99.1603C165.009 99.0687 164.526 98.9719 164.042 98.87C163.57 98.7772 163.14 98.6797 162.751 98.5774C161.904 98.3282 161.437 98.0933 161.349 97.8728C161.246 97.7063 161.415 97.3986 161.857 96.9497C162.064 96.7477 162.312 96.5306 162.6 96.2985C162.888 96.0663 163.185 95.8227 163.492 95.5674C164.259 94.9449 164.848 94.453 165.257 94.0916Z" fill="white"/>
<path d="M168.941 103.755C166.992 103.876 164.736 103.974 162.173 104.048C161.851 103.984 161.691 103.732 161.695 103.295C161.695 103.18 161.717 103.061 161.76 102.936C161.813 102.822 161.881 102.749 161.964 102.719L168.949 102.77L168.941 103.755ZM171.077 102.317C171.442 102.32 171.622 102.535 171.619 102.962C171.617 103.243 171.553 103.472 171.427 103.648C171.312 103.679 171.197 103.693 171.082 103.692C170.978 103.692 170.874 103.649 170.771 103.565C170.667 103.481 170.616 103.356 170.617 103.189C170.619 103.022 170.656 102.856 170.731 102.69C170.815 102.524 170.931 102.4 171.077 102.317Z" fill="white"/>
<path d="M162.975 107.635L165.459 107.917C165.853 107.956 166.194 107.954 166.481 107.91L166.723 105.5L167.799 105.577L167.565 107.909L171.576 108.312C171.666 108.353 171.753 108.424 171.837 108.527C171.967 108.687 172.028 108.813 172.018 108.907C172.008 109.01 171.989 109.097 171.961 109.168C171.933 109.238 171.852 109.309 171.72 109.379C171.019 109.476 169.979 109.455 168.601 109.316C168.259 109.282 167.92 109.264 167.586 109.261C167.594 109.597 167.581 109.931 167.548 110.263C167.548 110.263 167.52 110.532 167.466 111.071C167.446 111.268 167.439 111.45 167.443 111.618L166.328 111.459L166.619 109.195L161.247 108.733C161.183 108.539 161.158 108.374 161.171 108.239C161.223 107.721 161.825 107.52 162.975 107.635Z" fill="white"/>
<path d="M159.658 119.366C159.508 119.234 159.478 118.976 159.569 118.59C159.657 118.215 159.839 118.06 160.112 118.125C161.309 118.407 162.136 118.576 162.594 118.631C163.599 118.772 164.171 118.704 164.312 118.427C164.626 117.73 164.838 117.149 164.949 116.683C165.056 116.227 165.004 115.813 164.792 115.442C164.588 115.083 164.181 114.746 163.57 114.43C162.968 114.127 162.092 113.803 160.943 113.456L161.219 112.285C161.793 112.442 162.327 112.579 162.824 112.697C163.321 112.814 163.911 112.943 164.595 113.083C165.289 113.226 166.046 113.378 166.864 113.539C167.808 113.709 168.6 113.869 169.239 114.02C169.887 114.173 170.471 114.354 170.989 114.562C171.158 114.709 171.219 114.879 171.174 115.071C171.119 115.304 170.989 115.467 170.786 115.558C170.592 115.651 170.429 115.687 170.295 115.666L167.803 114.997C166.861 114.775 166.145 114.654 165.657 114.635C166.05 115.691 166.131 116.705 165.901 117.679C165.827 117.993 165.723 118.321 165.588 118.664C165.013 119.331 164.475 119.728 163.974 119.856C163.714 119.913 163.449 119.925 163.179 119.893C162.908 119.861 162.604 119.811 162.267 119.742C161.097 119.529 160.227 119.404 159.658 119.366Z" fill="white"/>
<path d="M160.047 124.755C160.197 124.828 160.41 124.914 160.686 125.013C160.967 125.125 161.272 125.249 161.6 125.385C161.928 125.52 162.256 125.667 162.584 125.826C162.912 125.985 163.199 126.158 163.443 126.346C163.994 126.762 164.176 127.163 163.99 127.547C163.788 127.774 163.611 127.902 163.457 127.932C163.3 127.971 163.136 127.95 162.967 127.869C162.808 127.791 162.627 127.652 162.424 127.449C161.758 126.745 161.096 126.235 160.44 125.917C160.224 125.813 159.988 125.716 159.73 125.626C159.029 125.472 158.466 125.836 158.039 126.718C157.817 127.177 157.686 127.652 157.646 128.142C157.556 129.07 157.64 129.77 157.897 130.242C158.288 130.535 158.643 130.758 158.961 130.913C159.29 131.071 159.587 131.198 159.854 131.292C160.116 131.396 160.407 131.501 160.725 131.609C161.048 131.731 161.395 131.875 161.765 132.043C161.762 132.192 161.734 132.322 161.679 132.435C161.62 132.557 161.5 132.649 161.319 132.712C161.134 132.785 160.852 132.781 160.474 132.703C160.091 132.633 159.663 132.501 159.19 132.307C158.726 132.118 158.25 131.905 157.763 131.669C157.27 131.443 156.794 131.218 156.335 130.996C155.885 130.779 155.487 130.609 155.14 130.488C155.091 130.326 155.092 130.193 155.142 130.09C155.323 129.715 155.832 129.619 156.669 129.804C156.624 129.632 156.598 129.365 156.588 129.001C156.55 128.219 156.678 127.379 156.974 126.48C157.032 126.312 157.109 126.129 157.204 125.932C157.3 125.735 157.457 125.505 157.677 125.241C157.893 124.987 158.2 124.794 158.599 124.663C158.998 124.532 159.481 124.563 160.047 124.755Z" fill="white"/>
<path d="M154.43 139.115C153.779 140.057 153.213 140.363 152.734 140.031C152.374 139.783 152.134 139.231 152.016 138.377C151.843 137.105 151.999 135.662 152.482 134.046C152.524 133.986 152.631 133.959 152.804 133.965C152.972 133.979 153.1 133.985 153.19 133.984C153.282 133.997 153.342 134.001 153.371 133.996C153.016 135.206 152.851 136.289 152.875 137.242C152.888 137.884 152.992 138.273 153.19 138.409C153.387 138.545 153.66 138.361 154.009 137.855C154.359 137.349 154.751 136.525 155.186 135.383C155.511 134.949 155.936 134.673 156.461 134.554C156.922 134.455 157.286 134.497 157.551 134.681C157.825 134.87 158.021 135.119 158.137 135.427C158.262 135.741 158.334 136.095 158.353 136.488C158.373 136.882 158.345 137.306 158.271 137.761C158.094 138.88 157.694 139.889 157.072 140.788C156.889 141.054 156.686 141.293 156.462 141.506C156.32 141.712 156.147 141.77 155.944 141.68C155.74 141.59 155.433 141.403 155.021 141.118C155.602 140.773 156.111 140.283 156.55 139.648C157.094 138.86 157.386 138.099 157.424 137.366C157.483 136.621 157.269 136.069 156.784 135.708C156.544 135.542 156.303 135.635 156.06 135.987L155.515 136.996C155.129 137.92 154.768 138.626 154.43 139.115Z" fill="white"/>
<path d="M136.164 154.865C136.68 156.554 137.91 159.445 139.855 163.538C139.312 163.906 138.913 163.931 138.659 163.612C138.581 163.515 138.527 163.444 138.497 163.401C138.46 163.364 138.37 163.204 138.229 162.922C138.094 162.649 137.906 162.26 137.665 161.757C137.416 161.259 137.134 160.676 136.82 160.008C136.505 159.34 136.186 158.638 135.863 157.901C135.109 156.159 134.528 154.652 134.12 153.382C134.284 152.956 134.502 152.757 134.774 152.787C134.904 152.812 135.043 152.869 135.191 152.957C135.345 153.054 135.519 153.163 135.714 153.282C135.925 153.353 136.395 153.601 137.124 154.025C137.852 154.45 138.437 154.784 138.878 155.026C139.31 155.274 139.721 155.499 140.11 155.701C140.992 156.147 141.607 156.34 141.956 156.28C141.939 155.587 141.593 153.889 140.919 151.187C140.8 150.714 140.685 150.276 140.575 149.872C140.471 149.477 140.39 149.155 140.334 148.904L141.162 148.399L149.463 153.681C149.51 153.713 149.548 153.75 149.577 153.793C149.606 153.836 149.622 153.888 149.626 153.949C149.621 154.015 149.591 154.092 149.537 154.179C149.425 154.33 149.296 154.455 149.15 154.555C149.003 154.654 148.879 154.694 148.778 154.675C148.674 154.67 148.575 154.636 148.482 154.573C148.381 154.516 148.282 154.445 148.186 154.359C148.09 154.273 147.952 154.171 147.772 154.054C147.583 153.943 147.312 153.775 146.957 153.549C146.595 153.33 146.211 153.099 145.808 152.856C145.404 152.614 145.001 152.371 144.597 152.129C144.2 151.895 143.828 151.682 143.483 151.488C142.734 151.052 142.295 150.821 142.164 150.796C142.836 153.94 143.211 155.819 143.288 156.434C143.371 157.058 143.417 157.441 143.427 157.586C143.431 157.797 143.408 157.92 143.356 157.955C142.985 158.206 141.799 157.802 139.797 156.743C139.258 156.467 138.747 156.197 138.265 155.932C137.09 155.294 136.39 154.938 136.164 154.865Z" fill="white"/>
<path d="M131.228 158.366C131.7 159.501 131.589 160.619 130.896 161.72C130.345 162.592 129.546 163.314 128.497 163.885C128.439 163.909 128.305 163.965 128.093 164.053C127.882 164.141 127.572 164.196 127.164 164.219C126.263 164.278 125.527 164.026 124.954 163.463C124.727 163.242 124.573 163.035 124.493 162.843C124.417 162.66 124.368 162.528 124.345 162.447C123.845 161.245 123.908 160.108 124.534 159.035C125.116 158.048 126.042 157.291 127.312 156.763C128.226 156.383 129.006 156.306 129.653 156.534C130.291 156.765 130.816 157.376 131.228 158.366ZM130.088 158.434C129.84 157.838 129.514 157.5 129.108 157.42C128.804 157.366 128.368 157.457 127.8 157.693C127.233 157.929 126.751 158.181 126.354 158.447C125.957 158.714 125.635 159.023 125.386 159.375C124.857 160.136 124.794 161.003 125.198 161.974C125.438 162.551 125.788 162.959 126.248 163.196C126.748 163.45 127.273 163.464 127.821 163.236C128.168 163.012 128.518 162.782 128.871 162.545C129.214 162.312 129.508 162.015 129.752 161.654C130.287 160.879 130.399 159.805 130.088 158.434Z" fill="white"/>
<path d="M116.002 166.463C116.502 166.662 117.085 166.679 117.753 166.514C118.38 166.36 118.933 166.1 119.412 165.736C120.319 165.062 120.877 164.345 121.087 163.585C121.174 163.242 121.175 162.899 121.091 162.555C121.076 162.494 121.033 162.322 120.963 162.039C120.896 161.766 120.754 161.404 120.535 160.953C120.32 160.513 120.152 160.05 120.032 159.565C120.242 159.502 120.408 159.435 120.53 159.362C120.651 159.289 120.757 159.241 120.848 159.219C120.939 159.196 121.03 159.217 121.121 159.28C121.202 159.346 121.311 159.486 121.449 159.698C121.474 159.757 121.537 159.924 121.637 160.199C121.737 160.475 121.862 160.809 122.012 161.201C122.152 161.596 122.311 162.023 122.489 162.484C122.659 162.957 122.827 163.42 122.992 163.873C123.352 164.857 123.621 165.579 123.799 166.039C123.859 166.282 123.712 166.447 123.358 166.534C123.145 166.586 122.956 166.537 122.79 166.384C122.626 166.242 122.48 166.064 122.352 165.848C122.227 165.643 122.126 165.432 122.051 165.215C121.966 165 121.902 164.849 121.86 164.763C120.818 166.285 119.307 167.29 117.324 167.779C117.102 167.833 116.868 167.886 116.622 167.935C116.564 167.96 116.49 167.984 116.399 168.006C116.308 168.029 116.202 167.991 116.081 167.892C115.935 167.777 115.837 167.619 115.787 167.417C115.662 166.911 115.734 166.593 116.002 166.463Z" fill="white"/>
<path d="M111.918 164.422L111.74 163.072C111.679 162.241 111.839 161.723 112.221 161.517C112.302 161.48 112.399 161.457 112.514 161.448C112.628 161.44 112.765 161.456 112.925 161.496L113.339 167.325C113.401 168.167 113.515 169.005 113.681 169.838C113.837 170.683 113.946 171.526 114.008 172.368C114.033 172.7 113.868 172.88 113.515 172.906L113.391 172.915C113.318 172.92 113.271 172.918 113.249 172.91C113.046 172.277 112.885 171.506 112.765 170.595C112.502 168.578 112.297 167.225 112.152 166.536C111.983 166.642 111.608 166.936 111.027 167.418C110.446 167.899 109.978 168.284 109.623 168.571C109.269 168.868 108.935 169.144 108.619 169.397C107.877 169.963 107.408 170.254 107.211 170.268C107.044 170.281 106.907 170.192 106.799 170.001C107.27 169.308 108.053 168.52 109.147 167.635C109.591 167.278 110.034 166.922 110.478 166.565C110.912 166.22 111.309 165.861 111.668 165.49C110.958 165.355 110.284 165.206 109.645 165.044C109.007 164.893 108.392 164.755 107.798 164.632C106.428 164.336 105.259 164.198 104.289 164.217C104.268 163.937 104.281 163.753 104.326 163.666C104.409 163.514 104.595 163.416 104.885 163.374L105.009 163.365C105.656 163.495 106.512 163.63 107.577 163.771C109.676 164.044 111.123 164.261 111.918 164.422Z" fill="white"/>
<path d="M92.5883 165.597C92.9625 164.897 93.2898 164.245 93.57 163.643C93.8401 163.038 94.0886 162.541 94.3156 162.151C94.6611 161.593 94.9769 161.343 95.2629 161.401C95.4161 161.431 95.5754 161.538 95.7407 161.72C96.1101 162.314 96.5517 163.556 97.0653 165.444C97.5668 167.287 97.7755 168.417 97.6915 168.836C97.6546 169.02 97.5759 169.121 97.4553 169.139C97.3327 169.168 97.204 169.147 97.0693 169.078C96.7425 168.906 96.5291 168.699 96.4292 168.455C96.3782 168.339 96.3272 168.143 96.2763 167.867L96.0839 166.84C95.8701 165.682 95.643 164.616 95.4025 163.644C95.1081 163.946 94.8035 164.352 94.4886 164.863L93.7493 166.085C93.1093 167.157 92.6238 167.671 92.2929 167.626C92.0047 167.738 91.4201 166.68 90.5389 164.453C90.1657 163.507 89.929 162.939 89.829 162.749C89.7371 162.73 89.5684 163.015 89.3229 163.603C89.0672 164.19 88.8514 164.683 88.6754 165.083C88.4873 165.492 88.2848 165.865 88.068 166.204C87.5589 166.995 87.0847 167.346 86.6456 167.258C86.5026 167.229 86.4158 167.158 86.3852 167.046C86.3424 166.942 86.3271 166.859 86.3394 166.798C86.3517 166.736 86.3609 166.69 86.3671 166.66C86.5593 166.337 86.7669 165.964 86.9898 165.542C87.2107 165.129 87.4448 164.703 87.6923 164.264C87.9275 163.833 88.1678 163.404 88.4132 162.975C88.6463 162.554 88.8713 162.174 89.088 161.835C89.5849 161.106 89.9518 160.734 90.1888 160.717C90.3788 160.671 90.6197 160.926 90.9115 161.484C91.0401 161.743 91.1706 162.046 91.3032 162.391C91.4358 162.736 91.5765 163.094 91.7254 163.464C92.0824 164.385 92.37 165.097 92.5883 165.597Z" fill="white"/>
<path d="M82.2745 166.139C82.7582 164.248 83.3582 162.071 84.0746 159.608C84.2354 159.322 84.5235 159.247 84.9388 159.384C85.0476 159.42 85.1548 159.478 85.2603 159.557C85.3528 159.642 85.4007 159.729 85.4042 159.818L83.209 166.449L82.2745 166.139ZM82.9861 168.613C82.8715 168.959 82.6115 169.065 82.2061 168.931C81.9391 168.843 81.7412 168.711 81.6124 168.537C81.6187 168.418 81.6399 168.305 81.6759 168.196C81.7086 168.097 81.7809 168.011 81.8928 167.939C82.0046 167.866 82.1397 167.856 82.2979 167.908C82.4561 167.961 82.6029 168.048 82.7382 168.169C82.8702 168.301 82.9529 168.449 82.9861 168.613Z" fill="white"/>
<path d="M80.4712 159.292L79.4418 161.571C79.2833 161.934 79.1812 162.258 79.1354 162.545L81.3548 163.515L80.9518 164.515L78.8041 163.577L77.1903 167.271C77.1241 167.345 77.0293 167.405 76.9059 167.454C76.7139 167.529 76.5749 167.548 76.489 167.51C76.3935 167.469 76.3166 167.424 76.2581 167.375C76.1996 167.327 76.1572 167.229 76.1309 167.081C76.2534 166.384 76.5919 165.401 77.1465 164.132C77.2841 163.817 77.4053 163.5 77.5101 163.182C77.188 163.087 76.8742 162.973 76.5687 162.839C76.5687 162.839 76.3206 162.731 75.8242 162.514C75.6428 162.435 75.4716 162.371 75.3105 162.324L75.8038 161.312L77.8693 162.282L79.9557 157.311C80.1609 157.31 80.3255 157.336 80.4496 157.39C80.9269 157.599 80.9341 158.233 80.4712 159.292Z" fill="white"/>
<path d="M70.0262 152.37C70.1984 152.267 70.4535 152.319 70.7916 152.525C71.1208 152.725 71.2123 152.945 71.0661 153.186C70.4269 154.236 70.0103 154.97 69.8165 155.388C69.3711 156.3 69.2585 156.866 69.4786 157.085C70.0434 157.6 70.5304 157.982 70.9397 158.231C71.3401 158.475 71.7496 158.553 72.1682 158.466C72.5724 158.383 73.0191 158.1 73.5081 157.618C73.9829 157.138 74.5628 156.406 75.2481 155.421L76.2757 156.046C75.9492 156.543 75.6532 157.009 75.3877 157.445C75.1223 157.881 74.817 158.402 74.4719 159.009C74.1213 159.625 73.7427 160.297 73.3361 161.025C72.8822 161.871 72.4846 162.574 72.1434 163.134C71.7967 163.704 71.4442 164.203 71.0859 164.631C70.894 164.746 70.7136 164.752 70.5445 164.649C70.3399 164.524 70.2258 164.351 70.2022 164.129C70.1732 163.917 70.1894 163.75 70.251 163.629L71.6584 161.467C72.1622 160.64 72.4986 159.997 72.6677 159.539C71.5419 159.585 70.5519 159.348 69.6978 158.828C69.422 158.66 69.1419 158.459 68.8576 158.225C68.4015 157.472 68.1904 156.837 68.2241 156.321C68.2508 156.057 68.3212 155.801 68.4354 155.554C68.5495 155.306 68.6915 155.033 68.8614 154.734C69.4255 153.687 69.8138 152.899 70.0262 152.37Z" fill="white"/>
<path d="M64.7321 151.058C64.6167 151.178 64.4692 151.354 64.2897 151.586C64.0955 151.819 63.8833 152.07 63.653 152.34C63.4227 152.609 63.1813 152.876 62.9288 153.139C62.6762 153.402 62.4228 153.621 62.1685 153.795C61.6019 154.19 61.1645 154.239 60.8565 153.943C60.7038 153.681 60.637 153.473 60.6559 153.317C60.6674 153.155 60.738 153.006 60.8679 152.871C60.9905 152.743 61.1795 152.614 61.4347 152.484C62.3103 152.068 63.0007 151.598 63.5057 151.072C63.6717 150.899 63.8372 150.704 64.0022 150.487C64.3654 149.868 64.1939 149.22 63.4876 148.541C63.1195 148.188 62.7088 147.916 62.2555 147.726C61.4008 147.353 60.7091 147.216 60.1807 147.315C59.7812 147.596 59.4588 147.864 59.2135 148.12C58.961 148.383 58.7486 148.626 58.5763 148.851C58.3965 149.068 58.2062 149.311 58.0054 149.581C57.7898 149.85 57.5451 150.135 57.2712 150.435C57.1303 150.387 57.0147 150.319 56.9246 150.232C56.8269 150.139 56.7761 149.996 56.7722 149.805C56.7608 149.606 56.8512 149.339 57.0433 149.003C57.2279 148.661 57.4857 148.295 57.8167 147.905C58.1405 147.523 58.49 147.136 58.8652 146.745C59.2328 146.347 59.5934 145.964 59.947 145.596C60.2933 145.236 60.5777 144.909 60.8002 144.618C60.9697 144.621 61.0958 144.663 61.1784 144.742C61.479 145.031 61.412 145.544 60.9775 146.283C61.1546 146.294 61.4173 146.351 61.7656 146.455C62.5213 146.66 63.2805 147.043 64.0432 147.602C64.1854 147.709 64.3354 147.839 64.4932 147.991C64.6509 148.142 64.8212 148.363 65.0039 148.654C65.1791 148.938 65.2672 149.29 65.2684 149.71C65.2695 150.13 65.0908 150.579 64.7321 151.058Z" fill="white"/>
<path d="M53.1002 141.62C52.4053 140.709 52.2898 140.076 52.7536 139.723C53.1015 139.457 53.7 139.4 54.5492 139.552C55.8115 139.781 57.1361 140.376 58.5231 141.336C58.5673 141.394 58.5599 141.504 58.5008 141.667C58.4353 141.822 58.3894 141.942 58.363 142.028C58.322 142.111 58.2996 142.168 58.2956 142.197C57.2544 141.484 56.2765 140.992 55.3618 140.72C54.7477 140.534 54.3455 140.513 54.155 140.658C53.9645 140.804 54.0556 141.121 54.4283 141.609C54.801 142.098 55.4634 142.726 56.4154 143.493C56.7273 143.937 56.8584 144.426 56.8085 144.962C56.7602 145.431 56.6077 145.764 56.3509 145.959C56.0859 146.162 55.7888 146.27 55.4597 146.285C55.1224 146.307 54.7637 146.266 54.3837 146.163C54.0037 146.06 53.6087 145.902 53.1986 145.691C52.1903 145.176 51.3545 144.484 50.6912 143.614C50.4954 143.358 50.3307 143.09 50.1972 142.812C50.0456 142.613 50.0441 142.431 50.1928 142.265C50.3415 142.099 50.6146 141.865 51.0122 141.562C51.1612 142.221 51.4695 142.857 51.9369 143.47C52.5181 144.232 53.1514 144.745 53.8369 145.008C54.5267 145.294 55.1182 145.262 55.6112 144.912C55.8431 144.735 55.8296 144.477 55.5706 144.138L54.7795 143.306C54.02 142.654 53.4603 142.092 53.1002 141.62Z" fill="white"/>
<path d="M43.6292 119.292C41.8633 119.266 38.7345 119.554 34.2427 120.153C34.0582 119.524 34.1565 119.137 34.5375 118.992C34.6545 118.947 34.7381 118.917 34.788 118.903C34.8351 118.878 35.0144 118.842 35.326 118.794C35.6276 118.749 36.0551 118.689 36.6083 118.614C37.1586 118.528 37.7997 118.438 38.5317 118.343C39.2637 118.248 40.03 118.159 40.8307 118.076C42.7197 117.892 44.3317 117.799 45.6667 117.799C46.022 118.086 46.144 118.354 46.0327 118.604C45.9691 118.72 45.8725 118.835 45.7431 118.949C45.6037 119.066 45.4472 119.198 45.2736 119.347C45.1417 119.527 44.7622 119.898 44.135 120.462C43.5078 121.026 43.0115 121.481 42.6461 121.827C42.2778 122.162 41.938 122.485 41.6267 122.793C40.9317 123.496 40.5597 124.023 40.5105 124.374C41.1758 124.569 42.8977 124.76 45.6763 124.944C46.163 124.975 46.6153 125 47.0332 125.019C47.4412 125.04 47.7733 125.062 48.0296 125.085L48.257 126.028L40.6886 132.316C40.6445 132.351 40.5975 132.375 40.5475 132.39C40.4975 132.404 40.4431 132.404 40.3844 132.389C40.3227 132.363 40.2586 132.312 40.1923 132.233C40.0825 132.081 40.0027 131.92 39.9529 131.75C39.9031 131.58 39.903 131.45 39.9524 131.359C39.989 131.262 40.0514 131.178 40.1396 131.109C40.2249 131.03 40.3232 130.958 40.4344 130.892C40.5455 130.827 40.6844 130.727 40.8509 130.591C41.0144 130.446 41.2577 130.239 41.5807 129.97C41.9008 129.692 42.2379 129.398 42.5921 129.088C42.9463 128.778 43.3005 128.468 43.6547 128.158C43.9989 127.851 44.316 127.562 44.6061 127.293C45.2504 126.713 45.6043 126.365 45.6679 126.249C42.4692 125.927 40.5653 125.709 39.9564 125.594C39.3376 125.483 38.9579 125.409 38.8174 125.375C38.6153 125.314 38.5054 125.254 38.4878 125.194C38.3619 124.764 39.1091 123.759 40.7297 122.176C41.1574 121.747 41.5711 121.344 41.9706 120.966C42.9374 120.042 43.4902 119.484 43.6292 119.292Z" fill="white"/>
<path d="M41.8128 113.749C40.588 113.853 39.5571 113.408 38.7199 112.412C38.057 111.622 37.6131 110.64 37.3882 109.467C37.3829 109.405 37.3706 109.26 37.3512 109.031C37.3318 108.803 37.3733 108.491 37.4757 108.096C37.6941 107.22 38.1586 106.595 38.8691 106.221C39.1492 106.072 39.393 105.989 39.6006 105.971C39.7978 105.954 39.9384 105.948 40.0223 105.951C41.3197 105.841 42.3839 106.247 43.2148 107.17C43.9773 108.025 44.4167 109.138 44.5329 110.508C44.6166 111.494 44.4516 112.261 44.038 112.808C43.6236 113.345 42.8818 113.659 41.8128 113.749ZM42.0953 112.643C42.7388 112.589 43.1602 112.381 43.3595 112.019C43.5036 111.745 43.5497 111.302 43.4977 110.69C43.4458 110.077 43.3533 109.542 43.2203 109.083C43.0872 108.623 42.8911 108.222 42.632 107.878C42.0677 107.142 41.2614 106.818 40.2131 106.907C39.5904 106.96 39.0959 107.169 38.7296 107.535C38.3349 107.934 38.1626 108.43 38.2128 109.021C38.3198 109.42 38.4324 109.823 38.5506 110.231C38.668 110.629 38.8615 110.999 39.131 111.342C39.7065 112.088 40.6946 112.522 42.0953 112.643Z" fill="white"/>
<path d="M38.7108 96.7968C38.3683 97.2112 38.1728 97.7613 38.1244 98.4471C38.0789 99.0913 38.1562 99.6973 38.3563 100.265C38.7194 101.335 39.2303 102.086 39.8889 102.519C40.1889 102.707 40.5156 102.814 40.8689 102.839C40.9312 102.843 41.1078 102.856 41.3988 102.876C41.6793 102.896 42.0675 102.871 42.5632 102.802C43.0485 102.732 43.5405 102.714 44.0393 102.749C44.0343 102.968 44.0478 103.147 44.0798 103.285C44.1118 103.423 44.1245 103.538 44.1179 103.632C44.1113 103.726 44.0639 103.806 43.9757 103.873C43.8881 103.929 43.7219 103.99 43.4771 104.057C43.414 104.063 43.2359 104.071 42.9427 104.082C42.6496 104.092 42.2934 104.109 41.8741 104.131C41.4555 104.144 40.9998 104.164 40.5071 104.192C40.0047 104.208 39.5126 104.226 39.031 104.244C37.9838 104.285 37.2139 104.319 36.7211 104.347C36.4717 104.33 36.3599 104.139 36.3855 103.775C36.4009 103.557 36.5066 103.392 36.7024 103.281C36.8878 103.169 37.1026 103.085 37.3467 103.029C37.5805 102.972 37.8124 102.942 38.0424 102.937C38.2732 102.922 38.4361 102.907 38.5311 102.893C37.4018 101.435 36.909 99.6875 37.0528 97.6509C37.0689 97.4223 37.091 97.1837 37.119 96.9351C37.113 96.872 37.1133 96.7937 37.1199 96.7002C37.1265 96.6067 37.1954 96.5175 37.3267 96.4328C37.4803 96.3288 37.6609 96.2841 37.8688 96.2988C38.3883 96.3355 38.669 96.5015 38.7108 96.7968Z" fill="white"/>
<path d="M41.9104 93.2993L43.2494 93.5461C44.059 93.7439 44.5027 94.0561 44.5808 94.4826C44.5914 94.571 44.5831 94.6708 44.5559 94.7822C44.5287 94.8935 44.4712 95.0188 44.3835 95.1582L38.7105 93.7559C37.8909 93.5556 37.0589 93.4059 36.2145 93.3068C35.3625 93.1951 34.5267 93.0391 33.7071 92.8388C33.3833 92.7597 33.2634 92.5481 33.3475 92.2041L33.3771 92.0827C33.3945 92.0118 33.4106 91.9675 33.4257 91.9498C34.0902 91.9513 34.8738 92.0355 35.7766 92.2026C37.777 92.5734 39.1273 92.7961 39.8276 92.8707C39.7785 92.6765 39.6145 92.2289 39.3354 91.528C39.0562 90.8272 38.8347 90.2637 38.6708 89.8376C38.4967 89.409 38.3379 89.0056 38.1944 88.6274C37.884 87.7473 37.7523 87.2112 37.7993 87.0189C37.8389 86.857 37.9659 86.754 38.1804 86.7099C38.6943 87.3716 39.2036 88.3593 39.7083 89.6729C39.9107 90.2049 40.1131 90.7369 40.3155 91.2689C40.5103 91.7883 40.7289 92.276 40.9713 92.732C41.3191 92.0986 41.6684 91.503 42.0191 90.9453C42.3598 90.3852 42.6803 89.8415 42.9806 89.3144C43.6841 88.1031 44.1761 87.033 44.4567 86.1043C44.7299 86.1711 44.9008 86.2397 44.9694 86.31C45.0888 86.4357 45.124 86.6427 45.075 86.931L45.0453 87.0524C44.7225 87.6276 44.3299 88.4003 43.8677 89.3704C42.9608 91.2827 42.3083 92.5923 41.9104 93.2993Z" fill="white"/>
<path d="M46.7185 74.5561C47.2691 75.1285 47.7875 75.6411 48.2739 76.0938C48.7654 76.5374 49.1616 76.9274 49.4624 77.2638C49.8858 77.7648 50.0261 78.1424 49.8831 78.3966C49.8066 78.5328 49.6562 78.6515 49.4321 78.7525C48.7524 78.9201 47.4354 78.9564 45.4811 78.8615C43.5734 78.7689 42.4334 78.618 42.0611 78.4087C41.8976 78.3168 41.8258 78.2107 41.8457 78.0904C41.8564 77.965 41.9157 77.8489 42.0235 77.7422C42.2878 77.4846 42.5511 77.3458 42.8132 77.3258C42.9398 77.3133 43.1421 77.3255 43.4201 77.3623L44.456 77.4965C45.6238 77.6512 46.7073 77.7644 47.7066 77.8362C47.5102 77.4629 47.2179 77.0476 46.8296 76.5904L45.8957 75.5096C45.0738 74.5696 44.7355 73.9492 44.8807 73.6484C44.863 73.3397 46.0495 73.1105 48.44 72.9607C49.4551 72.898 50.0685 72.8485 50.2802 72.8121C50.3261 72.7304 50.1073 72.4819 49.6237 72.0667C49.1453 71.6424 48.7429 71.2847 48.4166 70.9937C48.0862 70.6885 47.7934 70.3804 47.538 70.0695C46.9437 69.3411 46.7563 68.7817 46.9758 68.3912C47.0473 68.2641 47.1412 68.2034 47.2575 68.209C47.3698 68.2005 47.4533 68.2115 47.5077 68.2421C47.5622 68.2728 47.6031 68.2957 47.6303 68.311C47.8778 68.5936 48.1681 68.9062 48.5013 69.2488C48.8254 69.5864 49.1579 69.9406 49.4991 70.3117C49.8362 70.6685 50.1708 71.0299 50.5028 71.3958C50.8309 71.7475 51.1226 72.0788 51.378 72.3897C51.9178 73.0875 52.1588 73.5516 52.101 73.782C52.0868 73.9772 51.7694 74.1274 51.1487 74.2325C50.8621 74.2746 50.5341 74.3053 50.1648 74.3247C49.7954 74.344 49.4118 74.3674 49.014 74.3947C48.0273 74.4494 47.2621 74.5032 46.7185 74.5561Z" fill="white"/>
<path d="M49.6248 64.1894C51.2729 65.2365 53.156 66.4827 55.274 67.9281C55.4968 68.17 55.4784 68.467 55.2188 68.8192C55.1508 68.9114 55.0629 68.9954 54.9552 69.0713C54.8452 69.1326 54.7475 69.1511 54.6619 69.1268L49.0406 64.9816L49.6248 64.1894ZM47.0521 64.0977C46.7586 63.8814 46.7387 63.6013 46.9921 63.2576C47.1591 63.0312 47.3454 62.8839 47.5511 62.8155C47.6618 62.8584 47.7633 62.9138 47.8556 62.9818C47.9394 63.0436 47.9985 63.139 48.0329 63.2679C48.0673 63.3968 48.035 63.5283 47.9361 63.6624C47.8372 63.7966 47.7089 63.9091 47.5513 63.9999C47.3853 64.0846 47.2189 64.1172 47.0521 64.0977Z" fill="white"/>
<path d="M56.5915 64.7109L54.7446 63.0257C54.4489 62.7626 54.1717 62.5648 53.9132 62.4323L52.3032 64.2416L51.477 63.5483L53.035 61.7973L50.0234 59.1176C49.9741 59.0319 49.9456 58.9229 49.9379 58.7905C49.9259 58.5846 49.9511 58.4467 50.0134 58.3766C50.0826 58.2988 50.1493 58.2396 50.2133 58.199C50.2773 58.1583 50.3837 58.1484 50.5325 58.1693C51.1569 58.5018 51.9866 59.1285 53.0216 60.0495C53.2784 60.278 53.5417 60.4913 53.8115 60.6896C54.002 60.4128 54.208 60.15 54.4296 59.9009C54.4296 59.9009 54.6096 59.6986 54.9697 59.2939C55.1013 59.1461 55.2146 59.003 55.3099 58.8646L56.1192 59.6475L54.556 61.3102L58.6352 64.8352C58.5728 65.0307 58.4966 65.179 58.4066 65.2802C58.0603 65.6693 57.4553 65.4795 56.5915 64.7109Z" fill="white"/>
<path d="M66.1668 57.1211C66.2114 57.3164 66.0838 57.5433 65.7839 57.8017C65.492 58.0534 65.2542 58.0727 65.0706 57.8596C64.2681 56.9286 63.6975 56.3064 63.3588 55.9933C62.6282 55.2891 62.1246 55.008 61.8482 55.15C61.1849 55.5292 60.6717 55.8752 60.3088 56.188C59.9537 56.4941 59.753 56.8596 59.7068 57.2845C59.6616 57.6948 59.7935 58.2068 60.1025 58.8206C60.4125 59.4197 60.931 60.1967 61.6579 61.1517L60.7465 61.9372C60.3747 61.4739 60.0221 61.0489 59.6889 60.6623C59.3556 60.2756 58.9533 59.8248 58.4819 59.3097C58.0037 58.7868 57.4807 58.2199 56.913 57.6091C56.2478 56.9172 55.7011 56.3227 55.2726 55.8256C54.8374 55.3206 54.4711 54.8318 54.1738 54.3592C54.1235 54.1413 54.1733 53.9677 54.3232 53.8385C54.5047 53.6821 54.7045 53.6268 54.9227 53.6725C55.1341 53.7103 55.2879 53.7771 55.3842 53.8729L57.0082 55.8768C57.6407 56.6106 58.1488 57.1283 58.5327 57.4301C58.8348 56.3446 59.3645 55.4754 60.122 54.8226C60.3666 54.6117 60.644 54.407 60.9542 54.2085C61.8112 54.0061 62.48 54.0004 62.9607 54.1911C63.2039 54.2978 63.4258 54.4435 63.6263 54.6282C63.8268 54.813 64.0432 55.0322 64.2755 55.2857C65.0981 56.1444 65.7285 56.7562 66.1668 57.1211Z" fill="white"/>
<path d="M69.0692 52.4578C68.9904 52.311 68.8682 52.1165 68.7027 51.8743C68.5414 51.618 68.3678 51.3388 68.1819 51.0366C67.9961 50.7344 67.8169 50.4227 67.6444 50.1015C67.4719 49.7803 67.3418 49.4718 67.254 49.1761C67.053 48.5155 67.1406 48.0842 67.5169 47.8822C67.8133 47.8176 68.0323 47.8182 68.1741 47.884C68.325 47.9449 68.4448 48.0579 68.5335 48.2231C68.6172 48.3791 68.6819 48.5986 68.7274 48.8816C68.8532 49.8426 69.0886 50.6444 69.4336 51.2868C69.5469 51.4979 69.6814 51.7153 69.837 51.9391C70.314 52.4752 70.9839 52.5116 71.8466 52.0484C72.2962 51.807 72.6811 51.4998 73.0012 51.127C73.6193 50.4286 73.9626 49.8127 74.0309 49.2794C73.8868 48.8129 73.731 48.4237 73.5635 48.1116C73.391 47.7904 73.2245 47.5133 73.0639 47.2803C72.9125 47.0424 72.7396 46.7864 72.5452 46.5124C72.3551 46.2244 72.1593 45.9038 71.958 45.5508C72.0477 45.4317 72.1477 45.3426 72.2578 45.2835C72.3771 45.2194 72.5284 45.215 72.7118 45.2702C72.9044 45.3206 73.1306 45.4887 73.3906 45.7748C73.6598 46.0559 73.9289 46.4139 74.1978 46.8488C74.4619 47.2745 74.722 47.726 74.9783 48.2033C75.2437 48.6756 75.4971 49.1366 75.7386 49.5862C75.9751 50.0268 76.198 50.3978 76.4071 50.6993C76.3512 50.8594 76.2728 50.9665 76.1718 51.0207C75.8047 51.2178 75.3369 50.9961 74.7683 50.3555C74.7032 50.5205 74.5678 50.7528 74.3622 51.0524C73.9338 51.708 73.3363 52.3126 72.5694 52.8663C72.4233 52.9684 72.2538 53.0712 72.0611 53.1747C71.8684 53.2781 71.6055 53.372 71.2724 53.4563C70.9484 53.5356 70.5865 53.5112 70.1867 53.383C69.7868 53.2549 69.4143 52.9465 69.0692 52.4578Z" fill="white"/>
<path d="M81.6759 44.2629C82.7563 43.8812 83.3936 43.9654 83.5879 44.5154C83.7336 44.9279 83.6041 45.515 83.1992 46.2767C82.5934 47.4076 81.6209 48.4858 80.2818 49.5112C80.2131 49.5355 80.1102 49.4945 79.9732 49.3882C79.8461 49.2785 79.7458 49.1979 79.6724 49.1465C79.6054 49.0818 79.5586 49.0431 79.532 49.0304C80.5297 48.2582 81.2982 47.4785 81.8377 46.6914C82.2039 46.1643 82.3471 45.7878 82.2673 45.5619C82.1875 45.336 81.8579 45.3254 81.2784 45.5301C80.6989 45.7348 79.8979 46.1724 78.8753 46.843C78.3576 47.0037 77.8515 46.9781 77.3568 46.7662C76.9251 46.5762 76.6555 46.329 76.5479 46.0245C76.4369 45.7102 76.4247 45.3942 76.5113 45.0763C76.5944 44.7487 76.7434 44.4199 76.9583 44.0899C77.1731 43.7599 77.444 43.4322 77.771 43.1068C78.5705 42.3052 79.4858 41.7222 80.5171 41.3579C80.8216 41.2504 81.1267 41.1757 81.4323 41.1341C81.6681 41.0508 81.842 41.1053 81.9541 41.2977C82.0663 41.4901 82.2056 41.822 82.3722 42.2935C81.699 42.233 80.999 42.3311 80.2722 42.5879C79.3686 42.907 78.6863 43.3524 78.2254 43.924C77.7413 44.4927 77.5901 45.0654 77.7717 45.642C77.8688 45.917 78.1187 45.9834 78.5214 45.8411L79.5553 45.3433C80.4091 44.8208 81.116 44.4606 81.6759 44.2629Z" fill="white"/>
</svg>
