<svg width="356" height="312" viewBox="0 0 356 312" fill="none" xmlns="http://www.w3.org/2000/svg">
<g clip-path="url(#clip0_9_2354)">
<path d="M260.529 267.795L18.9073 250.03L122.435 201.082L317.519 214.515L260.529 267.795Z" fill="#007AFF"/>
<path d="M260.53 271.117C260.448 271.117 260.367 271.114 260.286 271.108L18.6628 253.345C17.9306 253.29 17.2369 252.996 16.6898 252.507C16.1427 252.017 15.7731 251.361 15.6385 250.64C15.5039 249.919 15.6119 249.174 15.9457 248.52C16.2795 247.867 16.8204 247.342 17.4839 247.028L121.011 198.08C121.526 197.837 122.094 197.73 122.662 197.768L317.747 211.201C318.393 211.246 319.012 211.478 319.528 211.869C320.044 212.26 320.435 212.793 320.652 213.402C320.869 214.012 320.903 214.672 320.75 215.3C320.597 215.929 320.264 216.5 319.791 216.942L262.801 270.222C262.185 270.797 261.373 271.117 260.53 271.117ZM31.7342 247.642L259.321 264.374L309.668 217.305L123.072 204.456L31.7342 247.642Z" fill="#007AFF"/>
<path d="M261.239 293.077L18.9006 275.799L18.9571 250.07L260.748 267.784L261.239 293.077Z" fill="white"/>
<path d="M261.239 296.4C261.16 296.4 261.081 296.398 261.002 296.392L18.6637 279.114C17.8234 279.055 17.037 278.678 16.4637 278.062C15.8903 277.445 15.5727 276.634 15.575 275.792L15.6315 250.064C15.6323 249.607 15.7272 249.156 15.9103 248.738C16.0933 248.32 16.3605 247.945 16.6953 247.634C17.0302 247.324 17.4253 247.086 17.8562 246.935C18.2872 246.785 18.7446 246.724 19.1999 246.758L260.991 264.471C261.817 264.532 262.591 264.899 263.162 265.5C263.732 266.101 264.057 266.893 264.073 267.721L264.564 293.014C264.573 293.455 264.493 293.894 264.33 294.305C264.167 294.716 263.924 295.09 263.614 295.405C263.304 295.72 262.935 295.971 262.527 296.142C262.119 296.313 261.681 296.401 261.239 296.4ZM22.2329 272.706L257.844 289.505L257.482 270.877L22.2744 253.645L22.2329 272.706Z" fill="#007AFF"/>
<path d="M316.887 238.833L261.238 293.073L260.747 267.78L317.519 214.515L316.887 238.833Z" fill="white"/>
<path d="M261.238 296.395C260.368 296.395 259.532 296.054 258.91 295.445C258.288 294.836 257.93 294.007 257.914 293.137L257.422 267.845C257.413 267.38 257.502 266.919 257.682 266.49C257.863 266.062 258.131 265.676 258.471 265.358L315.243 212.093C315.722 211.645 316.322 211.348 316.969 211.24C317.616 211.132 318.28 211.218 318.879 211.486C319.477 211.754 319.983 212.193 320.333 212.747C320.683 213.301 320.86 213.947 320.844 214.602L320.211 238.92C320.189 239.785 319.829 240.607 319.21 241.212L263.561 295.452C262.94 296.056 262.106 296.395 261.238 296.395ZM264.101 269.191L264.414 285.335L313.597 237.397L313.988 222.385L264.101 269.191Z" fill="#007AFF"/>
<path d="M256.559 232.683L36.9013 216.534L131.018 172.035L313.659 191.043L256.559 232.683Z" fill="white"/>
<path d="M256.559 236.005C256.478 236.005 256.396 236.002 256.315 235.996L36.6569 219.847C35.9247 219.793 35.231 219.499 34.6839 219.01C34.1368 218.52 33.7671 217.864 33.6325 217.143C33.4979 216.422 33.606 215.676 33.9398 215.023C34.2736 214.37 34.8145 213.845 35.478 213.531L129.595 169.032C130.145 168.772 130.756 168.667 131.361 168.73L314.003 187.738C314.672 187.808 315.303 188.079 315.814 188.514C316.326 188.95 316.693 189.53 316.868 190.178C317.043 190.826 317.017 191.512 316.795 192.146C316.572 192.779 316.162 193.33 315.62 193.726L258.519 235.366C257.95 235.781 257.264 236.005 256.559 236.005ZM49.7282 214.145L255.586 229.279L304.715 193.452L131.6 175.435L49.7282 214.145Z" fill="#007AFF"/>
<path d="M257.204 255.668L36.8955 239.96L36.9462 216.569L256.757 232.673L257.204 255.668Z" fill="white"/>
<path d="M257.204 258.99C257.125 258.99 257.046 258.988 256.967 258.982L36.6586 243.274C35.8184 243.214 35.0323 242.838 34.459 242.222C33.8857 241.605 33.568 240.794 33.5699 239.953L33.6206 216.562C33.6214 216.106 33.7163 215.655 33.8994 215.237C34.0824 214.819 34.3496 214.443 34.6844 214.133C35.0192 213.823 35.4144 213.585 35.8453 213.434C36.2762 213.283 36.7336 213.223 37.189 213.256L257 229.36C257.826 229.421 258.601 229.787 259.171 230.388C259.741 230.989 260.066 231.782 260.082 232.61L260.528 255.603C260.537 256.045 260.457 256.484 260.294 256.894C260.131 257.305 259.888 257.679 259.578 257.994C259.269 258.309 258.899 258.56 258.492 258.731C258.084 258.902 257.646 258.99 257.204 258.99ZM40.2278 236.867L253.809 252.094L253.491 235.766L40.2644 220.145L40.2278 236.867Z" fill="#007AFF"/>
<path d="M313.085 213.151L257.203 255.663L256.757 232.669L313.659 191.043L313.085 213.151Z" fill="white"/>
<path d="M257.204 258.985C256.333 258.985 255.497 258.644 254.875 258.034C254.254 257.425 253.896 256.597 253.88 255.727L253.433 232.733C253.423 232.2 253.541 231.673 253.778 231.195C254.015 230.717 254.363 230.303 254.793 229.988L311.696 188.361C312.198 187.994 312.792 187.775 313.412 187.729C314.032 187.682 314.653 187.81 315.204 188.098C315.755 188.386 316.213 188.823 316.528 189.359C316.843 189.894 317.002 190.507 316.986 191.128L316.41 213.236C316.397 213.733 316.273 214.221 316.047 214.663C315.82 215.106 315.497 215.492 315.101 215.793L259.221 258.305C258.641 258.747 257.932 258.986 257.204 258.985ZM260.116 234.331L260.402 249.054L309.801 211.473L310.159 197.722L260.116 234.331Z" fill="#007AFF"/>
<path d="M233.665 208.513L47.5807 180.909L131.278 141.94L313.723 166.292L233.665 208.513Z" fill="white"/>
<path d="M233.665 211.836C233.502 211.836 233.339 211.824 233.177 211.8L47.0927 184.196C46.3855 184.091 45.731 183.761 45.2262 183.255C44.7215 182.749 44.3934 182.094 44.2905 181.387C44.1877 180.68 44.3156 179.959 44.6553 179.33C44.995 178.702 45.5285 178.199 46.1765 177.897L129.873 138.928C130.449 138.66 131.089 138.563 131.718 138.646L314.164 162.998C314.863 163.091 315.514 163.404 316.024 163.891C316.533 164.378 316.874 165.015 316.998 165.708C317.122 166.402 317.022 167.117 316.712 167.75C316.402 168.383 315.899 168.902 315.275 169.23L235.217 211.451C234.739 211.704 234.206 211.836 233.665 211.836ZM59.0234 179.247L233.076 205.066L302.967 168.207L131.801 145.362L59.0234 179.247Z" fill="#007AFF"/>
<path d="M233.121 230.29L46.8774 204.379L47.6123 180.944L233.855 208.517L233.121 230.29Z" fill="white"/>
<path d="M233.121 233.612C232.969 233.612 232.815 233.601 232.662 233.581L46.4184 207.67C45.6058 207.557 44.8638 207.148 44.3349 206.521C43.8061 205.894 43.5277 205.094 43.5534 204.275L44.2884 180.841C44.303 180.372 44.4167 179.912 44.622 179.49C44.8273 179.069 45.1195 178.696 45.4794 178.395C45.8394 178.094 46.2589 177.873 46.7105 177.746C47.1621 177.619 47.6354 177.589 48.0995 177.657L234.343 205.229C235.151 205.349 235.887 205.762 236.41 206.389C236.933 207.016 237.207 207.813 237.179 208.629L236.444 230.401C236.429 230.866 236.315 231.323 236.111 231.742C235.908 232.161 235.618 232.532 235.261 232.831C234.662 233.336 233.904 233.612 233.121 233.612ZM50.2953 201.5L229.922 226.49L230.432 211.37L50.8191 184.779L50.2953 201.5Z" fill="#007AFF"/>
<path d="M312.813 187.45L233.121 230.285L233.856 208.513L313.723 166.292L312.813 187.45Z" fill="white"/>
<path d="M233.121 233.608C232.675 233.608 232.234 233.518 231.823 233.344C231.412 233.17 231.041 232.915 230.731 232.595C230.421 232.275 230.178 231.895 230.018 231.479C229.858 231.063 229.783 230.619 229.798 230.174L230.533 208.402C230.553 207.817 230.726 207.248 231.037 206.752C231.348 206.256 231.784 205.85 232.301 205.577L312.168 163.356C312.686 163.083 313.266 162.951 313.851 162.973C314.436 162.996 315.005 163.172 315.5 163.485C315.994 163.797 316.398 164.234 316.67 164.752C316.941 165.27 317.071 165.851 317.046 166.435L316.135 187.594C316.11 188.169 315.936 188.728 315.63 189.216C315.324 189.704 314.896 190.104 314.388 190.377L234.697 233.213C234.213 233.472 233.671 233.608 233.121 233.608ZM237.115 210.549L236.64 224.621L309.572 185.419L310.152 171.939L237.115 210.549Z" fill="#007AFF"/>
</g>
<g clip-path="url(#clip1_9_2354)">
<path d="M225.867 140.368L215.524 202.625L215.516 218.173L336.652 163.79V147.89L225.867 140.368Z" fill="white"/>
<path d="M215.516 221.52C214.884 221.52 214.251 221.336 213.702 220.976C212.753 220.357 212.188 219.303 212.188 218.165V202.617C212.196 202.433 212.213 202.249 212.246 202.065L222.589 139.807C222.725 138.988 223.158 138.249 223.806 137.734C224.453 137.219 225.268 136.964 226.092 137.02L336.876 144.543C337.718 144.6 338.507 144.977 339.083 145.597C339.659 146.217 339.98 147.033 339.98 147.882V163.781C339.98 165.103 339.206 166.3 338.008 166.835L216.864 221.219C216.431 221.411 215.965 221.512 215.508 221.512L215.516 221.52ZM218.853 202.901V213.01L333.323 161.614V151.012L228.655 143.899L218.853 202.893V202.901Z" fill="#007AFF"/>
<path d="M169.002 138.518L67.8534 143.74V159.639L215.516 218.173L215.524 202.625L169.002 138.518Z" fill="#FB9999"/>
<path d="M215.516 221.52C215.1 221.52 214.692 221.445 214.293 221.286L66.6302 162.752C66.0089 162.506 65.4758 162.077 65.1003 161.522C64.7248 160.966 64.5243 160.31 64.525 159.639V143.74C64.525 141.957 65.9146 140.485 67.6786 140.392L168.827 135.171C169.942 135.121 171.024 135.631 171.69 136.543L218.212 200.65C218.628 201.228 218.853 201.914 218.853 202.625V218.173C218.847 218.718 218.71 219.255 218.453 219.735C218.197 220.216 217.829 220.628 217.38 220.934C216.822 221.319 216.165 221.512 215.508 221.512L215.516 221.52ZM71.1817 157.363L212.188 213.261V203.721L167.371 141.957L71.1817 146.92V157.363Z" fill="#007AFF"/>
<path d="M196.719 100.067L67.8534 143.74L215.516 202.274L336.652 147.89L196.719 100.067Z" fill="white"/>
<path d="M215.516 205.621C215.1 205.621 214.684 205.546 214.293 205.387L66.6301 146.853C65.332 146.334 64.4916 145.062 64.5249 143.656C64.5582 142.25 65.4652 141.02 66.7882 140.568L195.654 96.8959C196.345 96.6616 197.093 96.6616 197.784 96.8959L337.725 144.719C339.023 145.162 339.913 146.359 339.98 147.731C340.046 149.104 339.264 150.384 338.008 150.945L216.864 205.328C216.431 205.521 215.974 205.621 215.508 205.621H215.516ZM77.5471 143.983L215.433 198.642L327.548 148.309L196.711 103.599L77.5471 143.983Z" fill="#007AFF"/>
<path d="M91.1602 175.781C90.8024 175.781 90.428 175.756 90.0369 175.706C85.1275 175.095 78.1962 170.25 79.2114 159.38C80.2765 147.932 90.6776 144.284 96.0279 143.957C97.8835 143.832 99.4395 145.246 99.556 147.095C99.6642 148.936 98.2829 150.518 96.4523 150.643C95.4455 150.719 86.6253 151.589 85.8431 160.007C85.527 163.413 86.3008 166.066 88.0898 167.697C89.1049 168.618 90.1783 168.969 90.8274 169.061C91.5513 168.266 92.6496 167.848 93.7813 168.015C95.5952 168.3 96.8434 170.007 96.5688 171.831C96.2609 173.823 94.4553 175.773 91.1768 175.773L91.1602 175.781ZM112.22 184.266C111.863 184.266 111.488 184.241 111.097 184.191C106.188 183.58 99.2564 178.735 100.272 167.865C101.337 156.417 111.738 152.769 117.088 152.443C118.935 152.325 120.5 153.731 120.616 155.581C120.724 157.422 119.343 159.003 117.512 159.129C116.506 159.204 107.685 160.074 106.903 168.492C106.587 171.898 107.361 174.551 109.15 176.183C110.165 177.103 111.239 177.454 111.888 177.547C112.611 176.752 113.702 176.333 114.841 176.501C116.655 176.785 117.904 178.492 117.629 180.316C117.321 182.308 115.515 184.258 112.237 184.258L112.22 184.266ZM133.281 192.743C132.923 192.743 132.548 192.718 132.157 192.667C127.248 192.057 120.317 187.203 121.332 176.342C122.397 164.894 132.798 161.246 138.148 160.919C139.987 160.785 141.56 162.208 141.676 164.057C141.785 165.898 140.403 167.48 138.573 167.605C137.566 167.681 128.746 168.551 127.964 176.969C127.647 180.375 128.421 183.028 130.21 184.659C131.225 185.58 132.299 185.931 132.948 186.023C133.672 185.228 134.77 184.81 135.902 184.977C137.716 185.262 138.964 186.969 138.689 188.793C138.381 190.785 136.576 192.734 133.297 192.734L133.281 192.743ZM154.341 201.228C153.983 201.228 153.609 201.203 153.217 201.153C148.308 200.542 141.377 195.697 142.392 184.827C143.457 173.379 153.858 169.731 159.208 169.404C161.064 169.287 162.62 170.693 162.737 172.542C162.845 174.383 161.463 175.965 159.633 176.09C158.626 176.166 149.806 177.036 149.024 185.454C148.708 188.86 149.481 191.513 151.27 193.144C152.286 194.065 153.359 194.416 154.008 194.508C154.732 193.713 155.822 193.295 156.962 193.462C158.776 193.747 160.024 195.454 159.749 197.278C159.441 199.27 157.636 201.22 154.357 201.22L154.341 201.228ZM175.393 209.705C175.035 209.705 174.66 209.68 174.269 209.629C169.36 209.018 162.429 204.173 163.444 193.303C164.509 181.856 174.91 178.208 180.26 177.881C182.133 177.747 183.672 179.17 183.788 181.019C183.897 182.86 182.515 184.442 180.685 184.567C179.678 184.643 170.858 185.513 170.076 193.931C169.759 197.337 170.533 199.989 172.322 201.621C173.337 202.542 174.411 202.893 175.06 202.985C175.784 202.19 176.874 201.772 178.014 201.939C179.828 202.224 181.076 203.931 180.801 205.755C180.493 207.747 178.688 209.696 175.409 209.696L175.393 209.705ZM196.453 218.19C196.095 218.19 195.721 218.165 195.33 218.114C190.42 217.504 183.489 212.65 184.504 201.789C185.569 190.341 195.97 186.693 201.321 186.366C203.159 186.241 204.732 187.655 204.849 189.504C204.957 191.345 203.576 192.927 201.745 193.052C200.738 193.128 191.918 193.998 191.136 202.416C190.82 205.822 191.593 208.475 193.382 210.106C194.398 211.027 195.471 211.378 196.12 211.47C196.844 210.675 197.934 210.257 199.074 210.424C200.888 210.709 202.136 212.416 201.861 214.24C201.554 216.232 199.748 218.181 196.469 218.181L196.453 218.19Z" fill="#007AFF"/>
<path d="M193.79 171.287C193.032 171.287 192.296 171.027 191.705 170.55C191.114 170.073 190.702 169.407 190.538 168.663C190.374 167.918 190.468 167.14 190.803 166.456C191.139 165.772 191.697 165.224 192.384 164.903C202.494 160.183 213.843 157.781 225.035 157.932C225.043 157.815 225.06 157.698 225.077 157.581C225.301 156.325 226.217 155.313 227.432 154.961L246.769 149.346L245.039 148.434C244.394 148.094 243.879 147.55 243.572 146.886C243.265 146.222 243.184 145.476 243.341 144.761C243.496 144.045 243.88 143.4 244.435 142.925C244.989 142.45 245.684 142.172 246.411 142.133L265.857 141.045C267.705 140.937 269.261 142.359 269.369 144.2C269.417 145.086 269.113 145.955 268.525 146.617C267.937 147.279 267.113 147.68 266.232 147.731L258.244 148.175C258.776 148.844 259.043 149.715 258.951 150.602C258.882 151.266 258.618 151.894 258.193 152.406C257.767 152.919 257.2 153.293 256.563 153.48L235.669 159.539C236.152 160.037 236.469 160.674 236.575 161.361C236.681 162.049 236.571 162.752 236.261 163.374C235.95 163.996 235.455 164.505 234.843 164.83C234.231 165.155 233.534 165.279 232.848 165.187C220.167 163.497 206.787 165.555 195.188 170.969C194.739 171.178 194.256 171.279 193.79 171.279V171.287Z" fill="#FB9999"/>
</g>
<g clip-path="url(#clip2_9_2354)">
<path d="M191.977 138.86L193.445 168.028L166.912 156.563C165.808 156.117 164.925 155.371 164.247 154.405L88.6139 46.5891C83.4679 39.2534 85.2274 29.0441 92.5302 23.8653C99.833 18.6865 109.989 20.4461 115.135 27.7819L190.768 135.598C191.445 136.563 191.834 137.733 191.881 138.928L191.977 138.86Z" fill="white"/>
<path d="M196.721 168.596C196.565 169.501 196.096 170.268 195.341 170.731C194.38 171.412 193.177 171.543 192.169 171.029L165.636 159.564C163.987 158.854 162.587 157.679 161.571 156.231L85.9234 48.4969C79.694 39.6168 81.8082 27.3492 90.6485 21.0801C99.4887 14.811 111.692 16.9254 117.921 25.8055L193.555 133.622C194.571 135.07 195.188 136.872 195.299 138.672L196.767 167.84L196.639 168.581L196.721 168.596ZM89.1798 34.9858C88.6122 38.2791 89.2731 41.7852 91.3045 44.6809L167.02 152.511C167.358 152.994 167.725 153.312 168.284 153.494L189.871 162.83L188.656 139.048C188.659 138.539 188.416 137.989 188.16 137.52L112.526 29.7038C108.396 23.8159 100.369 22.4252 94.508 26.5819C91.6253 28.6262 89.8292 31.7066 89.2617 35L89.1798 34.9858Z" fill="#007AFF"/>
<path d="M92.5302 23.8654C85.2274 29.0442 83.4679 39.2534 88.6139 46.5892L96.6039 57.9789L123.125 39.1716L115.135 27.7819C109.989 20.4462 99.833 18.6866 92.5302 23.8654Z" fill="#FB9999"/>
<path d="M126.415 39.6565C126.273 40.4798 125.804 41.2464 125.035 41.7915L98.514 60.5988C97.7453 61.1439 96.8695 61.3313 96.0505 61.1894C95.2315 61.0475 94.3873 60.5621 93.9276 59.8041L85.9376 48.4144C82.9583 44.1674 81.7622 38.8726 82.6419 33.768C83.5216 28.6634 86.3386 24.064 90.6485 21.0799C99.4887 14.8108 111.692 16.9252 117.921 25.8053L125.911 37.1951C126.453 37.9672 126.639 38.8473 126.497 39.6707L126.415 39.6565ZM97.4127 53.2855L118.552 38.2942L112.458 29.6071C108.328 23.7192 100.302 22.3285 94.4403 26.4852C88.5788 30.6419 87.1883 38.7105 91.3187 44.5984L97.4127 53.2855ZM100.561 71.722C98.4622 68.7298 99.1859 64.5308 102.165 62.4184L125.034 46.2005C128.013 44.0881 132.19 44.8118 134.289 47.804C136.388 50.7962 135.664 54.9952 132.685 57.1076L109.816 73.3255C106.837 75.4379 102.66 74.7142 100.561 71.722Z" fill="#007AFF"/>
<path d="M138.736 53.3232C138.296 55.8755 136.888 58.1752 134.663 59.8248L111.794 76.0427C109.584 77.6099 106.957 78.1722 104.336 77.7181C101.715 77.264 99.4281 75.8503 97.8708 73.6303C94.6883 69.0937 95.7667 62.8364 100.283 59.6337L123.152 43.4159C127.669 40.2132 133.893 41.2916 137.075 45.8282C138.633 48.0483 139.176 50.7709 138.736 53.3232ZM102.762 67.2706C102.62 68.0939 102.806 68.974 103.348 69.7462C103.89 70.5184 104.652 70.9896 105.471 71.1315C106.29 71.2734 107.247 71.1002 107.934 70.5408L130.804 54.323C132.341 53.2327 132.696 51.1744 131.613 49.63C130.529 48.0856 128.482 47.7309 126.944 48.8211L104.075 65.039C103.306 65.5842 102.837 66.3507 102.695 67.1741L102.762 67.2706Z" fill="#007AFF"/>
<path d="M92.9241 60.7326C90.825 57.7404 91.5487 53.5414 94.5275 51.429L117.397 35.2111C120.376 33.0987 124.553 33.8224 126.652 36.8146C128.751 39.8068 128.027 44.0058 125.048 46.1182L102.179 62.3361C99.2001 64.4485 95.0231 63.7248 92.9241 60.7326Z" fill="#007AFF"/>
<path d="M131.084 42.4159C130.63 45.0506 129.222 47.3503 127.012 48.9176L104.142 65.1354C101.932 66.7027 99.3051 67.265 96.6843 66.8109C94.0635 66.3568 91.7767 64.9431 90.2194 62.7231C87.0369 58.1865 88.1153 51.9292 92.6316 48.7265L115.501 32.5086C120.017 29.3059 126.242 30.3844 129.424 34.921C130.981 37.141 131.539 39.7813 131.084 42.4159ZM95.111 56.3633C94.9691 57.1867 95.1548 58.0668 95.6965 58.8389C96.2382 59.6111 97.0004 60.0824 97.8194 60.2243C98.6385 60.3662 99.5961 60.1929 100.283 59.6336L123.152 43.4157C124.594 42.3936 124.963 40.253 123.961 38.7228C122.878 37.1784 120.83 36.8236 119.293 37.9139L96.4234 54.1318C95.6547 54.6769 95.1852 55.4435 95.0433 56.2668L95.111 56.3633Z" fill="#007AFF"/>
<path d="M167.457 156.827C165.644 156.089 164.315 154.502 163.89 152.563C163.08 148.946 164.43 145.025 167.601 142.776C171.829 139.778 177.726 140.8 180.705 145.047C178.538 141.958 179.276 137.677 182.351 135.496C182.543 135.36 182.721 135.306 182.914 135.17C186.85 132.884 191.915 135.797 192.131 140.413L193.527 168.042L167.539 156.841L167.457 156.827Z" fill="#FB9999"/>
<path d="M196.721 168.596C196.565 169.501 196.096 170.268 195.341 170.731C194.38 171.412 193.177 171.543 192.169 171.029L166.181 159.828C163.36 158.576 161.325 156.188 160.647 153.273C159.504 148.157 161.491 142.99 165.719 139.991C168.506 138.015 171.845 137.237 175.203 137.819L176.595 138.06C177.224 135.88 178.562 133.992 180.484 132.629C180.772 132.425 180.964 132.288 181.238 132.166C184.05 130.534 187.425 130.525 190.367 132.052C193.377 133.676 195.298 136.722 195.482 140.061L196.863 167.772L196.735 168.513L196.721 168.596ZM168.748 153.744L189.871 162.83L188.742 140.504C188.667 139.473 188.071 138.522 187.145 138.023C186.764 137.787 185.66 137.341 184.535 137.995L184.247 138.199C183.478 138.744 183.009 139.511 182.839 140.499C182.668 141.487 182.854 142.367 183.396 143.139C184.479 144.683 184.124 146.742 182.587 147.832C181.05 148.922 179.002 148.567 177.919 147.023C176.971 145.672 175.596 144.84 173.958 144.556C172.32 144.272 170.732 144.676 169.401 145.547C167.383 146.978 166.452 149.445 166.955 151.907C167.155 152.705 167.779 153.491 168.651 153.812L168.748 153.744Z" fill="#007AFF"/>
<path d="M192.569 151.088L178.06 161.377L193.445 168.028L192.569 151.088Z" fill="#007AFF"/>
</g>
<defs>
<clipPath id="clip0_9_2354">
<rect width="305.27" height="157.783" fill="white" transform="translate(15.575 138.617)"/>
</clipPath>
<clipPath id="clip1_9_2354">
<rect width="275.455" height="124.8" fill="white" transform="translate(64.525 96.7202)"/>
</clipPath>
<clipPath id="clip2_9_2354">
<rect width="136.348" height="135.321" fill="white" transform="matrix(0.169837 -0.985472 0.98532 0.17072 62.8194 148.787)"/>
</clipPath>
</defs>
</svg>
