<svg width="218" height="220" viewBox="0 0 218 220" fill="none" xmlns="http://www.w3.org/2000/svg">
<g clip-path="url(#clip0_9_668)">
<path d="M108.966 158.211C108.966 158.211 136.925 153.842 149.549 125.308C159.281 103.311 149.298 77.6496 127.378 67.9517C105.458 58.2538 79.7534 68.1262 70.0215 90.1232C57.3972 118.658 72.9705 142.286 72.9705 142.286L108.966 158.211Z" fill="#FFABAB"/>
<path d="M107.605 161.287L71.6094 145.362C70.9941 145.09 70.5237 144.698 70.1215 144.152C69.4707 143.129 53.7082 118.681 66.945 88.7621C77.3915 65.1499 105.127 54.4287 128.739 64.8752C152.351 75.3216 163.072 103.057 152.626 126.669C139.423 156.511 110.696 161.367 109.501 161.574C108.826 161.644 108.22 161.559 107.605 161.287ZM75.3315 139.652L109.404 154.726C114.253 153.744 135.89 147.867 146.473 123.947C155.422 103.719 146.245 79.9774 126.017 71.0282C105.789 62.0789 82.0473 71.2563 73.098 91.4843C62.6175 115.173 72.8735 135.437 75.3315 139.652Z" fill="#FF0000"/>
<path d="M82.1124 150.101C80.6511 149.454 79.8199 147.799 80.2357 146.236L90.3866 104.375C90.8276 102.547 92.6958 101.442 94.4131 101.926C96.2413 102.367 97.346 104.235 96.8622 105.953L86.7113 147.813C86.2703 149.641 84.4021 150.746 82.6848 150.262C82.531 150.194 82.3002 150.092 82.1464 150.024L82.1124 150.101ZM97.1104 156.736C96.9566 156.668 96.7258 156.566 96.572 156.498C95.016 155.442 94.6538 153.35 95.676 151.871L124.714 108.894C121.025 108.918 116.396 108.157 110.781 105.673C96.3983 99.3097 94.4778 89.7231 94.3832 89.3134C94.0727 87.5206 95.2311 85.7339 97.1348 85.3806C98.9275 85.0701 100.714 86.2285 101.025 88.0212C101.119 88.431 102.735 94.756 113.503 99.5198C124.271 104.284 130.149 101.182 130.405 101.02C131.796 100.163 133.504 100.459 134.574 101.576C135.643 102.693 135.765 104.495 134.922 105.777L101.31 155.559C100.433 156.919 98.6486 157.417 97.1873 156.77L97.1104 156.736Z" fill="white"/>
<path d="M78.0127 144.609L103.855 156.042C107.547 157.675 109.143 161.968 107.543 165.583C105.91 169.274 101.617 170.87 98.0026 169.271L72.1599 157.838C68.4681 156.204 66.8725 151.912 68.4718 148.297C70.1051 144.605 74.3978 143.009 78.0127 144.609Z" fill="white"/>
<path d="M96.7184 172.381L70.8757 160.948C65.4918 158.566 63.1243 152.277 65.4722 146.97C67.8201 141.663 74.1437 139.218 79.4507 141.566L105.293 152.999C110.677 155.381 113.045 161.671 110.697 166.978C108.349 172.285 102.025 174.729 96.7184 172.381ZM76.6516 147.685C74.7288 146.834 72.399 147.735 71.5483 149.658C70.6976 151.581 71.5982 153.91 73.521 154.761L99.3637 166.194C101.287 167.045 103.616 166.144 104.467 164.222C105.318 162.299 104.417 159.969 102.494 159.118L76.6516 147.685Z" fill="#FF0000"/>
<path d="M72.1599 157.838L98.0795 169.305C101.694 170.904 103.367 175.231 101.768 178.846C100.168 182.461 95.8417 184.133 92.2268 182.534L66.3072 171.066C62.6923 169.467 61.0198 165.141 62.6191 161.526C64.2184 157.911 68.545 156.238 72.1599 157.838Z" fill="white"/>
<path d="M90.8656 185.61L65.023 174.177C59.6391 171.795 57.2715 165.505 59.6194 160.198C61.9673 154.891 68.291 152.447 73.5979 154.795L99.4406 166.228C104.824 168.61 107.192 174.9 104.844 180.207C102.496 185.514 96.1726 187.958 90.8656 185.61ZM70.7988 160.914C68.876 160.063 66.5462 160.964 65.6955 162.887C64.8449 164.809 65.7454 167.139 67.6683 167.99L93.5109 179.423C95.4337 180.274 97.7635 179.373 98.6142 177.45C99.4649 175.528 98.5643 173.198 96.6415 172.347L70.7988 160.914Z" fill="#FF0000"/>
<path d="M72.614 173.857L85.9968 179.778C87.9196 180.628 88.7004 182.813 87.8837 184.659C87.0331 186.582 84.8483 187.363 83.0024 186.546L69.6196 180.625C67.6967 179.774 66.9159 177.59 67.7326 175.744C68.5833 173.821 70.7681 173.04 72.614 173.857Z" fill="#FF0000"/>
<path d="M81.5303 189.665L68.1475 183.744C64.5326 182.145 62.9799 177.963 64.5452 174.425C66.1104 170.887 70.3262 169.258 73.8642 170.823L87.247 176.744C90.8619 178.343 92.4146 182.525 90.8493 186.063C89.284 189.601 85.0683 191.23 81.5303 189.665ZM71.2529 176.933C71.0991 176.865 70.8772 176.951 70.8091 177.105C70.7411 177.259 70.8268 177.48 70.9807 177.548L84.3635 183.469C84.5173 183.537 84.7392 183.452 84.8072 183.298C84.8753 183.144 84.7895 182.922 84.6357 182.854L71.2529 176.933Z" fill="#FF0000"/>
<path d="M62.3166 73.655C62.0859 73.553 61.7782 73.4168 61.5815 73.2378L44.6332 59.5778C43.2222 58.4017 42.9709 56.2673 44.147 54.8563C45.3231 53.4453 47.4575 53.194 48.8685 54.3701L65.8168 68.0302C67.2278 69.2062 67.4791 71.3407 66.303 72.7517C65.306 73.9659 63.667 74.3445 62.3166 73.655Z" fill="#FF0000"/>
<path d="M87.0675 55.5436C86.2983 55.2034 85.6653 54.5554 85.3222 53.6679L77.4743 33.3658C76.7881 31.5908 77.6388 29.668 79.4139 28.9818C81.1889 28.2956 83.1117 29.1463 83.7979 30.9214L91.6458 51.2235C92.332 52.9985 91.4813 54.9213 89.7063 55.6075C88.8187 55.9506 87.9135 55.9179 87.1444 55.5777L87.0675 55.5436Z" fill="#FF0000"/>
<path d="M117.565 52.2983C116.18 51.6858 115.358 50.2184 115.586 48.6638L118.94 27.1558C119.193 25.3365 120.941 24.0867 122.761 24.3398C124.58 24.5929 125.83 26.3414 125.577 28.1607L122.223 49.6688C121.97 51.4881 120.221 52.7378 118.402 52.4847C118.171 52.3826 117.83 52.3235 117.599 52.2214L117.565 52.2983Z" fill="#FF0000"/>
<path d="M145.638 64.7184C145.407 64.6163 145.1 64.4802 144.903 64.3012C143.492 63.1252 143.241 60.9907 144.417 59.5797L158.077 42.6314C159.253 41.2204 161.387 40.9691 162.798 42.1452C164.209 43.3212 164.461 45.4557 163.285 46.8667L149.624 63.815C148.627 65.0293 146.988 65.4078 145.604 64.7953L145.638 64.7184Z" fill="#FF0000"/>
<path d="M163.749 89.4693C162.98 89.129 162.347 88.4811 162.004 87.5936C161.318 85.8185 162.169 83.8957 163.944 83.2095L184.246 75.3616C186.021 74.6754 187.944 75.5261 188.63 77.3011C189.316 79.0762 188.465 80.999 186.69 81.6852L166.388 89.5331C165.501 89.8762 164.595 89.8436 163.749 89.4693Z" fill="#FF0000"/>
<path d="M166.995 119.967C165.61 119.354 164.788 117.887 165.016 116.332C165.269 114.513 167.018 113.263 168.837 113.516L190.345 116.87C192.164 117.123 193.414 118.872 193.161 120.691C192.908 122.51 191.159 123.76 189.34 123.507L167.832 120.153C167.601 120.051 167.26 119.992 166.995 119.967Z" fill="#FF0000"/>
</g>
<defs>
<clipPath id="clip0_9_668">
<rect width="163.756" height="167.955" fill="white" transform="translate(67.9532) rotate(23.8655)"/>
</clipPath>
</defs>
</svg>
