<svg width="945" height="514" viewBox="0 0 945 514" fill="none" xmlns="http://www.w3.org/2000/svg">
<path d="M472.5 0.5C733.178 0.5 944.5 211.822 944.5 472.5C944.5 483.637 944.538 492.753 943.712 500.211C942.886 507.665 941.202 513.394 937.808 517.788C934.419 522.174 929.276 525.293 921.402 527.424C913.52 529.557 902.942 530.688 888.734 531.125C860.318 531.999 817.532 530.094 753.063 527.969C688.607 525.844 602.507 523.5 487.5 523.5C366.24 523.5 275.138 526.907 206.693 530.36C138.234 533.815 92.4827 537.313 61.872 537.5C46.5683 537.594 35.092 536.859 26.4785 534.89C17.8741 532.923 12.1717 529.735 8.35934 524.954C4.53875 520.163 2.56311 513.706 1.55173 505.088C0.540252 496.469 0.499969 485.759 0.499969 472.5C0.499969 211.822 211.822 0.500017 472.5 0.5Z" fill="#007AFF" fill-opacity="0.1" stroke="black"/>
</svg>
