<svg width="266" height="266" viewBox="0 0 266 266" fill="none" xmlns="http://www.w3.org/2000/svg">
<g clip-path="url(#clip0_69_5199)">
<path d="M119.941 217.402C172.926 217.402 215.879 174.591 215.879 121.781C215.879 68.972 172.926 26.1614 119.941 26.1614C66.9562 26.1614 24.0034 68.972 24.0034 121.781C24.0034 174.591 66.9562 217.402 119.941 217.402Z" fill="white"/>
<path d="M119.941 219.18C93.8389 219.18 69.2989 209.049 50.8415 190.653C32.3841 172.257 22.2192 147.798 22.2192 121.782C22.2192 95.7655 32.3841 71.3067 50.8415 52.9104C69.298 34.5159 93.8407 24.3833 119.941 24.3833C146.044 24.3833 170.584 34.5145 189.041 52.9109C207.498 71.3072 217.663 95.766 217.663 121.782C217.663 147.798 207.498 172.257 189.041 190.653C170.584 209.049 146.044 219.181 119.941 219.181V219.18ZM119.941 27.9395C68.0247 27.9395 25.7877 70.0372 25.7877 121.782C25.7877 173.526 68.0247 215.624 119.941 215.624C171.858 215.624 214.095 173.526 214.095 121.782C214.095 70.0372 171.858 27.9395 119.941 27.9395Z" fill="#FF0000"/>
<mask id="mask0_69_5199" style="mask-type:luminance" maskUnits="userSpaceOnUse" x="24" y="26" width="192" height="192">
<path d="M119.941 217.402C172.926 217.402 215.879 174.591 215.879 121.781C215.879 68.972 172.926 26.1614 119.941 26.1614C66.9562 26.1614 24.0034 68.972 24.0034 121.781C24.0034 174.591 66.9562 217.402 119.941 217.402Z" fill="white"/>
</mask>
<g mask="url(#mask0_69_5199)">
<path d="M14.1342 35.5578C13.9578 35.5577 13.7853 35.5056 13.6387 35.4079C13.492 35.3102 13.3777 35.1714 13.3102 35.0089C13.2427 34.8465 13.2251 34.6678 13.2595 34.4953C13.2939 34.3229 13.3788 34.1645 13.5035 34.0402L21.6855 25.8853C21.8527 25.7185 22.0796 25.6248 22.3162 25.6248C22.5527 25.6248 22.7797 25.7184 22.947 25.8851C23.1143 26.0518 23.2083 26.2779 23.2084 26.5137C23.2084 26.7495 23.1145 26.9757 22.9472 27.1424L14.7648 35.2973C14.6821 35.38 14.5838 35.4455 14.4756 35.4903C14.3673 35.535 14.2513 35.5579 14.1342 35.5578ZM14.1342 48.1566C14.0459 48.1568 13.9595 48.1308 13.886 48.082C13.8126 48.0332 13.7553 47.9637 13.7215 47.8824C13.6877 47.8011 13.679 47.7117 13.6963 47.6254C13.7136 47.5391 13.7563 47.4599 13.8188 47.3978L35.087 26.1996C35.1706 26.1162 35.284 26.0694 35.4023 26.0694C35.5206 26.0694 35.634 26.1162 35.7176 26.1996C35.8012 26.2829 35.8482 26.396 35.8482 26.5139C35.8482 26.6318 35.8012 26.7448 35.7176 26.8282L14.4495 48.0263C14.4081 48.0677 14.359 48.1005 14.3049 48.1228C14.2508 48.1452 14.1927 48.1566 14.1342 48.1566ZM14.1342 56.852C14.0459 56.8522 13.9595 56.8262 13.886 56.7774C13.8126 56.7286 13.7553 56.6591 13.7215 56.5778C13.6877 56.4965 13.679 56.4071 13.6963 56.3208C13.7136 56.2345 13.7563 56.1553 13.8188 56.0932L43.8112 26.1996C43.8527 26.1583 43.9018 26.1256 43.9559 26.1032C44.01 26.0809 44.068 26.0694 44.1266 26.0694C44.1851 26.0694 44.2431 26.0809 44.2972 26.1032C44.3513 26.1256 44.4005 26.1583 44.4419 26.1996C44.4833 26.2409 44.5162 26.2899 44.5386 26.3438C44.561 26.3977 44.5725 26.4555 44.5725 26.5139C44.5725 26.5722 44.561 26.63 44.5386 26.684C44.5162 26.7379 44.4833 26.7869 44.4419 26.8282L14.4495 56.7217C14.4081 56.7631 14.359 56.7959 14.3049 56.8182C14.2508 56.8406 14.1927 56.8521 14.1342 56.852ZM14.1342 70.3456C13.9578 70.3456 13.7853 70.2934 13.6387 70.1957C13.492 70.098 13.3777 69.9592 13.3102 69.7968C13.2427 69.6343 13.2251 69.4556 13.2595 69.2832C13.2939 69.1107 13.3788 68.9524 13.5035 68.828L56.5884 25.8853C56.6712 25.8027 56.7695 25.7372 56.8777 25.6925C56.9859 25.6478 57.1019 25.6248 57.2191 25.6248C57.3362 25.6248 57.4522 25.6477 57.5605 25.6924C57.6687 25.7371 57.767 25.8025 57.8499 25.8851C57.9327 25.9676 57.9985 26.0656 58.0433 26.1735C58.0882 26.2814 58.1112 26.397 58.1113 26.5137C58.1113 26.6305 58.0882 26.7461 58.0434 26.854C57.9986 26.9618 57.9329 27.0599 57.8501 27.1424L14.7648 70.0851C14.6821 70.1679 14.5838 70.2335 14.4756 70.2782C14.3674 70.3229 14.2513 70.3458 14.1342 70.3456ZM14.1342 79.041C13.9578 79.041 13.7853 78.9888 13.6387 78.8911C13.492 78.7934 13.3777 78.6546 13.3102 78.4922C13.2427 78.3298 13.2251 78.151 13.2595 77.9786C13.2939 77.8062 13.3788 77.6478 13.5035 77.5234L65.3126 25.8853C65.4799 25.7185 65.7068 25.6248 65.9434 25.6248C66.1799 25.6248 66.4068 25.7184 66.5742 25.8851C66.7415 26.0518 66.8355 26.2779 66.8355 26.5137C66.8356 26.7495 66.7416 26.9757 66.5744 27.1424L14.7648 78.7805C14.6821 78.8633 14.5838 78.9289 14.4756 78.9736C14.3674 79.0183 14.2513 79.0412 14.1342 79.041ZM14.1342 91.6461C14.0459 91.6463 13.9595 91.6203 13.886 91.5715C13.8126 91.5227 13.7553 91.4532 13.7215 91.3719C13.6877 91.2906 13.679 91.2011 13.6963 91.1148C13.7136 91.0286 13.7563 90.9493 13.8188 90.8873L78.7146 26.1996C78.7982 26.1162 78.9117 26.0694 79.0299 26.0694C79.1482 26.0694 79.2616 26.1162 79.3453 26.1996C79.4289 26.2829 79.4759 26.396 79.4759 26.5139C79.4759 26.6318 79.4289 26.7448 79.3453 26.8282L14.4495 91.5158C14.4081 91.5572 14.359 91.59 14.3049 91.6123C14.2508 91.6347 14.1927 91.6461 14.1342 91.6461ZM14.1342 100.341C14.0459 100.341 13.9595 100.315 13.886 100.266C13.8126 100.218 13.7553 100.148 13.7215 100.067C13.6877 99.9856 13.679 99.8961 13.6963 99.8098C13.7136 99.7235 13.7563 99.6443 13.8188 99.5822L87.4389 26.1996C87.5225 26.1162 87.6359 26.0694 87.7542 26.0694C87.8725 26.0694 87.9859 26.1162 88.0695 26.1996C88.1532 26.2829 88.2001 26.396 88.2001 26.5139C88.2001 26.6318 88.1532 26.7448 88.0695 26.8282L14.4495 100.211C14.4081 100.252 14.359 100.285 14.3049 100.307C14.2508 100.33 14.1927 100.341 14.1342 100.341ZM14.1342 113.829C13.9578 113.829 13.7853 113.777 13.6387 113.679C13.492 113.581 13.3777 113.442 13.3102 113.28C13.2427 113.118 13.2251 112.939 13.2595 112.766C13.2939 112.594 13.3788 112.436 13.5035 112.311L100.216 25.8853C100.299 25.8027 100.397 25.7372 100.505 25.6925C100.614 25.6478 100.73 25.6248 100.847 25.6248C100.964 25.6248 101.08 25.6477 101.188 25.6924C101.296 25.7371 101.395 25.8025 101.478 25.8851C101.56 25.9676 101.626 26.0656 101.671 26.1735C101.716 26.2814 101.739 26.397 101.739 26.5137C101.739 26.6305 101.716 26.7461 101.671 26.854C101.626 26.9618 101.561 27.0599 101.478 27.1424L14.7648 113.568C14.6821 113.651 14.5838 113.717 14.4756 113.761C14.3674 113.806 14.2513 113.829 14.1342 113.829ZM14.1342 122.524C13.9578 122.524 13.7853 122.472 13.6387 122.374C13.492 122.277 13.3777 122.138 13.3102 121.975C13.2427 121.813 13.2251 121.634 13.2595 121.462C13.2939 121.289 13.3788 121.131 13.5035 121.007L108.94 25.8853C109.108 25.7185 109.334 25.6248 109.571 25.6248C109.808 25.6248 110.034 25.7184 110.202 25.8851C110.369 26.0518 110.463 26.2779 110.463 26.5137C110.463 26.7495 110.369 26.9757 110.202 27.1424L14.7648 122.264C14.6821 122.347 14.5838 122.412 14.4756 122.457C14.3674 122.502 14.2513 122.524 14.1342 122.524ZM14.1342 135.129C14.0459 135.129 13.9595 135.103 13.886 135.054C13.8126 135.005 13.7553 134.936 13.7215 134.855C13.6877 134.773 13.679 134.684 13.6963 134.598C13.7136 134.511 13.7563 134.432 13.8188 134.37L122.342 26.1996C122.384 26.1583 122.433 26.1256 122.487 26.1032C122.541 26.0809 122.599 26.0694 122.658 26.0694C122.716 26.0694 122.774 26.0809 122.828 26.1032C122.882 26.1256 122.931 26.1583 122.973 26.1996C123.014 26.2409 123.047 26.2899 123.07 26.3438C123.092 26.3977 123.103 26.4555 123.103 26.5139C123.103 26.5722 123.092 26.63 123.07 26.684C123.047 26.7379 123.014 26.7869 122.973 26.8282L14.4495 134.999C14.4081 135.04 14.359 135.073 14.3049 135.095C14.2508 135.117 14.1927 135.129 14.1342 135.129ZM14.1342 143.824C14.0459 143.824 13.9595 143.799 13.886 143.75C13.8126 143.701 13.7553 143.631 13.7215 143.55C13.6877 143.469 13.679 143.379 13.6963 143.293C13.7136 143.207 13.7563 143.128 13.8188 143.065L131.066 26.1996C131.15 26.1162 131.263 26.0694 131.381 26.0694C131.5 26.0694 131.613 26.1162 131.697 26.1996C131.78 26.2829 131.827 26.396 131.827 26.5139C131.827 26.6318 131.78 26.7448 131.697 26.8282L14.4495 143.694C14.4081 143.735 14.359 143.768 14.3049 143.79C14.2508 143.813 14.1927 143.824 14.1342 143.824ZM14.1342 157.312C13.9578 157.312 13.7853 157.259 13.6387 157.162C13.492 157.064 13.3777 156.925 13.3102 156.763C13.2427 156.6 13.2251 156.422 13.2595 156.249C13.2939 156.077 13.3788 155.918 13.5035 155.794L143.844 25.8853C144.011 25.7185 144.238 25.6248 144.474 25.6248C144.711 25.6248 144.938 25.7184 145.105 25.8851C145.272 26.0518 145.366 26.2779 145.367 26.5137C145.367 26.7495 145.273 26.9757 145.105 27.1424L14.7648 157.051C14.6821 157.134 14.5838 157.199 14.4756 157.244C14.3673 157.289 14.2513 157.312 14.1342 157.312ZM14.1342 166.007C13.9578 166.007 13.7853 165.955 13.6387 165.857C13.492 165.76 13.3777 165.621 13.3102 165.458C13.2427 165.296 13.2251 165.117 13.2595 164.945C13.2939 164.772 13.3788 164.614 13.5035 164.489L152.568 25.8853C152.735 25.7185 152.962 25.6248 153.199 25.6248C153.435 25.6248 153.662 25.7184 153.829 25.8851C153.997 26.0518 154.091 26.2779 154.091 26.5137C154.091 26.7495 153.997 26.9757 153.83 27.1424L14.7648 165.747C14.6821 165.83 14.5838 165.895 14.4756 165.94C14.3674 165.985 14.2513 166.008 14.1342 166.008V166.007ZM14.1342 178.606C14.0459 178.606 13.9595 178.58 13.886 178.531C13.8126 178.483 13.7553 178.413 13.7215 178.332C13.6877 178.25 13.679 178.161 13.6963 178.075C13.7136 177.988 13.7563 177.909 13.8188 177.847L165.969 26.1996C166.011 26.1583 166.06 26.1256 166.114 26.1032C166.168 26.0809 166.226 26.0694 166.285 26.0694C166.343 26.0694 166.401 26.0809 166.455 26.1032C166.509 26.1256 166.559 26.1583 166.6 26.1996C166.641 26.2409 166.674 26.2899 166.697 26.3438C166.719 26.3977 166.731 26.4555 166.731 26.5139C166.731 26.5722 166.719 26.63 166.697 26.684C166.674 26.7379 166.641 26.7869 166.6 26.8282L14.4495 178.476C14.4081 178.517 14.359 178.55 14.3049 178.572C14.2508 178.594 14.1927 178.606 14.1342 178.606ZM14.1342 187.307C14.0459 187.307 13.9595 187.281 13.886 187.233C13.8126 187.184 13.7553 187.114 13.7215 187.033C13.6877 186.952 13.679 186.862 13.6963 186.776C13.7136 186.69 13.7563 186.61 13.8188 186.548L174.694 26.1996C174.777 26.1162 174.891 26.0694 175.009 26.0694C175.127 26.0694 175.241 26.1162 175.324 26.1996C175.408 26.2829 175.455 26.396 175.455 26.5139C175.455 26.6318 175.408 26.7448 175.324 26.8282L14.4495 187.177C14.4081 187.219 14.359 187.251 14.3049 187.274C14.2508 187.296 14.1927 187.307 14.1342 187.307ZM14.1342 200.795C13.9578 200.795 13.7853 200.743 13.6387 200.645C13.492 200.547 13.3777 200.409 13.3102 200.246C13.2427 200.084 13.2251 199.905 13.2595 199.732C13.2939 199.56 13.3788 199.402 13.5035 199.277L187.465 25.8853C187.547 25.8004 187.645 25.7327 187.754 25.6861C187.863 25.6395 187.98 25.615 188.098 25.6139C188.217 25.6129 188.334 25.6354 188.444 25.6801C188.554 25.7248 188.653 25.7908 188.737 25.8743C188.821 25.9578 188.887 26.057 188.932 26.1663C188.977 26.2756 188.999 26.3926 188.998 26.5107C188.997 26.6287 188.973 26.7454 188.926 26.8539C188.879 26.9623 188.811 27.0604 188.726 27.1424L14.7648 200.534C14.6821 200.617 14.5838 200.683 14.4756 200.727C14.3673 200.772 14.2513 200.795 14.1342 200.795ZM14.1342 209.49C13.9578 209.49 13.7853 209.438 13.6387 209.34C13.492 209.243 13.3777 209.104 13.3102 208.941C13.2427 208.779 13.2251 208.6 13.2595 208.428C13.2939 208.255 13.3788 208.097 13.5035 207.973L196.195 25.8853C196.278 25.8027 196.376 25.7372 196.484 25.6925C196.593 25.6478 196.709 25.6248 196.826 25.6248C196.943 25.6248 197.059 25.6477 197.167 25.6924C197.275 25.7371 197.374 25.8025 197.457 25.8851C197.539 25.9676 197.605 26.0656 197.65 26.1735C197.695 26.2814 197.718 26.397 197.718 26.5137C197.718 26.6305 197.695 26.7461 197.65 26.854C197.605 26.9618 197.54 27.0599 197.457 27.1424L14.7648 209.23C14.6821 209.313 14.5838 209.378 14.4756 209.423C14.3673 209.468 14.2513 209.49 14.1342 209.49ZM10.3391 225.871C10.2508 225.871 10.1645 225.845 10.091 225.796C10.0175 225.747 9.96027 225.678 9.92649 225.597C9.8927 225.515 9.88392 225.426 9.90124 225.34C9.91856 225.253 9.96122 225.174 10.0238 225.112L209.597 26.1996C209.681 26.1162 209.794 26.0694 209.912 26.0694C210.031 26.0694 210.144 26.1162 210.228 26.1996C210.311 26.2829 210.358 26.396 210.358 26.5139C210.358 26.6318 210.311 26.7448 210.228 26.8282L10.6544 225.74C10.6131 225.782 10.5639 225.815 10.5098 225.837C10.4557 225.859 10.3977 225.871 10.3391 225.871ZM19.0634 225.871C18.9751 225.871 18.8887 225.845 18.8153 225.796C18.7418 225.747 18.6846 225.678 18.6508 225.597C18.617 225.515 18.6082 225.426 18.6255 225.34C18.6428 225.253 18.6855 225.174 18.7481 225.112L218.321 26.1996C218.405 26.1162 218.518 26.0694 218.637 26.0694C218.755 26.0694 218.868 26.1162 218.952 26.1996C219.036 26.2829 219.083 26.396 219.083 26.5139C219.083 26.6318 219.036 26.7448 218.952 26.8282L19.3787 225.74C19.3374 225.782 19.2882 225.815 19.2341 225.837C19.18 225.859 19.122 225.871 19.0634 225.871ZM32.1563 226.315C31.9799 226.315 31.8075 226.263 31.6608 226.165C31.5142 226.068 31.3999 225.929 31.3324 225.766C31.2649 225.604 31.2472 225.425 31.2816 225.253C31.316 225.08 31.4009 224.922 31.5256 224.798L226.055 30.9054C226.138 30.8204 226.236 30.7527 226.345 30.7061C226.454 30.6595 226.571 30.635 226.689 30.634C226.808 30.6329 226.925 30.6554 227.035 30.7001C227.144 30.7448 227.244 30.8109 227.328 30.8943C227.412 30.9778 227.478 31.0771 227.523 31.1863C227.568 31.2956 227.59 31.4127 227.589 31.5307C227.588 31.6488 227.563 31.7654 227.517 31.8739C227.47 31.9824 227.402 32.0805 227.317 32.1625L32.7869 226.055C32.7042 226.137 32.6059 226.203 32.4977 226.248C32.3895 226.293 32.2734 226.315 32.1563 226.315ZM40.8806 226.315C40.7042 226.315 40.5317 226.263 40.3851 226.165C40.2384 226.068 40.1241 225.929 40.0566 225.766C39.9891 225.604 39.9715 225.425 40.0059 225.253C40.0403 225.08 40.1252 224.922 40.2499 224.798L226.055 39.6008C226.138 39.5159 226.236 39.4481 226.345 39.4015C226.454 39.3549 226.571 39.3304 226.689 39.3294C226.808 39.3284 226.925 39.3509 227.035 39.3956C227.144 39.4403 227.244 39.5063 227.328 39.5897C227.412 39.6732 227.478 39.7725 227.523 39.8817C227.568 39.991 227.59 40.1081 227.589 40.2261C227.588 40.3442 227.563 40.4608 227.517 40.5693C227.47 40.6778 227.402 40.7759 227.317 40.8579L41.5112 226.055C41.4285 226.137 41.3302 226.203 41.222 226.248C41.1138 226.293 40.9977 226.315 40.8806 226.315ZM53.9668 225.871C53.8785 225.871 53.7921 225.845 53.7186 225.796C53.6452 225.747 53.5879 225.678 53.5541 225.597C53.5203 225.515 53.5115 225.426 53.5289 225.34C53.5462 225.253 53.5889 225.174 53.6514 225.112L226.371 52.9642C226.412 52.9229 226.461 52.8901 226.515 52.8678C226.57 52.8455 226.628 52.834 226.686 52.834C226.745 52.834 226.803 52.8455 226.857 52.8678C226.911 52.8901 226.96 52.9229 227.001 52.9642C227.043 53.0054 227.076 53.0544 227.098 53.1084C227.121 53.1623 227.132 53.2201 227.132 53.2784C227.132 53.3368 227.121 53.3946 227.098 53.4485C227.076 53.5025 227.043 53.5514 227.001 53.5927L54.2821 225.74C54.2407 225.782 54.1916 225.815 54.1375 225.837C54.0833 225.859 54.0253 225.871 53.9668 225.871ZM62.691 225.871C62.6027 225.871 62.5164 225.845 62.4429 225.796C62.3694 225.747 62.3122 225.678 62.2784 225.597C62.2446 225.515 62.2358 225.426 62.2531 225.34C62.2705 225.253 62.3131 225.174 62.3757 225.112L226.371 61.6596C226.412 61.6183 226.461 61.5855 226.515 61.5632C226.57 61.5409 226.628 61.5294 226.686 61.5294C226.745 61.5294 226.803 61.5409 226.857 61.5632C226.911 61.5855 226.96 61.6183 227.001 61.6596C227.043 61.7008 227.076 61.7498 227.098 61.8038C227.121 61.8577 227.132 61.9155 227.132 61.9738C227.132 62.0322 227.121 62.09 227.098 62.1439C227.076 62.1979 227.043 62.2468 227.001 62.2881L63.0064 225.74C62.965 225.782 62.9158 225.815 62.8617 225.837C62.8076 225.859 62.7496 225.871 62.691 225.871ZM75.7835 226.315C75.6071 226.315 75.4346 226.263 75.288 226.165C75.1413 226.068 75.027 225.929 74.9595 225.766C74.892 225.604 74.8744 225.425 74.9088 225.253C74.9432 225.08 75.0281 224.922 75.1528 224.798L226.055 74.3948C226.223 74.2281 226.45 74.1344 226.686 74.1343C226.923 74.1343 227.15 74.2279 227.317 74.3946C227.484 74.5613 227.578 74.7874 227.578 75.0232C227.578 75.259 227.484 75.4852 227.317 75.652L76.4146 226.055C76.3319 226.137 76.2336 226.203 76.1253 226.248C76.0171 226.293 75.9011 226.315 75.7839 226.315H75.7835ZM84.5077 226.315C84.3314 226.315 84.1589 226.263 84.0123 226.165C83.8656 226.068 83.7513 225.929 83.6838 225.766C83.6163 225.604 83.5987 225.425 83.6331 225.253C83.6675 225.08 83.7524 224.922 83.8771 224.798L226.055 83.0898C226.223 82.923 226.45 82.8293 226.686 82.8293C226.923 82.8292 227.15 82.9229 227.317 83.0896C227.484 83.2563 227.578 83.4824 227.578 83.7182C227.578 83.954 227.484 84.1802 227.317 84.3469L85.1384 226.055C85.0557 226.137 84.9574 226.203 84.8491 226.248C84.7409 226.292 84.6249 226.315 84.5077 226.315ZM97.5944 225.871C97.5061 225.871 97.4197 225.845 97.3463 225.796C97.2728 225.747 97.2155 225.678 97.1818 225.597C97.148 225.515 97.1392 225.426 97.1565 225.34C97.1738 225.253 97.2165 225.174 97.2791 225.112L226.371 96.4474C226.412 96.4061 226.461 96.3734 226.515 96.3511C226.57 96.3287 226.628 96.3172 226.686 96.3172C226.745 96.3172 226.803 96.3287 226.857 96.3511C226.911 96.3734 226.96 96.4061 227.001 96.4474C227.043 96.4887 227.076 96.5377 227.098 96.5916C227.121 96.6455 227.132 96.7033 227.132 96.7617C227.132 96.8201 227.121 96.8779 227.098 96.9318C227.076 96.9857 227.043 97.0347 227.001 97.076L97.9097 225.74C97.8683 225.782 97.8192 225.815 97.7651 225.837C97.711 225.859 97.653 225.871 97.5944 225.871ZM106.318 225.871C106.23 225.871 106.144 225.845 106.07 225.796C105.997 225.747 105.939 225.678 105.906 225.597C105.872 225.515 105.863 225.426 105.88 225.34C105.898 225.253 105.94 225.174 106.003 225.112L226.371 105.143C226.412 105.102 226.461 105.069 226.515 105.046C226.57 105.024 226.628 105.013 226.686 105.013C226.745 105.013 226.803 105.024 226.857 105.046C226.911 105.069 226.96 105.102 227.001 105.143C227.043 105.184 227.076 105.233 227.098 105.287C227.121 105.341 227.132 105.399 227.132 105.457C227.132 105.515 227.121 105.573 227.098 105.627C227.076 105.681 227.043 105.73 227.001 105.771L106.634 225.74C106.592 225.782 106.543 225.815 106.489 225.837C106.435 225.859 106.377 225.871 106.318 225.871ZM119.411 226.315C119.235 226.315 119.062 226.263 118.916 226.165C118.769 226.068 118.655 225.929 118.587 225.766C118.52 225.604 118.502 225.425 118.536 225.253C118.571 225.08 118.656 224.922 118.78 224.798L226.055 117.878C226.138 117.795 226.237 117.73 226.345 117.685C226.453 117.64 226.569 117.617 226.686 117.617C226.803 117.617 226.919 117.64 227.028 117.685C227.136 117.729 227.234 117.795 227.317 117.877C227.4 117.96 227.466 118.058 227.51 118.166C227.555 118.274 227.578 118.389 227.578 118.506C227.578 118.623 227.555 118.738 227.511 118.846C227.466 118.954 227.4 119.052 227.317 119.135L120.042 226.055C119.959 226.137 119.861 226.203 119.753 226.248C119.645 226.293 119.529 226.315 119.412 226.315H119.411ZM128.135 226.315C127.959 226.315 127.787 226.263 127.64 226.165C127.493 226.068 127.379 225.929 127.311 225.766C127.244 225.604 127.226 225.425 127.261 225.253C127.295 225.08 127.38 224.922 127.505 224.798L226.056 126.573C226.223 126.406 226.45 126.313 226.687 126.313C226.923 126.312 227.15 126.406 227.317 126.573C227.485 126.74 227.579 126.966 227.579 127.201C227.579 127.437 227.485 127.663 227.318 127.83L128.766 226.055C128.684 226.137 128.585 226.203 128.477 226.248C128.369 226.293 128.253 226.315 128.136 226.315H128.135ZM141.222 225.871C141.133 225.871 141.047 225.845 140.973 225.796C140.9 225.747 140.843 225.678 140.809 225.597C140.775 225.515 140.766 225.426 140.784 225.34C140.801 225.253 140.844 225.174 140.906 225.112L226.371 139.93C226.412 139.889 226.461 139.856 226.515 139.834C226.57 139.812 226.628 139.8 226.686 139.8C226.745 139.8 226.803 139.812 226.857 139.834C226.911 139.856 226.96 139.889 227.001 139.93C227.043 139.971 227.076 140.02 227.098 140.074C227.121 140.128 227.132 140.186 227.132 140.244C227.132 140.303 227.121 140.361 227.098 140.415C227.076 140.469 227.043 140.518 227.001 140.559L141.537 225.74C141.496 225.782 141.446 225.815 141.392 225.837C141.338 225.859 141.28 225.871 141.222 225.871ZM149.946 225.871C149.858 225.871 149.771 225.845 149.698 225.796C149.624 225.747 149.567 225.678 149.533 225.597C149.499 225.515 149.491 225.426 149.508 225.34C149.525 225.253 149.568 225.174 149.631 225.112L226.371 148.626C226.412 148.584 226.461 148.552 226.515 148.529C226.57 148.507 226.628 148.495 226.686 148.495C226.745 148.495 226.803 148.507 226.857 148.529C226.911 148.552 226.96 148.584 227.001 148.626C227.043 148.667 227.076 148.716 227.098 148.77C227.121 148.824 227.132 148.882 227.132 148.94C227.132 148.998 227.121 149.056 227.098 149.11C227.076 149.164 227.043 149.213 227.001 149.254L150.261 225.74C150.22 225.782 150.171 225.815 150.117 225.837C150.062 225.859 150.004 225.871 149.946 225.871ZM163.032 226.315C162.856 226.315 162.683 226.263 162.537 226.165C162.39 226.068 162.276 225.929 162.208 225.766C162.141 225.604 162.123 225.425 162.157 225.253C162.192 225.08 162.277 224.922 162.401 224.798L226.055 161.354C226.223 161.187 226.45 161.094 226.686 161.094C226.923 161.094 227.15 161.187 227.317 161.354C227.484 161.521 227.578 161.747 227.578 161.983C227.578 162.218 227.484 162.445 227.317 162.611L163.663 226.055C163.58 226.137 163.482 226.203 163.374 226.248C163.266 226.292 163.15 226.315 163.032 226.315H163.032ZM171.763 226.315C171.586 226.315 171.414 226.263 171.267 226.165C171.12 226.068 171.006 225.929 170.939 225.766C170.871 225.604 170.853 225.425 170.888 225.253C170.922 225.08 171.007 224.922 171.132 224.798L226.055 170.056C226.138 169.973 226.237 169.908 226.345 169.863C226.453 169.818 226.569 169.795 226.686 169.795C226.803 169.795 226.919 169.818 227.028 169.863C227.136 169.908 227.234 169.973 227.317 170.056C227.4 170.138 227.466 170.236 227.51 170.344C227.555 170.452 227.578 170.568 227.578 170.684C227.578 170.801 227.555 170.917 227.511 171.025C227.466 171.132 227.4 171.23 227.317 171.313L172.394 226.055C172.311 226.137 172.213 226.203 172.104 226.248C171.996 226.293 171.88 226.315 171.763 226.315H171.763ZM184.849 225.871C184.761 225.871 184.675 225.845 184.601 225.796C184.528 225.747 184.47 225.678 184.437 225.597C184.403 225.515 184.394 225.426 184.411 225.34C184.429 225.253 184.471 225.174 184.534 225.112L226.371 183.413C226.455 183.33 226.568 183.283 226.687 183.283C226.805 183.283 226.918 183.33 227.002 183.413C227.086 183.496 227.133 183.609 227.133 183.727C227.133 183.845 227.086 183.958 227.002 184.042L185.165 225.74C185.123 225.782 185.074 225.815 185.02 225.837C184.966 225.859 184.908 225.871 184.849 225.871ZM193.573 225.871C193.485 225.871 193.399 225.845 193.325 225.796C193.252 225.747 193.195 225.678 193.161 225.597C193.127 225.515 193.118 225.426 193.136 225.34C193.153 225.253 193.196 225.174 193.258 225.112L226.371 192.108C226.455 192.025 226.568 191.978 226.687 191.978C226.805 191.978 226.918 192.025 227.002 192.108C227.086 192.192 227.133 192.305 227.133 192.423C227.133 192.541 227.086 192.654 227.002 192.737L193.889 225.74C193.847 225.782 193.798 225.815 193.744 225.837C193.69 225.859 193.632 225.871 193.573 225.871ZM206.66 226.315C206.483 226.315 206.311 226.263 206.164 226.165C206.018 226.068 205.903 225.929 205.836 225.766C205.768 225.604 205.751 225.425 205.785 225.253C205.819 225.08 205.904 224.922 206.029 224.798L226.055 204.837C226.223 204.671 226.45 204.577 226.686 204.577C226.923 204.577 227.15 204.671 227.317 204.837C227.484 205.004 227.578 205.23 227.578 205.466C227.578 205.702 227.484 205.928 227.317 206.095L207.291 226.055C207.208 226.137 207.11 226.203 207.002 226.248C206.893 226.293 206.777 226.315 206.66 226.315H206.66ZM215.384 226.315C215.208 226.315 215.035 226.263 214.888 226.165C214.742 226.068 214.628 225.929 214.56 225.766C214.493 225.604 214.475 225.425 214.509 225.253C214.544 225.08 214.629 224.922 214.753 224.798L226.056 213.533C226.223 213.366 226.45 213.272 226.687 213.272C226.923 213.272 227.15 213.366 227.317 213.533C227.485 213.699 227.579 213.925 227.579 214.161C227.579 214.397 227.485 214.623 227.318 214.79L216.015 226.055C215.932 226.137 215.834 226.203 215.726 226.248C215.618 226.292 215.502 226.315 215.384 226.315H215.384Z" fill="#FF0000"/>
</g>
<path d="M119.941 219.18C93.8389 219.18 69.2989 209.049 50.8415 190.653C32.3841 172.257 22.2192 147.798 22.2192 121.782C22.2192 95.7655 32.3841 71.3067 50.8415 52.9104C69.298 34.5159 93.8407 24.3833 119.941 24.3833C146.044 24.3833 170.584 34.5145 189.041 52.9109C207.498 71.3072 217.663 95.766 217.663 121.782C217.663 147.798 207.498 172.257 189.041 190.653C170.584 209.049 146.044 219.181 119.941 219.181V219.18ZM119.941 27.9395C68.0247 27.9395 25.7877 70.0372 25.7877 121.782C25.7877 173.526 68.0247 215.624 119.941 215.624C171.858 215.624 214.095 173.526 214.095 121.782C214.095 70.0372 171.858 27.9395 119.941 27.9395Z" fill="#FF0000"/>
<mask id="mask1_69_5199" style="mask-type:luminance" maskUnits="userSpaceOnUse" x="24" y="26" width="192" height="192">
<path d="M119.941 217.402C172.926 217.402 215.879 174.591 215.879 121.781C215.879 68.972 172.926 26.1614 119.941 26.1614C66.9562 26.1614 24.0034 68.972 24.0034 121.781C24.0034 174.591 66.9562 217.402 119.941 217.402Z" fill="white"/>
</mask>
<g mask="url(#mask1_69_5199)">
<path d="M209.861 189.798C209.861 189.798 173.822 187.728 132.981 204.47L107.279 92.9169C132.981 68.7208 189.142 67.6642 189.142 67.6642L209.861 189.798Z" fill="#FF0000"/>
<path d="M132.981 206.103C132.612 206.102 132.255 205.977 131.967 205.747C131.678 205.517 131.477 205.197 131.395 204.838L105.694 93.2845C105.63 93.0064 105.639 92.7164 105.722 92.4432C105.805 92.17 105.958 91.9231 106.166 91.7269C117.054 81.477 134.34 74.0365 157.545 69.6135C174.735 66.3368 188.97 66.0346 189.112 66.0323C189.503 66.0257 189.883 66.1592 190.183 66.4085C190.483 66.6578 190.683 67.0063 190.747 67.3904L211.465 189.525C211.616 190.413 211.02 191.257 210.134 191.408C210.014 191.429 209.891 191.436 209.769 191.429C209.412 191.409 173.594 189.585 133.597 205.982C133.402 206.062 133.193 206.103 132.982 206.103H132.981ZM109.078 93.4748L134.138 202.243C168.671 188.497 199.829 187.981 207.923 188.109L187.777 69.3445C179.079 69.7144 132.058 72.6589 109.078 93.4744V93.4748Z" fill="#FF0000"/>
<path d="M180.433 98.1731C180.433 98.1731 148.787 99.1768 124.596 113.736L122.59 104.457C138.288 92.1311 178.667 88.2797 178.667 88.2797L180.433 98.1731Z" fill="white"/>
<path d="M124.597 115.368C124.224 115.367 123.863 115.239 123.573 115.005C123.284 114.771 123.084 114.445 123.006 114.082L121 104.803C120.935 104.503 120.956 104.192 121.06 103.903C121.163 103.615 121.346 103.361 121.587 103.171C137.478 90.6943 176.846 86.8136 178.513 86.6544C178.921 86.6166 179.328 86.7333 179.654 86.9811C179.979 87.229 180.199 87.5899 180.269 87.992L182.036 97.8854C182.194 98.7727 181.605 99.6213 180.721 99.78C180.643 99.7938 180.565 99.8022 180.486 99.8049C180.173 99.8147 148.968 100.973 125.434 115.136C125.182 115.288 124.892 115.369 124.597 115.369V115.368ZM124.402 105.133L125.713 111.197C146.528 99.4391 171.486 97.08 178.506 96.6368L177.333 90.064C174.099 90.4294 165.986 91.4451 156.814 93.3508C141.948 96.4403 130.78 100.503 124.402 105.133ZM184.943 123.431C184.943 123.431 157.82 122.082 129.725 137.454L127.78 128.456C151.513 113.854 183.234 113.854 183.234 113.854L184.943 123.431Z" fill="white"/>
<path d="M129.724 139.086C129.352 139.085 128.991 138.957 128.701 138.723C128.412 138.489 128.212 138.163 128.134 137.8L126.189 128.802C126.117 128.472 126.15 128.127 126.282 127.816C126.415 127.505 126.64 127.242 126.928 127.064C150.778 112.39 181.919 112.221 183.233 112.221C183.616 112.222 183.986 112.358 184.279 112.604C184.572 112.849 184.769 113.19 184.835 113.566L186.544 123.143C186.703 124.03 186.113 124.878 185.228 125.037C185.108 125.059 184.985 125.067 184.863 125.061C184.596 125.048 157.838 123.931 130.503 138.886C130.265 139.017 129.997 139.086 129.724 139.086ZM129.616 129.252L130.859 134.998C154.247 122.783 176.288 121.763 182.991 121.762L181.877 115.518C175.712 115.724 149.796 117.3 129.616 129.253V129.252ZM189.308 147.889C189.308 147.889 161.405 146.086 134.698 160.458L132.811 151.73C163.128 134.943 187.652 138.614 187.652 138.614L189.308 147.889Z" fill="white"/>
<path d="M134.698 162.091C134.326 162.091 133.964 161.962 133.675 161.728C133.385 161.494 133.185 161.168 133.108 160.805L131.22 152.076C131.146 151.734 131.184 151.376 131.328 151.057C131.473 150.737 131.717 150.472 132.024 150.301C162.474 133.441 186.869 136.846 187.893 137C188.23 137.051 188.544 137.207 188.788 137.445C189.032 137.683 189.195 137.991 189.254 138.327L190.91 147.602C190.954 147.845 190.941 148.095 190.874 148.333C190.807 148.571 190.687 148.791 190.522 148.976C190.359 149.161 190.155 149.306 189.927 149.4C189.698 149.494 189.451 149.534 189.204 149.519C188.929 149.502 161.428 147.927 135.467 161.897C135.231 162.024 134.966 162.091 134.698 162.091L134.698 162.091ZM134.66 152.579L135.836 158.021C158.162 146.638 180.533 146.065 187.351 146.186L186.266 140.109C181.203 139.678 159.986 138.9 134.66 152.579ZM193.539 171.586C193.539 171.586 167.048 169.062 139.525 182.783L137.693 174.312C163.394 160.459 191.934 162.598 191.934 162.598L193.539 171.586Z" fill="white"/>
<path d="M139.524 184.415C139.152 184.415 138.79 184.286 138.501 184.052C138.211 183.818 138.011 183.492 137.933 183.129L136.102 174.658C136.027 174.312 136.066 173.952 136.214 173.63C136.362 173.308 136.61 173.043 136.922 172.874C162.744 158.956 190.87 160.883 192.055 160.972C192.416 160.999 192.757 161.146 193.025 161.389C193.293 161.632 193.472 161.956 193.535 162.312L195.139 171.299C195.297 172.187 194.707 173.036 193.822 173.194C193.678 173.22 193.531 173.226 193.385 173.212C193.124 173.188 167.004 170.908 140.248 184.245C140.023 184.358 139.775 184.416 139.524 184.416L139.524 184.415ZM139.546 175.177L140.677 180.409C163.45 169.618 184.862 169.534 191.572 169.827L190.561 164.167C184.919 163.971 161.222 163.913 139.546 175.177L139.546 175.177Z" fill="white"/>
<path d="M132.981 204.471C132.981 204.471 94.8723 200.217 61.5357 229.344L10.9375 117.236C52.3695 82.8142 107.279 92.917 107.279 92.917L132.981 204.47V204.471Z" fill="#FF0000"/>
<path d="M61.5353 230.977C61.2217 230.976 60.915 230.885 60.652 230.715C60.3891 230.545 60.1811 230.303 60.0532 230.017L9.45499 117.909C9.30774 117.583 9.27149 117.218 9.35177 116.87C9.43205 116.521 9.62446 116.208 9.89966 115.979C31.6218 97.9326 57.0155 92.1862 74.4935 90.5432C93.4058 88.7655 107.003 91.2064 107.573 91.3118C107.886 91.37 108.175 91.5182 108.404 91.7382C108.634 91.9582 108.794 92.2403 108.865 92.5498L134.566 204.103C134.768 204.982 134.222 205.858 133.346 206.061C133.167 206.102 132.983 206.113 132.801 206.093C132.654 206.077 123.225 205.094 109.937 207.612C97.6745 209.936 79.5083 215.806 62.6044 230.575C62.3086 230.834 61.9287 230.976 61.5353 230.977ZM12.936 117.706L62.1258 226.694C79.1431 212.448 97.167 206.694 109.459 204.38C119.48 202.494 127.254 202.518 130.9 202.688L105.941 94.3555C102.407 93.8296 90.2601 92.3289 74.6969 93.8034C57.9615 95.389 33.7756 100.834 12.936 117.706Z" fill="#FF0000"/>
<path d="M132.981 204.471C99.025 199.019 58.5997 220.16 58.5997 220.16L20.4258 93.6939C20.4258 93.6939 66.4195 73.5075 107.279 92.9169L132.981 204.47V204.471Z" fill="#FF0000"/>
<path d="M58.5986 221.792C58.2484 221.791 57.9078 221.678 57.6272 221.469C57.3466 221.261 57.1409 220.967 57.0407 220.633L18.8681 94.1669C18.7523 93.7851 18.7804 93.3744 18.9471 93.0118C19.1138 92.6492 19.4077 92.3599 19.7735 92.1981C20.2507 91.9887 31.655 87.0371 48.2772 84.414C63.6545 81.9869 86.4939 81.2369 107.976 91.4411C108.198 91.5471 108.393 91.7018 108.547 91.8937C108.701 92.0856 108.81 92.3097 108.865 92.5493L134.566 204.103C134.769 204.981 134.225 205.857 133.35 206.061C133.144 206.109 132.932 206.116 132.723 206.082C99.6822 200.778 59.7506 221.398 59.3514 221.607C59.1193 221.728 58.8611 221.792 58.599 221.792L58.5986 221.792ZM22.413 94.6448L59.5994 217.841C63.1268 216.132 71.6825 212.206 82.5606 208.717C104.757 201.596 120.778 201.282 130.861 202.523L105.872 94.0593C85.3757 84.5749 63.6032 85.3115 48.873 87.6252C35.8381 89.6727 25.8851 93.2788 22.413 94.6448Z" fill="#FF0000"/>
<path d="M98.1224 108.709C71.5379 101.007 42.6694 111.039 42.6694 111.039L45.6452 121.368C45.6452 121.368 74.325 111.543 100.406 118.173L98.1224 108.709Z" fill="white"/>
<path d="M45.6454 123C45.2917 122.999 44.9478 122.884 44.6656 122.671C44.3835 122.459 44.1786 122.16 44.0817 121.821L41.106 111.492C40.9897 111.091 41.0317 110.661 41.2234 110.29C41.415 109.919 41.7418 109.635 42.1367 109.497C43.3351 109.08 71.8008 99.3857 98.5735 107.141C98.8499 107.222 99.1001 107.374 99.2985 107.582C99.497 107.79 99.6368 108.046 99.7037 108.326L101.987 117.79C102.199 118.666 101.662 119.548 100.788 119.76C100.531 119.822 100.262 119.821 100.006 119.756C74.7141 113.327 46.4527 122.817 46.1703 122.913C46.0011 122.971 45.8234 123 45.6445 123L45.6454 123ZM44.6731 112.115L46.7439 119.303C53.0129 117.39 75.9777 111.23 98.2025 115.983L96.7641 110.023C74.5835 103.953 50.7486 110.28 44.6731 112.115V112.115ZM117.12 187.442C95.0019 184.404 67.2908 196.503 67.2908 196.503L64.6813 187.446C64.6813 187.446 97.1619 174.232 115.095 179.052L117.12 187.442H117.12Z" fill="white"/>
<path d="M67.291 198.136C66.9373 198.135 66.5934 198.02 66.3113 197.807C66.0292 197.594 65.8242 197.296 65.7273 196.957L63.1177 187.899C63.0056 187.512 63.0407 187.098 63.2163 186.735C63.392 186.372 63.6958 186.087 64.0695 185.933C65.4164 185.385 97.2651 172.57 115.516 177.475C115.799 177.552 116.056 177.703 116.261 177.913C116.465 178.123 116.608 178.384 116.676 178.669L118.701 187.059C118.912 187.935 118.376 188.818 117.502 189.03C117.304 189.078 117.1 189.088 116.898 189.06C105.759 187.531 93.0704 190.03 84.3872 192.396C74.9087 194.978 68.0081 197.971 67.9394 198.001C67.7349 198.09 67.5141 198.136 67.291 198.136V198.136ZM66.6585 188.428L68.3502 194.299C70.9977 193.238 76.5063 191.162 83.484 189.258C95.4864 185.982 106.071 184.74 114.991 185.556L113.747 180.399C98.4465 176.929 72.8294 186.082 66.659 188.427L66.6585 188.428ZM112.001 166.228C88.3744 162.48 60.6865 173.579 60.6865 173.579L50.0137 136.532C50.0137 136.532 76.1263 125.654 103.764 132.093L112.001 166.228V166.228Z" fill="white"/>
<path d="M60.6868 175.211C60.3331 175.21 59.9893 175.095 59.7073 174.882C59.4252 174.669 59.2202 174.371 59.1231 174.032L48.4502 136.985C48.3387 136.6 48.3727 136.188 48.5458 135.826C48.719 135.465 49.0192 135.179 49.3895 135.024C50.4755 134.572 76.305 124.019 104.132 130.503C104.427 130.572 104.696 130.721 104.911 130.934C105.125 131.147 105.276 131.415 105.346 131.709L113.583 165.844C113.795 166.72 113.258 167.602 112.385 167.814C112.176 167.865 111.959 167.874 111.747 167.84C88.8497 164.207 61.5636 174.985 61.2907 175.095C61.0988 175.172 60.8938 175.211 60.6868 175.211ZM51.9929 137.523L61.7603 171.426C67.9397 169.162 89.7578 161.914 109.858 164.285L102.42 133.463C79.4685 128.455 57.5648 135.498 51.9929 137.524V137.523Z" fill="white"/>
<path d="M89.0044 124.258C89.0044 124.258 85.5055 128.818 78.8783 137.327C77.8182 118.978 70.0381 96.5856 67.0231 91.5344C64.0081 86.4832 58.4665 76.0288 41.4287 87.3439C48.0398 79.357 58.0704 75.9928 65.2587 78.1163C70.6607 79.7118 75.0721 83.8321 80.0268 94.2483C86.0822 106.976 89.0044 124.258 89.0044 124.258V124.258Z" fill="white"/>
<path d="M78.8781 138.96C78.4615 138.959 78.0611 138.799 77.7591 138.513C77.4571 138.227 77.2763 137.836 77.2537 137.422C76.2359 119.808 68.6789 97.4862 65.6273 92.3737L65.3749 91.9487C63.6738 89.0815 61.3443 85.1541 56.9784 84.154C53.1321 83.2725 48.2028 84.8039 42.3281 88.7059C42.1502 88.8244 41.9505 88.9066 41.7406 88.9478C41.5307 88.989 41.3146 88.9884 41.1049 88.9459C40.8953 88.9035 40.6961 88.8201 40.5189 88.7005C40.3417 88.581 40.1901 88.4277 40.0726 88.2494C39.8787 87.9562 39.7842 87.6088 39.8032 87.2581C39.8221 86.9075 39.9535 86.5722 40.1779 86.3015C46.9509 78.119 57.4538 74.1094 65.7192 76.5508C72.0765 78.4284 76.6472 83.3525 81.4966 93.5459C87.5792 106.333 90.4889 123.271 90.6097 123.986C90.6473 124.208 90.6387 124.435 90.5846 124.653C90.5304 124.871 90.4318 125.076 90.2949 125.255C90.2601 125.3 86.7166 129.916 80.1617 138.333C80.0099 138.528 79.8154 138.686 79.593 138.794C79.3706 138.903 79.1258 138.96 78.8781 138.96ZM54.7078 80.6382C55.7403 80.6382 56.7371 80.7493 57.7027 80.9702C63.4281 82.2825 66.2825 87.0945 68.1713 90.2782L68.4193 90.6956C71.2171 95.3832 78.2697 115.113 80.1568 133.029C82.5363 129.97 84.9089 126.905 87.2745 123.834C86.6573 120.499 83.7649 105.896 78.5583 94.9506C74.1531 85.6907 70.1667 81.2667 64.7991 79.6811C61.2328 78.6276 57.0431 79.0814 53.0166 80.7333C53.5781 80.6702 54.1427 80.6382 54.7078 80.6373V80.6382Z" fill="#FF0000"/>
</g>
<path d="M119.941 219.18C93.8389 219.18 69.2989 209.049 50.8415 190.653C32.3841 172.257 22.2192 147.798 22.2192 121.782C22.2192 95.7655 32.3841 71.3067 50.8415 52.9104C69.298 34.5159 93.8407 24.3833 119.941 24.3833C146.044 24.3833 170.584 34.5145 189.041 52.9109C207.498 71.3072 217.663 95.766 217.663 121.782C217.663 147.798 207.498 172.257 189.041 190.653C170.584 209.049 146.044 219.181 119.941 219.181V219.18ZM119.941 27.9395C68.0247 27.9395 25.7877 70.0372 25.7877 121.782C25.7877 173.526 68.0247 215.624 119.941 215.624C171.858 215.624 214.095 173.526 214.095 121.782C214.095 70.0372 171.858 27.9395 119.941 27.9395Z" fill="#FF0000"/>
<path d="M132.981 204.471C132.981 204.471 94.8723 200.217 61.5357 229.344L10.9375 117.236C52.3695 82.8142 107.279 92.917 107.279 92.917L132.981 204.47V204.471Z" fill="#FF0000"/>
<path d="M61.5353 230.977C61.2217 230.976 60.915 230.885 60.652 230.715C60.3891 230.545 60.1811 230.303 60.0532 230.017L9.45499 117.909C9.30774 117.583 9.27149 117.218 9.35177 116.87C9.43205 116.521 9.62446 116.208 9.89966 115.979C31.6218 97.9326 57.0155 92.1862 74.4935 90.5432C93.4058 88.7655 107.003 91.2064 107.573 91.3118C107.886 91.37 108.175 91.5182 108.404 91.7382C108.634 91.9582 108.794 92.2403 108.865 92.5498L134.566 204.103C134.768 204.982 134.222 205.858 133.346 206.061C133.167 206.102 132.983 206.113 132.801 206.093C132.654 206.077 123.225 205.094 109.937 207.612C97.6745 209.936 79.5083 215.806 62.6044 230.575C62.3086 230.834 61.9287 230.976 61.5353 230.977ZM12.936 117.706L62.1258 226.694C79.1431 212.448 97.167 206.694 109.459 204.38C119.48 202.494 127.254 202.518 130.9 202.688L105.941 94.3555C102.407 93.8296 90.2601 92.3289 74.6969 93.8034C57.9615 95.389 33.7756 100.834 12.936 117.706Z" fill="#FF0000"/>
<path d="M132.981 204.471C99.025 199.02 58.5997 220.16 58.5997 220.16L20.4258 93.694C20.4258 93.694 66.4195 73.5076 107.279 92.917L132.981 204.47V204.471Z" fill="#FF0000"/>
<path d="M58.5986 221.792C58.2484 221.792 57.9078 221.678 57.6272 221.47C57.3466 221.261 57.1409 220.967 57.0407 220.633L18.8681 94.167C18.7523 93.7853 18.7804 93.3745 18.9471 93.0119C19.1138 92.6493 19.4077 92.36 19.7735 92.1982C20.2507 91.9888 31.655 87.0373 48.2772 84.4141C63.6545 81.987 86.4939 81.2371 107.976 91.4412C108.198 91.5472 108.393 91.7019 108.547 91.8939C108.701 92.0858 108.81 92.3099 108.865 92.5494L134.566 204.103C134.769 204.981 134.225 205.857 133.35 206.061C133.144 206.109 132.932 206.116 132.723 206.082C99.6822 200.778 59.7506 221.398 59.3514 221.607C59.1193 221.729 58.8611 221.792 58.599 221.792L58.5986 221.792ZM22.413 94.6449L59.5994 217.841C63.1268 216.133 71.6825 212.206 82.5606 208.717C104.757 201.597 120.778 201.282 130.861 202.523L105.872 94.0595C85.3757 84.575 63.6032 85.3116 48.873 87.6254C35.8381 89.6729 25.8851 93.2789 22.413 94.6449Z" fill="#FF0000"/>
<path d="M98.1224 108.709C71.5379 101.007 42.6694 111.039 42.6694 111.039L45.6452 121.368C45.6452 121.368 74.325 111.543 100.406 118.173L98.1224 108.709Z" fill="white"/>
<path d="M45.6454 123C45.2917 122.999 44.9478 122.884 44.6656 122.671C44.3835 122.459 44.1786 122.16 44.0817 121.821L41.106 111.492C40.9897 111.091 41.0317 110.661 41.2234 110.29C41.415 109.919 41.7418 109.635 42.1367 109.497C43.3351 109.08 71.8008 99.3857 98.5735 107.141C98.8499 107.222 99.1001 107.374 99.2985 107.582C99.497 107.79 99.6368 108.046 99.7037 108.326L101.987 117.79C102.199 118.666 101.662 119.548 100.788 119.76C100.531 119.822 100.262 119.821 100.006 119.756C74.7141 113.327 46.4527 122.817 46.1703 122.913C46.0011 122.971 45.8234 123 45.6445 123L45.6454 123ZM44.6731 112.115L46.7439 119.303C53.0129 117.39 75.9777 111.23 98.2025 115.983L96.7641 110.023C74.5835 103.953 50.7486 110.28 44.6731 112.115V112.115ZM117.12 187.442C95.0019 184.404 67.2908 196.503 67.2908 196.503L64.6813 187.446C64.6813 187.446 97.1619 174.232 115.095 179.052L117.12 187.442H117.12Z" fill="white"/>
<path d="M67.291 198.136C66.9373 198.135 66.5934 198.02 66.3113 197.807C66.0292 197.594 65.8242 197.296 65.7273 196.957L63.1177 187.899C63.0056 187.512 63.0407 187.098 63.2163 186.735C63.392 186.372 63.6958 186.087 64.0695 185.934C65.4164 185.385 97.2651 172.571 115.516 177.476C115.799 177.552 116.056 177.703 116.261 177.913C116.465 178.123 116.608 178.384 116.676 178.669L118.701 187.059C118.912 187.935 118.376 188.818 117.502 189.03C117.304 189.078 117.1 189.088 116.898 189.06C105.759 187.531 93.0704 190.03 84.3872 192.396C74.9087 194.978 68.0081 197.971 67.9394 198.001C67.7349 198.09 67.5141 198.136 67.291 198.136V198.136ZM66.6585 188.428L68.3502 194.299C70.9977 193.238 76.5063 191.163 83.484 189.258C95.4864 185.982 106.071 184.74 114.991 185.557L113.747 180.399C98.4465 176.929 72.8294 186.082 66.659 188.427L66.6585 188.428ZM112.001 166.228C88.3744 162.48 60.6865 173.579 60.6865 173.579L50.0137 136.532C50.0137 136.532 76.1263 125.654 103.764 132.093L112.001 166.228V166.228Z" fill="white"/>
<path d="M60.6868 175.211C60.3331 175.21 59.9893 175.095 59.7073 174.882C59.4252 174.669 59.2202 174.371 59.1231 174.032L48.4502 136.985C48.3387 136.6 48.3727 136.188 48.5458 135.826C48.719 135.465 49.0192 135.179 49.3895 135.024C50.4755 134.572 76.305 124.019 104.132 130.503C104.427 130.572 104.696 130.721 104.911 130.934C105.125 131.147 105.276 131.415 105.346 131.709L113.583 165.844C113.795 166.72 113.258 167.602 112.385 167.814C112.176 167.865 111.959 167.874 111.747 167.84C88.8497 164.207 61.5636 174.985 61.2907 175.095C61.0988 175.172 60.8938 175.211 60.6868 175.211ZM51.9929 137.523L61.7603 171.426C67.9397 169.162 89.7578 161.914 109.858 164.285L102.42 133.463C79.4685 128.455 57.5648 135.498 51.9929 137.524V137.523Z" fill="white"/>
<path d="M89.0039 124.258C89.0039 124.258 85.505 128.818 78.8778 137.327C77.8177 118.978 70.0376 96.5857 67.0226 91.5345C64.0076 86.4834 58.466 76.029 41.4282 87.344C48.0393 79.3571 58.07 75.993 65.2582 78.1165C70.6602 79.7119 75.0716 83.8322 80.0263 94.2484C86.0817 106.977 89.0039 124.258 89.0039 124.258V124.258Z" fill="white"/>
<path d="M78.8781 138.96C78.4615 138.959 78.0611 138.799 77.7591 138.513C77.4571 138.227 77.2763 137.836 77.2537 137.422C76.2359 119.808 68.6789 97.4863 65.6273 92.3738L65.3749 91.9489C63.6738 89.0817 61.3443 85.1543 56.9784 84.1541C53.1321 83.2726 48.2028 84.804 42.3281 88.706C42.1502 88.8245 41.9505 88.9067 41.7406 88.9479C41.5307 88.9891 41.3146 88.9885 41.1049 88.946C40.8953 88.9036 40.6961 88.8202 40.5189 88.7006C40.3417 88.5811 40.1901 88.4278 40.0726 88.2495C39.8787 87.9564 39.7842 87.6089 39.8032 87.2583C39.8221 86.9076 39.9535 86.5723 40.1779 86.3016C46.9509 78.1192 57.4538 74.1095 65.7192 76.5509C72.0765 78.4286 76.6472 83.3526 81.4966 93.5461C87.5792 106.333 90.4889 123.271 90.6097 123.986C90.6473 124.208 90.6387 124.435 90.5846 124.653C90.5304 124.871 90.4318 125.076 90.2949 125.255C90.2601 125.3 86.7166 129.916 80.1617 138.333C80.0099 138.528 79.8154 138.686 79.593 138.794C79.3706 138.903 79.1258 138.96 78.8781 138.96ZM54.7078 80.6383C55.7403 80.6383 56.7371 80.7494 57.7027 80.9704C63.4281 82.2826 66.2825 87.0946 68.1713 90.2783L68.4193 90.6957C71.2171 95.3833 78.2697 115.113 80.1568 133.029C82.5363 129.97 84.9089 126.905 87.2745 123.834C86.6573 120.5 83.7649 105.896 78.5583 94.9508C74.1531 85.6908 70.1667 81.2669 64.7991 79.6812C61.2328 78.6277 57.0431 79.0816 53.0166 80.7334C53.5781 80.6703 54.1427 80.6383 54.7078 80.6374V80.6383Z" fill="#FF0000"/>
</g>
<g clip-path="url(#clip1_69_5199)">
<path d="M198.232 194.255C183.84 201.726 162.886 197.87 152.82 185.377C149.006 180.644 148.927 176.987 147.969 170.821C148.551 174.095 150.07 177.415 152.625 180.581C162.691 193.074 183.646 196.925 198.037 189.459C205.275 185.702 209.247 179.851 209.853 173.6C209.483 181.416 207.305 189.55 198.232 194.255Z" fill="#FF0000"/>
<path d="M179.232 199.897C168.407 199.255 157.753 194.549 151.328 186.575C147.667 182.031 147.137 178.375 146.404 173.315C146.303 172.616 146.197 171.884 146.077 171.114C145.997 170.615 146.118 170.106 146.413 169.696C146.708 169.286 147.154 169.01 147.653 168.927C148.152 168.844 148.664 168.962 149.076 169.254C149.488 169.547 149.768 169.99 149.854 170.488C150.401 173.563 151.835 176.556 154.116 179.383C158.676 185.041 165.762 189.035 174.07 190.628C182.218 192.191 190.633 191.147 197.154 187.763C203.539 184.449 207.372 179.353 207.948 173.415C208.048 172.383 208.959 171.613 209.991 171.694C210.489 171.73 210.954 171.959 211.285 172.332C211.617 172.705 211.789 173.192 211.766 173.69C211.439 180.599 209.77 190.423 199.116 195.95C193.124 199.06 186.143 200.308 179.232 199.897ZM158.958 188.723C163.145 191.98 168.401 194.301 174.265 195.426C182.414 196.99 190.827 195.945 197.348 192.56L197.348 192.56C199.084 191.66 200.59 190.612 201.878 189.393C200.928 190.038 199.94 190.626 198.92 191.154C186.72 197.484 170.426 196.09 158.958 188.723Z" fill="#FF0000"/>
<path d="M213.312 204.149L205.315 208.847L191.76 192.752L199.863 188.425L213.312 204.149Z" fill="#FF0000"/>
<path d="M205.202 210.754C204.942 210.739 204.688 210.671 204.456 210.555C204.223 210.438 204.017 210.275 203.849 210.076L190.294 193.981C190.111 193.763 189.978 193.507 189.906 193.232C189.835 192.957 189.825 192.669 189.879 192.39C189.933 192.111 190.049 191.847 190.218 191.618C190.387 191.389 190.605 191.201 190.856 191.067L198.959 186.74C199.344 186.535 199.788 186.467 200.218 186.547C200.647 186.628 201.035 186.853 201.319 187.185L214.768 202.908C214.949 203.12 215.082 203.369 215.156 203.638C215.231 203.907 215.246 204.189 215.2 204.464C215.153 204.739 215.047 205.001 214.889 205.23C214.731 205.46 214.524 205.653 214.283 205.794L206.286 210.493C205.948 210.692 205.571 210.776 205.202 210.754L205.202 210.754ZM194.744 193.326L205.739 206.381L210.375 203.658L199.408 190.836L194.744 193.326Z" fill="#FF0000"/>
<path d="M246.863 236.14L231.567 247.699L200.868 210.999C198.157 207.758 204.74 196.011 215.566 199.779L246.863 236.14Z" fill="white"/>
<path d="M231.455 249.607C231.194 249.591 230.939 249.523 230.705 249.405C230.472 249.288 230.265 249.124 230.097 248.924L199.398 212.223C197.665 210.152 198.094 206.462 200.467 203.041C203.313 198.936 208.94 195.449 216.196 197.975C216.515 198.086 216.798 198.279 217.018 198.534L248.315 234.895C248.485 235.093 248.613 235.324 248.69 235.573C248.768 235.822 248.793 236.084 248.766 236.343C248.738 236.603 248.657 236.853 248.529 237.08C248.4 237.307 248.227 237.506 248.019 237.663L232.723 249.223C232.36 249.498 231.909 249.635 231.454 249.607L231.455 249.607ZM211.937 200.961C207.205 200.68 204.446 204.018 203.616 205.216C202.1 207.401 201.978 209.346 202.338 209.775L231.867 245.076L244.084 235.843L214.462 201.428C213.566 201.154 212.724 201.008 211.936 200.961L211.937 200.961Z" fill="#FF0000"/>
<path d="M242.279 245.987C246.511 242.808 248.633 238.496 247.018 236.356C245.404 234.215 240.664 235.058 236.432 238.237C232.2 241.416 230.078 245.728 231.693 247.868C233.307 250.008 238.047 249.166 242.279 245.987Z" fill="#FF0000"/>
<path d="M234.16 250.945C232.469 250.844 231.063 250.211 230.163 249.018C227.84 245.938 230.04 240.648 235.28 236.711C237.563 234.997 240.081 233.828 242.371 233.422C245.116 232.934 247.311 233.568 248.548 235.208C249.785 236.848 249.789 239.127 248.559 241.626C247.534 243.709 245.713 245.8 243.43 247.515C240.219 249.927 236.834 251.104 234.16 250.945L234.16 250.945ZM244.336 237.089C243.986 237.068 243.556 237.093 243.043 237.184C241.358 237.483 239.369 238.424 237.584 239.764C233.779 242.622 232.597 245.893 233.222 246.721C233.847 247.549 237.323 247.32 241.127 244.462C242.912 243.121 244.369 241.473 245.123 239.94C245.765 238.636 245.721 237.813 245.489 237.505C245.34 237.308 244.965 237.126 244.337 237.089L244.336 237.089Z" fill="#FF0000"/>
<path opacity="0.8" d="M179.038 195.1C168.213 194.457 157.558 189.752 151.132 181.78C146.337 175.831 144.685 169.017 146.481 162.595C148.445 155.569 154.349 149.805 162.68 146.781C169.755 144.212 178.058 143.835 186.058 145.719C194.028 147.596 201.002 151.542 205.693 156.832C210.644 162.415 212.713 169.029 211.52 175.458C210.306 181.994 205.831 187.568 198.921 191.155C192.929 194.264 185.949 195.51 179.038 195.1ZM178.283 148.433C173.382 148.142 168.456 148.75 163.99 150.372C156.835 152.969 151.797 157.799 150.169 163.623C148.714 168.825 150.116 174.423 154.116 179.385C158.675 185.041 165.762 189.035 174.07 190.628C182.22 192.192 190.633 191.148 197.154 187.764C202.996 184.731 206.761 180.114 207.755 174.76C208.729 169.514 206.979 164.046 202.827 159.364C197.104 152.911 187.745 148.994 178.283 148.432L178.283 148.433Z" fill="#FF0000"/>
<path d="M204.26 158.098C213.603 168.632 211.314 182.569 198.037 189.459C183.646 196.928 162.691 193.072 152.623 180.582C142.833 168.435 148.241 154.056 163.335 148.576C177.312 143.502 195.14 147.815 204.26 158.098Z" fill="white"/>
<path d="M179.038 195.1C168.213 194.457 157.558 189.752 151.132 181.78C146.337 175.831 144.685 169.017 146.481 162.595C148.445 155.569 154.349 149.805 162.68 146.781C169.755 144.212 178.058 143.835 186.058 145.719C194.028 147.596 201.002 151.542 205.693 156.832C210.644 162.415 212.713 169.029 211.52 175.458C210.306 181.994 205.831 187.568 198.921 191.155C192.929 194.264 185.949 195.51 179.038 195.1ZM178.283 148.433C173.382 148.142 168.456 148.75 163.99 150.372C156.835 152.969 151.797 157.799 150.169 163.623C148.714 168.825 150.116 174.423 154.116 179.385C158.675 185.041 165.762 189.035 174.07 190.628C182.22 192.192 190.633 191.148 197.154 187.764C202.996 184.731 206.761 180.114 207.755 174.76C208.729 169.514 206.979 164.046 202.827 159.364C197.104 152.911 187.745 148.994 178.283 148.432L178.283 148.433Z" fill="#FF0000"/>
</g>
<defs>
<clipPath id="clip0_69_5199">
<rect width="208.367" height="206.593" fill="white" transform="translate(9.31006 24.3833)"/>
</clipPath>
<clipPath id="clip1_69_5199">
<rect width="107.73" height="102.853" fill="white" transform="translate(147.225 142.755) rotate(3.39708)"/>
</clipPath>
</defs>
</svg>
