<svg width="199" height="191" viewBox="0 0 199 191" fill="none" xmlns="http://www.w3.org/2000/svg">
<g clip-path="url(#clip0_69_5270)">
<path d="M134.345 8.97388H50.4254C23.9413 8.97388 2.47168 30.4202 2.47168 56.8755V140.703C2.47168 167.159 23.9413 188.605 50.4254 188.605H134.345C160.829 188.605 182.298 167.159 182.298 140.703V56.8755C182.298 30.4202 160.829 8.97388 134.345 8.97388Z" fill="white"/>
<path d="M110.364 45.7588L100.527 35.9324L110.364 26.106L120.202 35.9324L110.364 45.7588ZM102.223 35.9324L110.364 44.0655L118.506 35.9324L110.364 27.7999L102.223 35.9324Z" fill="#007AFF"/>
<path d="M101.375 54.7385L91.5381 44.9121L101.375 35.0857L111.212 44.9121L101.375 54.7385ZM93.2338 44.9121L101.375 53.0446L109.517 44.9121L101.375 36.779L93.2338 44.9121Z" fill="#007AFF"/>
<path d="M83.3957 54.7383L73.5586 44.9119L83.3957 35.0854L93.2328 44.9119L83.3957 54.7383ZM75.2544 44.9119L83.3957 53.0444L91.5377 44.9119L83.3957 36.7788L75.2544 44.9119Z" fill="#007AFF"/>
<path d="M29.4602 90.657L19.623 80.8306L29.4602 71.0042L39.2973 80.8306L29.4602 90.657ZM21.3188 80.83L29.4602 88.9631L37.6015 80.83L29.4602 72.6975L21.3188 80.83Z" fill="#007AFF"/>
<path d="M119.354 54.7385L109.517 44.9121L119.354 35.0857L129.191 44.9121L119.354 54.7385ZM111.212 44.9121L119.354 53.0446L127.495 44.9121L119.354 36.779L111.212 44.9121Z" fill="#007AFF"/>
<path d="M128.343 45.7588L118.506 35.9324L128.343 26.106L138.18 35.9324L128.343 45.7588ZM120.201 35.9324L128.342 44.0655L136.484 35.9324L128.342 27.7999L120.201 35.9324Z" fill="#007AFF"/>
<path d="M29.4602 72.6975L19.623 62.8711L29.4602 53.0447L39.2973 62.8711L29.4602 72.6975ZM21.3188 62.8711L29.4602 71.0036L37.6015 62.8711L29.4602 54.7386L21.3188 62.8711Z" fill="#007AFF"/>
<path d="M101.375 144.534L91.5381 134.707L101.375 124.881L111.212 134.707L101.375 144.534ZM93.2338 134.707L101.375 142.84L109.517 134.707L101.375 126.575L93.2338 134.707Z" fill="#007AFF"/>
<path d="M38.4494 63.7183L28.6123 53.8918L38.4494 44.0654L48.2865 53.8918L38.4494 63.7183ZM30.3081 53.8918L38.4494 62.0244L46.5914 53.8918L38.4494 45.7593L30.3081 53.8918Z" fill="#007AFF"/>
<path d="M38.4494 81.6773L28.6123 71.8508L38.4494 62.0244L48.2865 71.8508L38.4494 81.6773ZM30.3081 71.8508L38.4494 79.9833L46.5914 71.8508L38.4494 63.7183L30.3081 71.8508Z" fill="#007AFF"/>
<path d="M65.4172 54.7383L55.5801 44.9119L65.4172 35.0854L75.2543 44.9119L65.4172 54.7383ZM57.2758 44.9119L65.4172 53.0444L73.5585 44.9119L65.4172 36.7788L57.2758 44.9119Z" fill="#007AFF"/>
<path d="M56.4279 45.7588L46.5908 35.9324L56.4279 26.106L66.2651 35.9324L56.4279 45.7588ZM48.2866 35.9324L56.4279 44.0655L64.5693 35.9324L56.4279 27.7999L48.2866 35.9324Z" fill="#007AFF"/>
<path d="M74.4074 45.7588L64.5703 35.9324L74.4074 26.106L84.2445 35.9324L74.4074 45.7588ZM66.2655 35.9324L74.4068 44.0655L82.5482 35.9324L74.4068 27.7999L66.2655 35.9324Z" fill="#007AFF"/>
<path d="M92.3859 45.7588L82.5488 35.9324L92.3859 26.106L102.223 35.9324L92.3859 45.7588ZM84.244 35.9324L92.3859 44.0655L100.527 35.9324L92.3859 27.7999L84.244 35.9324Z" fill="#007AFF"/>
<path d="M146.321 135.554L136.484 125.728L146.321 115.902L156.159 125.728L146.321 135.554ZM138.18 125.728L146.321 133.861L154.463 125.728L146.321 117.596L138.18 125.728Z" fill="#007AFF"/>
<path d="M137.332 54.7383L127.495 44.9119L137.332 35.0854L147.169 44.9119L137.332 54.7383ZM129.19 44.9119L137.332 53.0444L145.474 44.9119L137.332 36.7788L129.19 44.9119Z" fill="#007AFF"/>
<path d="M155.311 126.575L145.474 116.748L155.311 106.922L165.148 116.748L155.311 126.575ZM147.169 116.748L155.311 124.881L163.452 116.748L155.311 108.616L147.169 116.748Z" fill="#007AFF"/>
<path d="M137.332 144.534L127.495 134.707L137.332 124.881L147.169 134.707L137.332 144.534ZM129.19 134.707L137.332 142.84L145.474 134.707L137.332 126.575L129.19 134.707Z" fill="#007AFF"/>
<path d="M110.364 153.514L100.527 143.687L110.364 133.861L120.202 143.687L110.364 153.514ZM102.223 143.687L110.364 151.82L118.506 143.687L110.364 135.555L102.223 143.687Z" fill="#007AFF"/>
<path d="M119.354 144.534L109.517 134.707L119.354 124.881L129.191 134.707L119.354 144.534ZM111.212 134.707L119.354 142.84L127.495 134.707L119.354 126.575L111.212 134.707Z" fill="#007AFF"/>
<path d="M128.343 153.513L118.506 143.687L128.343 133.861L138.18 143.687L128.343 153.513ZM120.201 143.687L128.342 151.82L136.484 143.687L128.342 135.555L120.201 143.687Z" fill="#007AFF"/>
<path d="M146.321 117.595L136.484 107.769L146.321 97.9421L156.159 107.769L146.321 117.595ZM138.18 107.769L146.321 115.902L154.463 107.769L146.321 99.6367L138.18 107.769Z" fill="#007AFF"/>
<path d="M155.311 72.6973L145.474 62.8709L155.311 53.0444L165.148 62.8709L155.311 72.6973ZM147.169 62.8709L155.311 71.0034L163.452 62.8709L155.311 54.7384L147.169 62.8709Z" fill="#007AFF"/>
<path d="M146.321 63.7183L136.484 53.8918L146.321 44.0654L156.159 53.8918L146.321 63.7183ZM138.18 53.8918L146.321 62.0244L154.463 53.8918L146.321 45.7593L138.18 53.8918Z" fill="#007AFF"/>
<path d="M155.311 108.616L145.474 98.7893L155.311 88.9629L165.148 98.7893L155.311 108.616ZM147.169 98.7893L155.311 106.922L163.452 98.7893L155.311 90.6568L147.169 98.7893Z" fill="#007AFF"/>
<path d="M146.321 81.6773L136.484 71.8508L146.321 62.0244L156.159 71.8508L146.321 81.6773ZM138.18 71.8508L146.321 79.9833L154.463 71.8508L146.321 63.7183L138.18 71.8508Z" fill="#007AFF"/>
<path d="M155.311 90.6568L145.474 80.8303L155.311 71.0039L165.148 80.8303L155.311 90.6568ZM147.169 80.8297L155.311 88.9628L163.452 80.8297L155.311 72.6972L147.169 80.8297Z" fill="#007AFF"/>
<path d="M146.321 99.636L136.484 89.8096L146.321 79.9832L156.159 89.8096L146.321 99.636ZM138.18 89.8096L146.321 97.9427L154.463 89.8102L146.321 81.6771L138.18 89.8096Z" fill="#007AFF"/>
<path d="M47.4397 54.7383L37.6025 44.9119L47.4397 35.0854L57.2768 44.9119L47.4397 54.7383ZM39.2977 44.9119L47.4397 53.0444L55.581 44.9119L47.4397 36.7788L39.2977 44.9119Z" fill="#007AFF"/>
<path d="M164.3 153.513L154.463 143.687L164.3 133.861L174.137 143.687L164.3 153.513ZM156.159 143.687L164.3 151.82L172.441 143.687L164.3 135.555L156.159 143.687Z" fill="#007AFF"/>
<path d="M173.289 144.534L163.452 134.707L173.289 124.881L183.126 134.707L173.289 144.534ZM165.148 134.707L173.289 142.84L181.431 134.707L173.289 126.575L165.148 134.707Z" fill="#007AFF"/>
<path d="M155.311 162.493L145.474 152.667L155.311 142.84L165.148 152.667L155.311 162.493ZM147.169 152.667L155.311 160.799L163.452 152.667L155.311 144.534L147.169 152.667Z" fill="#007AFF"/>
<path d="M128.343 171.472L118.506 161.646L128.343 151.82L138.18 161.646L128.343 171.472ZM120.201 161.647L128.342 169.779L136.484 161.647L128.342 153.514L120.201 161.647Z" fill="#007AFF"/>
<path d="M164.3 135.554L154.463 125.728L164.3 115.902L174.137 125.728L164.3 135.554ZM156.159 125.728L164.3 133.861L172.441 125.728L164.3 117.596L156.159 125.728Z" fill="#007AFF"/>
<path d="M146.321 153.513L136.484 143.687L146.321 133.861L156.159 143.687L146.321 153.513ZM138.18 143.687L146.321 151.82L154.463 143.687L146.321 135.555L138.18 143.687Z" fill="#007AFF"/>
<path d="M137.332 162.493L127.495 152.667L137.332 142.84L147.169 152.667L137.332 162.493ZM129.19 152.667L137.332 160.799L145.474 152.667L137.332 144.534L129.19 152.667Z" fill="#007AFF"/>
<path d="M119.354 162.493L109.517 152.667L119.354 142.84L129.191 152.667L119.354 162.493ZM111.212 152.667L119.354 160.799L127.495 152.667L119.354 144.534L111.212 152.667Z" fill="#007AFF"/>
<path d="M173.289 90.6563L163.452 80.8298L173.289 71.0034L183.126 80.8298L173.289 90.6563ZM165.148 80.8298L173.289 88.9623L181.431 80.8298L173.289 72.6973L165.148 80.8298Z" fill="#007AFF"/>
<path d="M164.3 81.6773L154.463 71.8508L164.3 62.0244L174.137 71.8508L164.3 81.6773ZM156.159 71.8508L164.3 79.9833L172.441 71.8508L164.3 63.7183L156.159 71.8508Z" fill="#007AFF"/>
<path d="M173.289 126.575L163.452 116.748L173.289 106.922L183.126 116.748L173.289 126.575ZM165.148 116.748L173.289 124.881L181.431 116.748L173.289 108.616L165.148 116.748Z" fill="#007AFF"/>
<path d="M164.3 99.636L154.463 89.8096L164.3 79.9832L174.137 89.8096L164.3 99.636ZM156.159 89.8102L164.3 97.9427L172.441 89.8096L164.3 81.6771L156.159 89.8102Z" fill="#007AFF"/>
<path d="M173.289 108.616L163.452 98.7893L173.289 88.9629L183.126 98.7893L173.289 108.616ZM165.148 98.7893L173.289 106.922L181.431 98.7893L173.289 90.6562L165.148 98.7893Z" fill="#007AFF"/>
<path d="M164.3 117.595L154.463 107.769L164.3 97.9421L174.137 107.769L164.3 117.595ZM156.159 107.769L164.3 115.902L172.441 107.769L164.3 99.6367L156.159 107.769Z" fill="#007AFF"/>
<path d="M38.4494 153.513L28.6123 143.687L38.4494 133.861L48.2865 143.687L38.4494 153.513ZM30.3081 143.687L38.4494 151.82L46.5914 143.688L38.4494 135.555L30.3081 143.687Z" fill="#007AFF"/>
<path d="M29.4602 144.534L19.623 134.707L29.4602 124.881L39.2973 134.707L29.4602 144.534ZM21.3188 134.707L29.4602 142.84L37.6015 134.707L29.4602 126.575L21.3188 134.707Z" fill="#007AFF"/>
<path d="M38.4494 135.554L28.6123 125.728L38.4494 115.902L48.2865 125.728L38.4494 135.554ZM30.3081 125.728L38.4494 133.861L46.5914 125.728L38.4494 117.596L30.3081 125.728Z" fill="#007AFF"/>
<path d="M110.364 171.472L100.527 161.646L110.364 151.819L120.202 161.646L110.364 171.472ZM102.223 161.646L110.364 169.779L118.506 161.646L110.364 153.514L102.223 161.646Z" fill="#007AFF"/>
<path d="M29.4602 126.575L19.623 116.748L29.4602 106.922L39.2973 116.748L29.4602 126.575ZM21.3188 116.748L29.4602 124.881L37.6015 116.748L29.4602 108.616L21.3188 116.748Z" fill="#007AFF"/>
<path d="M29.4602 108.616L19.623 98.7896L29.4602 88.9631L39.2973 98.7896L29.4602 108.616ZM21.3188 98.7896L29.4602 106.922L37.6015 98.7896L29.4602 90.6571L21.3188 98.7896Z" fill="#007AFF"/>
<path d="M38.4494 117.595L28.6123 107.769L38.4494 97.9421L48.2865 107.769L38.4494 117.595ZM30.3081 107.769L38.4494 115.902L46.5914 107.769L38.4494 99.6367L30.3081 107.769Z" fill="#007AFF"/>
<path d="M47.4397 162.493L37.6025 152.667L47.4397 142.84L57.2768 152.667L47.4397 162.493ZM39.2977 152.667L47.4397 160.799L55.581 152.667L47.4397 144.534L39.2977 152.667Z" fill="#007AFF"/>
<path d="M38.4494 99.636L28.6123 89.8096L38.4494 79.9832L48.2865 89.8096L38.4494 99.636ZM30.3081 89.8102L38.4494 97.9427L46.5914 89.8096L38.4494 81.6771L30.3081 89.8102Z" fill="#007AFF"/>
<path d="M83.3957 162.493L73.5586 152.667L83.3957 142.84L93.2328 152.667L83.3957 162.493ZM75.2544 152.667L83.3957 160.799L91.5377 152.667L83.3957 144.534L75.2544 152.667Z" fill="#007AFF"/>
<path d="M92.3859 171.472L82.5488 161.646L92.3859 151.819L102.223 161.646L92.3859 171.472ZM84.244 161.646L92.3859 169.779L100.527 161.646L92.3859 153.514L84.244 161.646Z" fill="#007AFF"/>
<path d="M101.375 162.493L91.5381 152.667L101.375 142.84L111.212 152.667L101.375 162.493ZM93.2338 152.667L101.375 160.799L109.517 152.667L101.375 144.534L93.2338 152.667Z" fill="#007AFF"/>
<path d="M65.4172 162.493L55.5801 152.667L65.4172 142.84L75.2543 152.667L65.4172 162.493ZM57.2758 152.667L65.4172 160.799L73.5585 152.667L65.4172 144.534L57.2758 152.667Z" fill="#007AFF"/>
<path d="M74.4074 171.472L64.5703 161.646L74.4074 151.819L84.2445 161.646L74.4074 171.472ZM66.2655 161.646L74.4068 169.779L82.5482 161.646L74.4068 153.514L66.2655 161.646Z" fill="#007AFF"/>
<path d="M56.4279 171.472L46.5908 161.646L56.4279 151.82L66.2651 161.646L56.4279 171.472ZM48.2866 161.647L56.4279 169.779L64.5693 161.647L56.4279 153.514L48.2866 161.647Z" fill="#007AFF"/>
<path d="M74.4074 153.514L64.5703 143.687L74.4074 133.861L84.2445 143.687L74.4074 153.514ZM66.2655 143.687L74.4068 151.82L82.5482 143.687L74.4068 135.555L66.2655 143.687Z" fill="#007AFF"/>
<path d="M74.4074 117.595L64.5703 107.769L74.4074 97.9424L84.2445 107.769L74.4074 117.595ZM66.2655 107.769L74.4068 115.902L82.5482 107.769L74.4068 99.6369L66.2655 107.769Z" fill="#007AFF"/>
<path d="M74.4074 135.555L64.5703 125.728L74.4074 115.902L84.2445 125.728L74.4074 135.555ZM66.2655 125.728L74.4068 133.861L82.5482 125.728L74.4068 117.596L66.2655 125.728Z" fill="#007AFF"/>
<path d="M65.4172 126.575L55.5801 116.748L65.4172 106.922L75.2543 116.748L65.4172 126.575ZM57.2758 116.748L65.4172 124.881L73.5585 116.748L65.4172 108.616L57.2758 116.748Z" fill="#007AFF"/>
<path d="M83.3957 90.6563L73.5586 80.8298L83.3957 71.0034L93.2328 80.8298L83.3957 90.6563ZM75.2544 80.8298L83.3957 88.9623L91.5377 80.8298L83.3957 72.6973L75.2544 80.8298Z" fill="#007AFF"/>
<path d="M74.4074 81.6773L64.5703 71.8508L74.4074 62.0244L84.2445 71.8508L74.4074 81.6773ZM66.2655 71.8508L74.4068 79.9833L82.5482 71.8508L74.4068 63.7183L66.2655 71.8508Z" fill="#007AFF"/>
<path d="M74.4074 99.6362L64.5703 89.8098L74.4074 79.9834L84.2445 89.8098L74.4074 99.6362ZM66.2655 89.8104L74.4068 97.9429L82.5482 89.8098L74.4068 81.6773L66.2655 89.8104Z" fill="#007AFF"/>
<path d="M65.4172 90.6568L55.5801 80.8303L65.4172 71.0039L75.2543 80.8303L65.4172 90.6568ZM57.2758 80.8297L65.4172 88.9628L73.5585 80.8297L65.4172 72.6972L57.2758 80.8297Z" fill="#007AFF"/>
<path d="M65.4172 108.616L55.5801 98.7893L65.4172 88.9629L75.2543 98.7893L65.4172 108.616ZM57.2758 98.7893L65.4172 106.922L73.5585 98.7893L65.4172 90.6568L57.2758 98.7893Z" fill="#007AFF"/>
<path d="M83.3957 126.575L73.5586 116.748L83.3957 106.922L93.2328 116.748L83.3957 126.575ZM75.2544 116.748L83.3957 124.881L91.5377 116.748L83.3957 108.616L75.2544 116.748Z" fill="#007AFF"/>
<path d="M110.364 135.555L100.527 125.728L110.364 115.902L120.202 125.728L110.364 135.555ZM102.223 125.728L110.364 133.861L118.506 125.728L110.364 117.596L102.223 125.728Z" fill="#007AFF"/>
<path d="M128.343 135.554L118.506 125.728L128.343 115.902L138.18 125.728L128.343 135.554ZM120.201 125.728L128.342 133.861L136.484 125.728L128.342 117.596L120.201 125.728Z" fill="#007AFF"/>
<path d="M119.354 126.575L109.517 116.748L119.354 106.922L129.191 116.748L119.354 126.575ZM111.212 116.748L119.354 124.881L127.495 116.748L119.354 108.616L111.212 116.748Z" fill="#007AFF"/>
<path d="M92.3859 135.555L82.5488 125.728L92.3859 115.902L102.223 125.728L92.3859 135.555ZM84.244 125.728L92.3859 133.861L100.527 125.728L92.3859 117.596L84.244 125.728Z" fill="#007AFF"/>
<path d="M101.375 126.575L91.5381 116.748L101.375 106.922L111.212 116.748L101.375 126.575ZM93.2338 116.748L101.375 124.881L109.517 116.748L101.375 108.616L93.2338 116.748Z" fill="#007AFF"/>
<path d="M119.354 90.6563L109.517 80.8298L119.354 71.0034L129.191 80.8298L119.354 90.6563ZM111.212 80.8298L119.354 88.9623L127.495 80.8298L119.354 72.6973L111.212 80.8298Z" fill="#007AFF"/>
<path d="M92.3859 99.6362L82.5488 89.8098L92.3859 79.9834L102.223 89.8098L92.3859 99.6362ZM84.244 89.8098L92.3859 97.9429L100.527 89.8104L92.3859 81.6773L84.244 89.8098Z" fill="#007AFF"/>
<path d="M83.3957 108.616L73.5586 98.7893L83.3957 88.9629L93.2328 98.7893L83.3957 108.616ZM75.2544 98.7893L83.3957 106.922L91.5377 98.7893L83.3957 90.6562L75.2544 98.7893Z" fill="#007AFF"/>
<path d="M92.3859 117.595L82.5488 107.769L92.3859 97.9424L102.223 107.769L92.3859 117.595ZM84.244 107.769L92.3859 115.902L100.527 107.769L92.3859 99.6369L84.244 107.769Z" fill="#007AFF"/>
<path d="M155.311 144.534L145.474 134.707L155.311 124.881L165.148 134.707L155.311 144.534ZM147.169 134.707L155.311 142.84L163.452 134.707L155.311 126.575L147.169 134.707Z" fill="#007AFF"/>
<path d="M92.3859 81.6773L82.5488 71.8508L92.3859 62.0244L102.223 71.8508L92.3859 81.6773ZM84.244 71.8508L92.3859 79.9833L100.527 71.8508L92.3859 63.7183L84.244 71.8508Z" fill="#007AFF"/>
<path d="M164.3 171.472L154.463 161.646L164.3 151.82L174.137 161.646L164.3 171.472ZM156.159 161.647L164.3 169.779L172.441 161.647L164.3 153.514L156.159 161.647Z" fill="#007AFF"/>
<path d="M101.375 108.616L91.5381 98.7896L101.375 88.9631L111.212 98.7896L101.375 108.616ZM93.2338 98.7896L101.375 106.922L109.517 98.7896L101.375 90.6571L93.2338 98.7896Z" fill="#007AFF"/>
<path d="M110.364 81.6773L100.527 71.8508L110.364 62.0244L120.202 71.8508L110.364 81.6773ZM102.223 71.8508L110.364 79.9833L118.506 71.8508L110.364 63.7183L102.223 71.8508Z" fill="#007AFF"/>
<path d="M101.375 90.657L91.5381 80.8306L101.375 71.0042L111.212 80.8306L101.375 90.657ZM93.2338 80.83L101.375 88.9631L109.517 80.83L101.375 72.6975L93.2338 80.83Z" fill="#007AFF"/>
<path d="M110.364 117.595L100.527 107.769L110.364 97.9424L120.202 107.769L110.364 117.595ZM102.223 107.769L110.364 115.902L118.506 107.769L110.364 99.6369L102.223 107.769Z" fill="#007AFF"/>
<path d="M137.332 126.575L127.495 116.748L137.332 106.922L147.169 116.748L137.332 126.575ZM129.19 116.748L137.332 124.881L145.474 116.748L137.332 108.616L129.19 116.748Z" fill="#007AFF"/>
<path d="M110.364 99.6362L100.527 89.8098L110.364 79.9834L120.202 89.8098L110.364 99.6362ZM102.223 89.8104L110.364 97.9429L118.506 89.8098L110.364 81.6773L102.223 89.8104Z" fill="#007AFF"/>
<path d="M119.354 108.616L109.517 98.7896L119.354 88.9631L129.191 98.7896L119.354 108.616ZM111.212 98.7896L119.354 106.922L127.495 98.7896L119.354 90.6565L111.212 98.7896Z" fill="#007AFF"/>
<path d="M110.364 63.7183L100.527 53.8918L110.364 44.0654L120.202 53.8918L110.364 63.7183ZM102.223 53.8918L110.364 62.0244L118.506 53.8918L110.364 45.7593L102.223 53.8918Z" fill="#007AFF"/>
<path d="M47.4397 126.575L37.6025 116.748L47.4397 106.922L57.2768 116.748L47.4397 126.575ZM39.2977 116.748L47.4397 124.881L55.581 116.748L47.4397 108.616L39.2977 116.748Z" fill="#007AFF"/>
<path d="M56.4279 117.595L46.5908 107.769L56.4279 97.9421L66.2651 107.769L56.4279 117.595ZM48.2866 107.769L56.4279 115.902L64.5693 107.769L56.4279 99.6367L48.2866 107.769Z" fill="#007AFF"/>
<path d="M56.4279 99.636L46.5908 89.8096L56.4279 79.9832L66.2651 89.8096L56.4279 99.636ZM48.2866 89.8096L56.4279 97.9427L64.5693 89.8102L56.4279 81.6771L48.2866 89.8096Z" fill="#007AFF"/>
<path d="M47.4397 108.616L37.6025 98.7893L47.4397 88.9629L57.2768 98.7893L47.4397 108.616ZM39.2977 98.7893L47.4397 106.922L55.581 98.7893L47.4397 90.6562L39.2977 98.7893Z" fill="#007AFF"/>
<path d="M47.4397 72.6973L37.6025 62.8709L47.4397 53.0444L57.2768 62.8709L47.4397 72.6973ZM39.2977 62.8709L47.4397 71.0034L55.581 62.8709L47.4397 54.7384L39.2977 62.8709Z" fill="#007AFF"/>
<path d="M56.4279 63.7183L46.5908 53.8918L56.4279 44.0654L66.2651 53.8918L56.4279 63.7183ZM48.2866 53.8918L56.4279 62.0244L64.5693 53.8918L56.4279 45.7593L48.2866 53.8918Z" fill="#007AFF"/>
<path d="M47.4397 90.6563L37.6025 80.8298L47.4397 71.0034L57.2768 80.8298L47.4397 90.6563ZM39.2977 80.8298L47.4397 88.9623L55.581 80.8298L47.4397 72.6973L39.2977 80.8298Z" fill="#007AFF"/>
<path d="M56.4279 81.6773L46.5908 71.8508L56.4279 62.0244L66.2651 71.8508L56.4279 81.6773ZM48.2866 71.8508L56.4279 79.9833L64.5693 71.8508L56.4279 63.7183L48.2866 71.8508Z" fill="#007AFF"/>
<path d="M173.289 72.6973L163.452 62.8709L173.289 53.0444L183.126 62.8709L173.289 72.6973ZM165.148 62.8709L173.289 71.0034L181.431 62.8709L173.289 54.7384L165.148 62.8709Z" fill="#007AFF"/>
<path d="M56.4279 135.554L46.5908 125.728L56.4279 115.902L66.2651 125.728L56.4279 135.554ZM48.2866 125.728L56.4279 133.861L64.5693 125.728L56.4279 117.596L48.2866 125.728Z" fill="#007AFF"/>
<path d="M65.4172 144.534L55.5801 134.707L65.4172 124.881L75.2543 134.707L65.4172 144.534ZM57.2758 134.707L65.4172 142.84L73.5585 134.707L65.4172 126.575L57.2758 134.707Z" fill="#007AFF"/>
<path d="M128.343 117.595L118.506 107.769L128.343 97.9421L138.18 107.769L128.343 117.595ZM120.201 107.769L128.342 115.902L136.484 107.769L128.342 99.6367L120.201 107.769Z" fill="#007AFF"/>
<path d="M56.4279 153.513L46.5908 143.687L56.4279 133.861L66.2651 143.687L56.4279 153.513ZM48.2866 143.688L56.4279 151.82L64.5693 143.687L56.4279 135.555L48.2866 143.688Z" fill="#007AFF"/>
<path d="M47.4397 144.534L37.6025 134.708L47.4397 124.881L57.2768 134.708L47.4397 144.534ZM39.2977 134.707L47.4397 142.84L55.581 134.707L47.4397 126.575L39.2977 134.707Z" fill="#007AFF"/>
<path d="M83.3957 144.534L73.5586 134.707L83.3957 124.881L93.2328 134.707L83.3957 144.534ZM75.2544 134.707L83.3957 142.84L91.5377 134.707L83.3957 126.575L75.2544 134.707Z" fill="#007AFF"/>
<path d="M137.332 90.6563L127.495 80.8298L137.332 71.0034L147.169 80.8298L137.332 90.6563ZM129.19 80.8298L137.332 88.9623L145.474 80.8298L137.332 72.6973L129.19 80.8298Z" fill="#007AFF"/>
<path d="M128.343 81.6773L118.506 71.8508L128.343 62.0244L138.18 71.8508L128.343 81.6773ZM120.201 71.8508L128.342 79.9833L136.484 71.8508L128.342 63.7183L120.201 71.8508Z" fill="#007AFF"/>
<path d="M128.343 63.7183L118.506 53.8918L128.343 44.0654L138.18 53.8918L128.343 63.7183ZM120.201 53.8918L128.342 62.0244L136.484 53.8918L128.342 45.7593L120.201 53.8918Z" fill="#007AFF"/>
<path d="M137.332 72.6975L127.495 62.8711L137.332 53.0447L147.169 62.8711L137.332 72.6975ZM129.191 62.8711L137.332 71.0036L145.474 62.8711L137.333 54.7386L129.191 62.8711Z" fill="#007AFF"/>
<path d="M137.332 108.616L127.495 98.7893L137.332 88.9629L147.169 98.7893L137.332 108.616ZM129.19 98.7893L137.332 106.922L145.474 98.7893L137.332 90.6562L129.19 98.7893Z" fill="#007AFF"/>
<path d="M128.343 99.636L118.506 89.8096L128.343 79.9832L138.18 89.8096L128.343 99.636ZM120.201 89.8096L128.342 97.9427L136.484 89.8096L128.342 81.6771L120.201 89.8096Z" fill="#007AFF"/>
<path d="M119.354 72.6975L109.517 62.8711L119.354 53.0447L129.191 62.8711L119.354 72.6975ZM111.212 62.8711L119.354 71.0036L127.495 62.8711L119.354 54.7386L111.212 62.8711Z" fill="#007AFF"/>
<path d="M92.3859 63.7183L82.5488 53.8918L92.3859 44.0654L102.223 53.8918L92.3859 63.7183ZM84.244 53.8918L92.3859 62.0244L100.527 53.8918L92.3859 45.7593L84.244 53.8918Z" fill="#007AFF"/>
<path d="M83.3957 72.6973L73.5586 62.8709L83.3957 53.0444L93.2328 62.8709L83.3957 72.6973ZM75.2544 62.8709L83.3957 71.0034L91.5377 62.8709L83.3957 54.7384L75.2544 62.8709Z" fill="#007AFF"/>
<path d="M65.4172 72.6973L55.5801 62.8709L65.4172 53.0444L75.2543 62.8709L65.4172 72.6973ZM57.2758 62.8709L65.4172 71.0034L73.5585 62.8709L65.4172 54.7384L57.2758 62.8709Z" fill="#007AFF"/>
<path d="M74.4074 63.7183L64.5703 53.8918L74.4074 44.0654L84.2445 53.8918L74.4074 63.7183ZM66.2655 53.8918L74.4068 62.0244L82.5482 53.8918L74.4068 45.7593L66.2655 53.8918Z" fill="#007AFF"/>
<path d="M101.375 72.6975L91.5381 62.8711L101.375 53.0447L111.212 62.8711L101.375 72.6975ZM93.2338 62.8711L101.375 71.0036L109.517 62.8711L101.375 54.7386L93.2338 62.8711Z" fill="#007AFF"/>
<path d="M92.3859 153.514L82.5488 143.687L92.3859 133.861L102.223 143.687L92.3859 153.514ZM84.244 143.687L92.3859 151.82L100.527 143.687L92.3859 135.555L84.244 143.687Z" fill="#007AFF"/>
<path d="M83.3957 18.82L73.5586 8.99353L74.158 8.39476L74.4266 8.375H92.6112L93.2166 8.97078L92.8096 9.41686L83.3957 18.82ZM75.834 9.57254L83.3957 17.1266L90.958 9.57254H75.834Z" fill="#007AFF"/>
<path d="M56.4284 9.84073L54.9814 8.39476L57.8562 8.375L56.4284 9.84073Z" fill="#007AFF"/>
<path d="M2.49225 81.6772L1.89283 81.0784L1.87305 80.8107V62.6434L2.47247 62.0447L2.91604 62.4482L12.3294 71.8513L2.49225 81.6772ZM3.07189 64.2966V79.4042L10.6336 71.8501L3.07189 64.2966Z" fill="#007AFF"/>
<path d="M101.375 18.82L91.5381 8.99353L92.1375 8.39476L92.406 8.375H110.593L111.193 8.97377L110.789 9.41686L101.375 18.82ZM93.8129 9.57254L101.375 17.1266L108.936 9.57254H93.8129Z" fill="#007AFF"/>
<path d="M65.4172 18.82L55.5801 8.99353L56.1795 8.39476L56.448 8.375H74.6351L75.2345 8.97377L74.8305 9.41686L65.4172 18.82ZM57.8555 9.57254L65.4172 17.1266L72.9789 9.57254H57.8555Z" fill="#007AFF"/>
<path d="M92.3888 9.83714L90.9238 8.39476L93.8129 8.375L92.3888 9.83714Z" fill="#007AFF"/>
<path d="M74.4075 9.84073L72.96 8.39476L75.8347 8.375L74.4075 9.84073Z" fill="#007AFF"/>
<path d="M29.4598 18.8196L25.7783 15.1421L26.4592 14.753C29.5605 12.9807 32.826 11.558 36.1659 10.5258L38.4796 9.8103L29.4598 18.8196ZM27.7401 15.408L29.4604 17.1264L34.098 12.4939C31.9269 13.3004 29.7985 14.2758 27.7401 15.408Z" fill="#007AFF"/>
<path d="M38.4494 27.7999L28.6123 17.9735L36.0242 10.5697L36.1656 10.526C37.1804 10.2116 38.2822 9.91825 39.5338 9.62904L39.8581 9.5542L48.2871 17.9735L38.45 27.7999H38.4494ZM30.3081 17.9735L38.4494 26.106L46.5914 17.9735L39.4816 10.8715C38.4482 11.1164 37.5215 11.3649 36.6619 11.6271L30.3081 17.9735Z" fill="#007AFF"/>
<path d="M11.4812 54.7383L3.05273 46.319L3.12766 45.995C3.41718 44.746 3.7109 43.6455 4.0256 42.6306L4.06935 42.4892L11.4812 35.0854L21.3183 44.9119L11.4812 54.7383ZM4.37146 45.9424L11.4812 53.0444L19.6226 44.9119L11.4812 36.7788L5.12733 43.1257C4.86479 43.985 4.61663 44.9107 4.37146 45.9424Z" fill="#007AFF"/>
<path d="M2.49225 63.7182L1.89283 63.1194L1.87305 62.8518V56.876C1.87305 53.2487 2.29504 49.5884 3.12824 45.9958L3.3716 44.9443L12.3294 53.8924L2.49225 63.7182ZM4.06274 47.3274C3.40517 50.489 3.07189 53.696 3.07189 56.8754V61.4453L10.6336 53.8912L4.06214 47.3268L4.06274 47.3274Z" fill="#007AFF"/>
<path d="M20.4711 27.7994L15.7119 23.0447L16.1357 22.6214C19.1902 19.5696 22.6637 16.9225 26.4597 14.7533L26.8571 14.5264L30.3078 17.9733L20.4711 27.7994ZM17.4094 23.0477L20.4711 26.1061L28.6121 17.9739L26.6581 16.022C23.2835 17.9931 20.1762 20.3534 17.4094 23.0477Z" fill="#007AFF"/>
<path d="M1.89283 64.3169L1.87305 61.4453L3.34037 62.8709L1.89283 64.3169Z" fill="#007AFF"/>
<path d="M3.30957 44.9416L4.02585 42.6304C5.05921 39.2942 6.48338 36.0322 8.2576 32.9343L8.64721 32.2542L12.3293 35.9316L3.31017 44.941L3.30957 44.9416ZM8.91334 34.2138C7.77928 36.2699 6.80286 38.3961 5.99607 40.5647L10.6336 35.9322L8.91334 34.2138Z" fill="#007AFF"/>
<path d="M11.4816 36.7783L8.03027 33.3313L8.25804 32.9344C10.4303 29.1425 13.0802 25.6728 16.1347 22.6216L16.5585 22.1982L21.3183 26.9529L11.4816 36.7783ZM9.52757 33.1331L11.4816 35.0851L19.6226 26.9529L16.5609 23.8945C13.8636 26.6583 11.5008 29.7622 9.52697 33.1331H9.52757Z" fill="#007AFF"/>
<path d="M47.4392 18.8201L38.4814 9.87204L39.534 9.62834C43.1306 8.79664 46.7948 8.37451 50.4261 8.37451H56.6565L57.2559 8.97328L56.8519 9.41637L47.4386 18.8195L47.4392 18.8201ZM40.8677 10.5624L47.4392 17.1267L55.0009 9.57265H50.4261C47.2426 9.57265 44.0327 9.90557 40.8677 10.5624Z" fill="#007AFF"/>
<path d="M173.289 54.7383L163.452 44.9119L173.289 35.0854L180.701 42.4892L180.745 42.6306C181.06 43.6479 181.354 44.7484 181.643 45.995L181.718 46.3184L173.289 54.7383ZM165.148 44.9119L173.289 53.0444L180.399 45.9424C180.154 44.9125 179.906 43.9868 179.643 43.1257L173.289 36.7788L165.148 44.9119Z" fill="#007AFF"/>
<path d="M182.299 63.698L181.856 63.2945L172.442 53.8914L181.4 44.9434L181.644 45.9948C182.477 49.5874 182.899 53.2483 182.899 56.8751V63.0987L182.299 63.698ZM174.138 53.892L181.7 61.4461V56.8763C181.7 53.6968 181.367 50.4898 180.709 47.3283L174.138 53.892Z" fill="#007AFF"/>
<path d="M181.462 44.9417L172.442 35.9324L176.124 32.2549L176.514 32.9351C178.288 36.033 179.712 39.2949 180.746 42.6312L181.462 44.9423L181.462 44.9417ZM174.137 35.9324L178.775 40.5649C177.968 38.3962 176.991 36.2701 175.858 34.214L174.137 35.9324Z" fill="#007AFF"/>
<path d="M182.898 82.2553L181.431 80.8297L182.878 79.3843L182.898 82.2553Z" fill="#007AFF"/>
<path d="M173.289 36.7784L163.452 26.9524L168.212 22.1978L168.636 22.6211C171.691 25.6729 174.341 29.1426 176.512 32.9339L176.74 33.3308L173.289 36.7784ZM165.148 26.953L173.289 35.0852L175.243 33.1333C173.27 29.7629 170.907 26.659 168.21 23.8946L165.148 26.953Z" fill="#007AFF"/>
<path d="M182.299 81.657L181.856 81.2534L172.442 71.8504L182.28 62.0239L182.879 62.6227L182.899 62.8903V81.0576L182.299 81.657ZM174.138 71.8509L181.7 79.405V64.2975L174.138 71.8509Z" fill="#007AFF"/>
<path d="M182.898 64.2968L181.431 62.8712L182.878 61.4258L182.898 64.2968Z" fill="#007AFF"/>
<path d="M137.332 18.82L127.495 8.99353L128.095 8.39476L128.363 8.375H134.345C137.976 8.375 141.641 8.79653 145.237 9.62882L146.289 9.87253L137.332 18.82ZM129.77 9.57254L137.332 17.1266L143.904 10.5623C140.738 9.90546 137.528 9.57254 134.345 9.57254H129.77Z" fill="#007AFF"/>
<path d="M110.364 9.84073L108.917 8.39476L111.792 8.375L110.364 9.84073Z" fill="#007AFF"/>
<path d="M128.343 9.84073L126.896 8.39476L129.77 8.375L128.343 9.84073Z" fill="#007AFF"/>
<path d="M119.354 18.82L109.517 8.99353L110.116 8.39476L110.385 8.375H128.572L129.171 8.97377L128.767 9.41686L119.354 18.82ZM111.792 9.57254L119.354 17.1266L126.915 9.57254H111.791H111.792Z" fill="#007AFF"/>
<path d="M155.311 18.8199L146.292 9.81055L148.606 10.526C151.946 11.5583 155.211 12.9809 158.312 14.7532L158.993 15.1424L155.312 18.8199H155.311ZM150.674 12.4941L155.311 17.1266L157.031 15.4082C154.973 14.276 152.845 13.3 150.674 12.4941Z" fill="#007AFF"/>
<path d="M164.3 27.7994L154.463 17.9733L157.914 14.5264L158.311 14.7533C162.106 16.922 165.579 19.5696 168.635 22.6214L169.059 23.0447L164.299 27.7994H164.3ZM156.159 17.9733L164.3 26.1055L167.361 23.0471C164.593 20.3522 161.486 17.9919 158.112 16.0214L156.159 17.9733Z" fill="#007AFF"/>
<path d="M146.321 27.7999L136.484 17.9735L144.913 9.5542L145.237 9.62904C146.488 9.91885 147.59 10.2122 148.605 10.526L148.747 10.5697L156.159 17.9735L146.321 27.7999ZM138.18 17.9735L146.321 26.106L154.463 17.9735L148.109 11.6265C147.249 11.3643 146.323 11.1158 145.289 10.8709L138.18 17.9729L138.18 17.9735Z" fill="#007AFF"/>
<path d="M92.405 189.204H90.958L92.3882 187.735L93.8177 189.183L92.405 189.204Z" fill="#007AFF"/>
<path d="M110.385 189.204H108.952L110.364 187.732L111.797 189.183L110.385 189.204Z" fill="#007AFF"/>
<path d="M1.89283 82.2758L1.87305 79.4048L3.34037 80.8298L1.89283 82.2758Z" fill="#007AFF"/>
<path d="M92.3655 189.204H74.1761L73.582 188.602L73.983 188.161L83.3964 178.758L93.2335 188.585L92.6341 189.184L92.3655 189.204ZM75.8335 188.006H90.9581L83.3958 180.452L75.8335 188.006Z" fill="#007AFF"/>
<path d="M56.4482 189.204H55.0156L56.4278 187.732L57.8604 189.183L56.4482 189.204Z" fill="#007AFF"/>
<path d="M56.4084 189.204H50.4261C46.796 189.204 43.1312 188.782 39.534 187.95L38.4814 187.706L47.4392 178.758L57.2733 188.582L56.6793 189.184L56.4084 189.204ZM40.8677 187.017C44.0333 187.673 47.2438 188.006 50.4261 188.006H55.0015L47.4392 180.452L40.8677 187.017Z" fill="#007AFF"/>
<path d="M74.387 189.204H56.1975L55.6035 188.602L56.0045 188.161L65.4179 178.758L75.252 188.582L74.6579 189.184L74.387 189.204ZM57.8555 188.006H72.9802L65.4179 180.452L57.8555 188.006Z" fill="#007AFF"/>
<path d="M74.4267 189.204H72.9941L74.4069 187.732L75.8389 189.183L74.4267 189.204Z" fill="#007AFF"/>
<path d="M146.292 187.768L155.311 178.759L158.992 182.437L158.311 182.826C155.21 184.598 151.945 186.021 148.605 187.053L146.291 187.769L146.292 187.768ZM155.311 180.452L150.673 185.085C152.844 184.278 154.972 183.303 157.03 182.17L155.311 180.452Z" fill="#007AFF"/>
<path d="M128.323 189.204H110.133L109.539 188.602L109.94 188.161L119.353 178.758L129.188 188.582L128.593 189.184L128.323 189.204ZM111.791 188.006H126.916L119.353 180.452L111.791 188.006Z" fill="#007AFF"/>
<path d="M144.913 188.025L136.484 179.605L146.321 169.779L156.159 179.605L148.747 187.009L148.605 187.053C147.589 187.367 146.488 187.66 145.237 187.95L144.913 188.025ZM138.18 179.605L145.29 186.707C146.323 186.463 147.249 186.215 148.11 185.952L154.463 179.605L146.322 171.473L138.181 179.605H138.18Z" fill="#007AFF"/>
<path d="M182.302 99.6195L181.856 99.2129L172.442 89.8098L182.28 79.9834L182.879 80.5822L182.899 80.8498V99.0147L182.302 99.6195ZM174.138 89.8098L181.7 97.3639V82.2557L174.138 89.8098Z" fill="#007AFF"/>
<path d="M134.345 189.204H128.112L127.518 188.602L127.919 188.161L137.332 178.758L146.289 187.706L145.236 187.95C141.639 188.782 137.974 189.204 134.345 189.204ZM129.77 188.006H134.345C137.527 188.006 140.738 187.673 143.903 187.017L137.332 180.452L129.77 188.006Z" fill="#007AFF"/>
<path d="M128.363 189.204H126.931L128.343 187.732L129.775 189.183L128.363 189.204Z" fill="#007AFF"/>
<path d="M110.344 189.204H92.1546L91.5605 188.602L91.9616 188.161L101.375 178.758L111.209 188.582L110.615 189.184L110.344 189.204ZM93.8126 188.006H108.937L101.375 180.452L93.8126 188.006Z" fill="#007AFF"/>
<path d="M2.49225 117.595L1.89283 116.996L1.87305 116.729V98.5614L2.47247 97.9626L2.91604 98.3662L12.3294 107.769L2.49225 117.596V117.595ZM3.07189 100.215V115.323L10.6336 107.769L3.07189 100.215Z" fill="#007AFF"/>
<path d="M1.89283 136.168L1.87305 133.282L3.33738 134.704L1.89283 136.168Z" fill="#007AFF"/>
<path d="M2.49225 135.555L1.89283 134.956L1.87305 134.688V116.521L2.47247 115.922L2.91604 116.326L12.3294 125.729L2.49225 135.555V135.555ZM3.07189 118.174V133.282L10.6336 125.728L3.07189 118.174Z" fill="#007AFF"/>
<path d="M1.89283 118.194L1.87305 115.323L3.34037 116.748L1.89283 118.194Z" fill="#007AFF"/>
<path d="M2.48925 99.6396L1.89283 99.0349L1.87305 98.769V80.6017L2.47247 80.0029L2.91604 80.4065L12.3294 89.8096L2.48925 99.6396ZM3.07189 82.2561V97.3643L10.6336 89.8102L3.07189 82.2561Z" fill="#007AFF"/>
<path d="M39.8581 188.025L39.5338 187.95C38.2834 187.661 37.1816 187.367 36.1656 187.053L36.0242 187.009L28.6123 179.605L38.4494 169.779L48.2865 179.605L39.8581 188.025ZM36.6613 185.952C37.5215 186.215 38.4482 186.463 39.481 186.707L46.5908 179.605L38.4488 171.473L30.3075 179.605L36.6613 185.952Z" fill="#007AFF"/>
<path d="M1.89283 100.235L1.87305 97.3489L3.33738 98.7925L1.89283 100.235Z" fill="#007AFF"/>
<path d="M16.5585 175.38L16.1347 174.957C13.0802 171.905 10.4297 168.436 8.25804 164.644L8.03027 164.247L11.4816 160.8L21.3183 170.626L16.5585 175.38V175.38ZM9.52757 164.445C11.5008 167.817 13.8642 170.92 16.5615 173.684L19.6232 170.626L11.4822 162.494L9.52817 164.446L9.52757 164.445Z" fill="#007AFF"/>
<path d="M26.8561 183.053L26.4587 182.825C22.6621 180.655 19.1886 178.008 16.1347 174.957L15.7109 174.534L20.4702 169.779L30.3069 179.605L26.8561 183.053ZM17.409 174.531C20.1753 177.225 23.2825 179.586 26.6577 181.557L28.6118 179.605L20.4702 171.473L17.4084 174.531H17.409Z" fill="#007AFF"/>
<path d="M38.4796 187.768L36.1659 187.053C32.826 186.02 29.5605 184.598 26.4592 182.826L25.7783 182.436L29.4598 178.758L38.479 187.768L38.4796 187.768ZM27.7407 182.171C29.7991 183.303 31.9281 184.279 34.0986 185.085L29.4604 180.452L27.7407 182.171Z" fill="#007AFF"/>
<path d="M8.64721 165.324L8.2576 164.643C6.48338 161.546 5.05921 158.284 4.02585 154.947L3.30957 152.636L12.3287 161.646L8.64661 165.323L8.64721 165.324ZM5.99547 157.013C6.80226 159.182 7.77928 161.308 8.91274 163.364L10.633 161.646L5.99547 157.013Z" fill="#007AFF"/>
<path d="M11.4812 162.493L4.06935 155.089L4.0256 154.948C3.7115 153.933 3.41778 152.833 3.12766 151.584L3.05273 151.26L11.4812 142.84L21.3183 152.667L11.4812 162.493ZM5.12733 154.452L11.4812 160.799L19.6226 152.667L11.4812 144.534L4.37146 151.636C4.61663 152.668 4.86479 153.594 5.12733 154.453V154.452Z" fill="#007AFF"/>
<path d="M3.3716 152.635L3.12824 151.584C2.29564 147.991 1.87305 144.331 1.87305 140.704V134.483L2.46947 133.878L2.91604 134.284L12.3294 143.688L3.3716 152.635ZM3.07189 136.133V140.704C3.07189 143.883 3.40457 147.09 4.06274 150.252L10.6342 143.688L3.07189 136.133Z" fill="#007AFF"/>
<path d="M155.311 36.7788L145.474 26.9524L155.311 17.126L165.148 26.9524L155.311 36.7788ZM147.169 26.953L155.311 35.0855L163.452 26.953L155.311 18.8205L147.169 26.953Z" fill="#007AFF"/>
<path d="M29.4602 54.7385L19.623 44.9121L29.4602 35.0857L39.2973 44.9121L29.4602 54.7385ZM21.3188 44.9121L29.4602 53.0446L37.6015 44.9121L29.4602 36.779L21.3188 44.9121Z" fill="#007AFF"/>
<path d="M20.4709 45.7588L10.6338 35.9324L20.4709 26.106L30.308 35.9324L20.4709 45.7588ZM12.329 35.9324L20.4703 44.0655L28.6117 35.9324L20.4703 27.7999L12.329 35.9324Z" fill="#007AFF"/>
<path d="M182.898 100.215L181.435 98.7924L182.879 97.3291L182.898 100.215Z" fill="#007AFF"/>
<path d="M38.4494 45.7588L28.6123 35.9324L38.4494 26.106L48.2865 35.9324L38.4494 45.7588ZM30.3081 35.9324L38.4494 44.0655L46.5914 35.9324L38.4494 27.7999L30.3081 35.9324Z" fill="#007AFF"/>
<path d="M47.4397 36.7788L37.6025 26.9524L47.4397 17.126L57.2768 26.9524L47.4397 36.7788ZM39.2977 26.953L47.4397 35.0855L55.581 26.953L47.4397 18.8205L39.2977 26.953Z" fill="#007AFF"/>
<path d="M11.4816 72.6975L1.64453 62.8711L11.4816 53.0447L21.3188 62.8711L11.4816 72.6975ZM3.3403 62.8711L11.4816 71.0036L19.623 62.8711L11.4816 54.7386L3.3403 62.8711Z" fill="#007AFF"/>
<path d="M56.4279 27.7998L46.5908 17.9734L56.4279 8.14697L66.2651 17.9734L56.4279 27.7998ZM48.2866 17.9734L56.4279 26.1059L64.5693 17.9734L56.4279 9.84089L48.2866 17.9734Z" fill="#007AFF"/>
<path d="M29.4602 36.7791L19.623 26.9526L29.4602 17.1262L39.2973 26.9526L29.4602 36.7791ZM21.3188 26.9532L29.4602 35.0857L37.6015 26.9532L29.4602 18.8207L21.3188 26.9532Z" fill="#007AFF"/>
<path d="M11.4816 108.616L1.64453 98.7896L11.4816 88.9631L21.3188 98.7896L11.4816 108.616ZM3.3403 98.7896L11.4816 106.922L19.623 98.7896L11.4816 90.6571L3.3403 98.7896Z" fill="#007AFF"/>
<path d="M20.4709 117.595L10.6338 107.769L20.4709 97.9424L30.308 107.769L20.4709 117.595ZM12.329 107.769L20.4703 115.902L28.6117 107.769L20.4703 99.6369L12.329 107.769Z" fill="#007AFF"/>
<path d="M20.4709 81.6773L10.6338 71.8508L20.4709 62.0244L30.308 71.8508L20.4709 81.6773ZM12.329 71.8508L20.4703 79.9833L28.6117 71.8508L20.4703 63.7183L12.329 71.8508Z" fill="#007AFF"/>
<path d="M11.4816 126.575L1.64453 116.748L11.4816 106.922L21.3188 116.748L11.4816 126.575ZM3.3403 116.748L11.4816 124.881L19.623 116.748L11.4816 108.616L3.3403 116.748Z" fill="#007AFF"/>
<path d="M11.4816 90.657L1.64453 80.8306L11.4816 71.0042L21.3188 80.8306L11.4816 90.657ZM3.3403 80.83L11.4816 88.9631L19.623 80.83L11.4816 72.6975L3.3403 80.83Z" fill="#007AFF"/>
<path d="M20.4709 99.6362L10.6338 89.8098L20.4709 79.9834L30.308 89.8098L20.4709 99.6362ZM12.329 89.8104L20.4703 97.9429L28.6117 89.8104L20.4703 81.6773L12.329 89.8104Z" fill="#007AFF"/>
<path d="M110.364 27.7998L100.527 17.9734L110.364 8.14697L120.202 17.9734L110.364 27.7998ZM102.223 17.9734L110.364 26.1059L118.506 17.9734L110.364 9.84089L102.223 17.9734Z" fill="#007AFF"/>
<path d="M146.321 45.7588L136.484 35.9324L146.321 26.106L156.159 35.9324L146.321 45.7588ZM138.18 35.9324L146.321 44.0655L154.463 35.9324L146.321 27.7999L138.18 35.9324Z" fill="#007AFF"/>
<path d="M137.332 36.7791L127.495 26.9526L137.332 17.1262L147.169 26.9526L137.332 36.7791ZM129.191 26.9532L137.332 35.0857L145.474 26.9532L137.333 18.8207L129.191 26.9532Z" fill="#007AFF"/>
<path d="M65.4172 36.7788L55.5801 26.9524L65.4172 17.126L75.2543 26.9524L65.4172 36.7788ZM57.2758 26.953L65.4172 35.0855L73.5585 26.953L65.4172 18.8205L57.2758 26.953Z" fill="#007AFF"/>
<path d="M164.3 45.7588L154.463 35.9324L164.3 26.106L174.137 35.9324L164.3 45.7588ZM156.159 35.9324L164.3 44.0655L172.441 35.9324L164.3 27.7999L156.159 35.9324Z" fill="#007AFF"/>
<path d="M155.311 54.7383L145.474 44.9119L155.311 35.0854L165.148 44.9119L155.311 54.7383ZM147.169 44.9119L155.311 53.0444L163.452 44.9119L155.311 36.7788L147.169 44.9119Z" fill="#007AFF"/>
<path d="M128.343 27.7998L118.506 17.9734L128.343 8.14697L138.18 17.9734L128.343 27.7998ZM120.201 17.9734L128.342 26.1059L136.484 17.9734L128.342 9.84089L120.201 17.9734Z" fill="#007AFF"/>
<path d="M164.3 63.7183L154.463 53.8918L164.3 44.0654L174.137 53.8918L164.3 63.7183ZM156.159 53.8918L164.3 62.0244L172.441 53.8918L164.3 45.7593L156.159 53.8918Z" fill="#007AFF"/>
<path d="M119.354 36.7791L109.517 26.9526L119.354 17.1262L129.191 26.9526L119.354 36.7791ZM111.212 26.9532L119.354 35.0857L127.495 26.9532L119.354 18.8207L111.212 26.9532Z" fill="#007AFF"/>
<path d="M83.3957 36.7788L73.5586 26.9524L83.3957 17.126L93.2328 26.9524L83.3957 36.7788ZM75.2544 26.953L83.3957 35.0855L91.5377 26.953L83.3957 18.8205L75.2544 26.953Z" fill="#007AFF"/>
<path d="M74.4074 27.7998L64.5703 17.9734L74.4074 8.14697L84.2445 17.9734L74.4074 27.7998ZM66.2655 17.9734L74.4068 26.1059L82.5482 17.9734L74.4068 9.84089L66.2655 17.9734Z" fill="#007AFF"/>
<path d="M92.3859 27.7998L82.5488 17.9734L92.3859 8.14697L102.223 17.9734L92.3859 27.7998ZM84.244 17.9734L92.3859 26.1059L100.527 17.9734L92.3859 9.84089L84.244 17.9734Z" fill="#007AFF"/>
<path d="M20.4709 135.555L10.6338 125.728L20.4709 115.902L30.308 125.728L20.4709 135.555ZM12.329 125.728L20.4703 133.861L28.6117 125.728L20.4703 117.596L12.329 125.728Z" fill="#007AFF"/>
<path d="M101.375 36.7791L91.5381 26.9526L101.375 17.1262L111.212 26.9526L101.375 36.7791ZM93.2338 26.9532L101.375 35.0857L109.517 26.9532L101.375 18.8207L93.2338 26.9532Z" fill="#007AFF"/>
<path d="M20.4709 63.7183L10.6338 53.8918L20.4709 44.0654L30.308 53.8918L20.4709 63.7183ZM12.329 53.8918L20.4703 62.0244L28.6117 53.8918L20.4703 45.7593L12.329 53.8918Z" fill="#007AFF"/>
<path d="M176.124 165.324L172.441 161.646L181.461 152.637L180.745 154.948C179.711 158.284 178.288 161.546 176.513 164.644L176.124 165.324V165.324ZM174.137 161.646L175.857 163.365C176.991 161.308 177.968 159.182 178.775 157.014L174.137 161.646Z" fill="#007AFF"/>
<path d="M168.212 175.38L163.452 170.625L173.289 160.799L176.74 164.246L176.512 164.643C174.341 168.435 171.691 171.904 168.636 174.956L168.212 175.379V175.38ZM165.148 170.625L168.21 173.684C170.907 170.919 173.27 167.815 175.243 164.444L173.289 162.493L165.148 170.625Z" fill="#007AFF"/>
<path d="M155.311 180.452L145.474 170.626L155.311 160.799L165.148 170.626L155.311 180.452ZM147.169 170.626L155.311 178.758L163.452 170.626L155.311 162.493L147.169 170.626Z" fill="#007AFF"/>
<path d="M157.915 183.053L154.464 179.605L164.301 169.779L169.06 174.534L168.637 174.957C165.582 178.008 162.108 180.656 158.313 182.825L157.915 183.053H157.915ZM156.159 179.605L158.113 181.557C161.488 179.586 164.595 177.226 167.362 174.532L164.301 171.473L156.159 179.605Z" fill="#007AFF"/>
<path d="M146.321 171.472L136.484 161.646L146.321 151.82L156.159 161.646L146.321 171.472ZM138.18 161.647L146.321 169.779L154.463 161.647L146.321 153.514L138.18 161.647Z" fill="#007AFF"/>
<path d="M119.354 180.452L109.517 170.626L119.354 160.799L129.191 170.626L119.354 180.452ZM111.212 170.626L119.354 178.758L127.495 170.626L119.354 162.493L111.212 170.626Z" fill="#007AFF"/>
<path d="M137.332 180.452L127.495 170.626L137.332 160.799L147.169 170.626L137.332 180.452ZM129.19 170.626L137.332 178.758L145.474 170.626L137.332 162.493L129.19 170.626Z" fill="#007AFF"/>
<path d="M128.343 189.432L118.506 179.605L128.343 169.779L138.18 179.605L128.343 189.432ZM120.201 179.605L128.342 187.738L136.484 179.605L128.342 171.473L120.201 179.605Z" fill="#007AFF"/>
<path d="M182.898 118.174L181.431 116.748L182.878 115.303L182.898 118.174Z" fill="#007AFF"/>
<path d="M182.299 135.534L181.856 135.13L172.442 125.727L182.28 115.901L182.879 116.5L182.899 116.767V134.935L182.299 135.533V135.534ZM174.138 125.728L181.7 133.282V118.174L174.138 125.728Z" fill="#007AFF"/>
<path d="M182.299 117.575L181.856 117.172L172.442 107.769L182.28 97.9424L182.879 98.5412L182.899 98.8088V116.976L182.299 117.575ZM174.138 107.769L181.7 115.323V100.216L174.138 107.77V107.769Z" fill="#007AFF"/>
<path d="M173.289 162.493L163.452 152.667L173.289 142.84L181.718 151.26L181.643 151.583C181.354 152.83 181.06 153.93 180.745 154.947L180.701 155.089L173.289 162.493ZM165.148 152.667L173.289 160.799L179.643 154.452C179.906 153.591 180.155 152.666 180.399 151.636L173.289 144.534L165.148 152.667Z" fill="#007AFF"/>
<path d="M182.898 136.149L181.435 134.704L182.879 133.262L182.898 136.149Z" fill="#007AFF"/>
<path d="M181.399 152.635L172.441 143.687L182.282 133.858L182.878 134.462L182.898 134.728V140.704C182.898 144.331 182.475 147.991 181.643 151.584L181.399 152.635ZM174.137 143.687L180.709 150.251C181.366 147.089 181.699 143.883 181.699 140.703V136.133L174.137 143.687Z" fill="#007AFF"/>
<path d="M11.4816 144.534L1.64453 134.708L11.4816 124.881L21.3188 134.708L11.4816 144.534ZM3.3403 134.707L11.4816 142.84L19.623 134.707L11.4816 126.575L3.3403 134.707Z" fill="#007AFF"/>
<path d="M29.4602 180.452L19.623 170.626L29.4602 160.799L39.2973 170.626L29.4602 180.452ZM21.3188 170.626L29.4602 178.758L37.6015 170.626L29.4602 162.493L21.3188 170.626Z" fill="#007AFF"/>
<path d="M38.4494 171.472L28.6123 161.646L38.4494 151.82L48.2865 161.646L38.4494 171.472ZM30.3081 161.647L38.4494 169.779L46.5914 161.647L38.4494 153.514L30.3081 161.647Z" fill="#007AFF"/>
<path d="M20.4709 171.472L10.6338 161.646L20.4709 151.819L30.308 161.646L20.4709 171.472ZM12.329 161.646L20.4703 169.779L28.6117 161.646L20.4703 153.514L12.329 161.646Z" fill="#007AFF"/>
<path d="M47.4397 180.452L37.6025 170.626L47.4397 160.799L57.2768 170.626L47.4397 180.452ZM39.2977 170.626L47.4397 178.758L55.581 170.626L47.4397 162.493L39.2977 170.626Z" fill="#007AFF"/>
<path d="M20.4709 153.514L10.6338 143.687L20.4709 133.861L30.308 143.687L20.4709 153.514ZM12.329 143.688L20.4703 151.82L28.6117 143.687L20.4703 135.555L12.329 143.688Z" fill="#007AFF"/>
<path d="M29.4602 162.493L19.623 152.667L29.4602 142.84L39.2973 152.667L29.4602 162.493ZM21.3188 152.667L29.4602 160.799L37.6015 152.667L29.4602 144.534L21.3188 152.667Z" fill="#007AFF"/>
<path d="M92.3859 189.432L82.5488 179.606L92.3859 169.779L102.223 179.606L92.3859 189.432ZM84.244 179.606L92.3859 187.738L100.527 179.606L92.3859 171.473L84.244 179.606Z" fill="#007AFF"/>
<path d="M110.364 189.432L100.527 179.606L110.364 169.779L120.202 179.606L110.364 189.432ZM102.223 179.606L110.364 187.738L118.506 179.606L110.364 171.473L102.223 179.606Z" fill="#007AFF"/>
<path d="M56.4279 189.432L46.5908 179.605L56.4279 169.779L66.2651 179.605L56.4279 189.432ZM48.2866 179.605L56.4279 187.738L64.5693 179.605L56.4279 171.473L48.2866 179.605Z" fill="#007AFF"/>
<path d="M101.375 180.452L91.5381 170.626L101.375 160.799L111.212 170.626L101.375 180.452ZM93.2338 170.626L101.375 178.758L109.517 170.626L101.375 162.493L93.2338 170.626Z" fill="#007AFF"/>
<path d="M83.3957 180.452L73.5586 170.626L83.3957 160.799L93.2328 170.626L83.3957 180.452ZM75.2544 170.626L83.3957 178.758L91.5377 170.626L83.3957 162.493L75.2544 170.626Z" fill="#007AFF"/>
<path d="M74.4074 189.432L64.5703 179.606L74.4074 169.779L84.2445 179.606L74.4074 189.432ZM66.2655 179.606L74.4068 187.738L82.5482 179.606L74.4068 171.473L66.2655 179.606Z" fill="#007AFF"/>
<path d="M65.4172 180.452L55.5801 170.626L65.4172 160.799L75.2543 170.626L65.4172 180.452ZM57.2758 170.626L65.4172 178.758L73.5585 170.626L65.4172 162.493L57.2758 170.626Z" fill="#007AFF"/>
<path d="M134.345 191H50.4257C22.6616 191 0.0742188 168.437 0.0742188 140.703V56.8753C0.0742188 29.1415 22.6616 6.57861 50.4257 6.57861H134.345C162.109 6.57861 184.696 29.1415 184.696 56.8753V140.703C184.696 168.437 162.109 191 134.345 191ZM50.4257 11.3688C25.3063 11.3688 4.8696 31.7833 4.8696 56.8753V140.703C4.8696 165.795 25.3063 186.21 50.4257 186.21H134.345C159.464 186.21 179.901 165.795 179.901 140.703V56.8753C179.901 31.7833 159.464 11.3688 134.345 11.3688H50.4257Z" fill="#007AFF"/>
<mask id="mask0_69_5270" style="mask-type:luminance" maskUnits="userSpaceOnUse" x="2" y="-7" width="204" height="196">
<path d="M157.082 188.605H50.4254C24.0509 188.605 2.47168 167.049 2.47168 140.703V41.208C2.47168 14.8621 24.0509 -6.6936 50.4254 -6.6936H205.036V140.703C205.036 167.049 183.456 188.605 157.082 188.605Z" fill="white"/>
</mask>
<g mask="url(#mask0_69_5270)">
<path d="M196.473 63.1067C194.738 21.8539 147.954 -4.58964 91.9789 4.04344C36.0036 12.6771 -7.96636 53.1175 -6.23164 94.3703C-5.11491 120.932 14.681 141.35 43.5785 150.223L51.0443 176.846L68.5732 154.762C78.0117 155.417 87.9807 155.019 98.262 153.433C154.237 144.8 198.208 104.36 196.473 63.1067Z" fill="white"/>
<path d="M51.0443 179.241C50.8872 179.241 50.729 179.226 50.5707 179.194C49.6872 179.016 48.9781 178.359 48.7353 177.492L41.6202 152.119C11.2349 142.371 -7.51625 120.898 -8.62757 94.4709C-9.49674 73.8037 0.530994 52.7587 19.6082 35.213C38.5044 17.8337 64.0757 5.92352 91.6132 1.67644C108.374 -0.908456 124.496 -0.503088 139.532 2.88236C153.96 6.13129 166.818 12.1423 176.717 20.2659C190.509 31.5862 198.169 46.3651 198.869 63.0061C199.738 83.6739 189.71 104.719 170.633 122.265C151.738 139.643 126.166 151.553 98.6282 155.801C88.8348 157.311 79.1008 157.792 69.6725 157.233L52.9235 178.334C52.4637 178.914 51.7678 179.241 51.0443 179.241ZM112.685 4.83196C106.029 4.83196 99.2156 5.35049 92.3451 6.41032C37.628 14.85 -5.51897 54.2635 -3.8364 94.2703C-2.7988 118.94 15.1893 139.001 44.2828 147.935C45.0626 148.174 45.6669 148.793 45.8875 149.578L52.0855 171.681L66.6946 153.275C67.1855 152.656 67.9486 152.319 68.7398 152.374C78.2065 153.031 88.016 152.592 97.8963 151.067C152.61 142.628 195.754 103.212 194.078 63.2079C193.437 47.9674 186.381 34.398 173.672 23.9681C158.545 11.5526 136.638 4.83315 112.685 4.83315V4.83196Z" fill="#007AFF"/>
<path d="M98.4223 99.33C96.1301 99.33 94.3858 98.639 93.193 97.2547C91.9977 95.8727 91.4019 93.9878 91.4019 91.6023C91.4019 88.836 91.7358 86.2349 92.4047 83.8027C93.0719 81.3699 94.1952 78.9365 95.7717 76.5037C97.3476 74.0715 99.3286 71.4728 101.717 68.7041C103.436 66.7964 104.845 65.1037 105.944 63.6241C107.041 62.1458 107.806 60.7147 108.236 59.3303C108.666 57.9484 108.88 56.5395 108.88 55.1084C108.88 52.4385 107.9 50.3632 105.944 48.883C103.985 47.4046 101.191 46.6651 97.5627 46.6651C94.1245 46.6651 90.9475 47.0945 88.0349 47.9525C85.1199 48.8117 82.2793 50.0057 79.51 51.5308C77.0247 52.8678 74.8291 53.369 72.9193 53.0337C71.0077 52.7002 69.4564 51.8421 68.263 50.4578C67.0677 49.0752 66.4006 47.4292 66.2573 45.5203C66.1141 43.6126 66.5439 41.7277 67.5467 39.8673C68.5495 38.0069 70.2914 36.3609 72.776 34.9298C76.6915 32.7359 81.0139 31.066 85.7421 29.9211C90.4698 28.7763 94.9337 28.2039 99.138 28.2039C105.442 28.2039 110.958 29.2302 115.686 31.2809C120.413 33.3335 124.114 36.1711 126.789 39.7967C129.462 43.4234 130.8 47.7172 130.8 52.6768C130.8 55.5389 130.37 58.2831 129.511 60.9057C128.651 63.5313 127.29 66.0827 125.427 68.5628C123.565 71.0447 120.914 73.7146 117.476 76.5773C114.514 78.9628 112.175 81.134 110.456 83.089C108.737 85.0457 107.494 86.9061 106.731 88.6701C105.965 90.4365 105.392 92.3196 105.012 94.3231C104.819 95.7542 104.152 96.9487 103.006 97.9013C101.86 98.8564 100.331 99.3324 98.4217 99.3324L98.4223 99.33ZM97.9925 131.245C94.1712 131.245 91.1381 130.125 88.8951 127.882C86.6497 125.641 85.5281 122.658 85.5281 118.937C85.5281 115.408 86.6497 112.522 88.8951 110.279C91.1381 108.039 94.1712 106.916 97.9925 106.916C101.908 106.916 104.941 108.039 107.091 110.279C109.239 112.522 110.314 115.408 110.314 118.937C110.314 122.659 109.239 125.641 107.091 127.882C104.942 130.125 101.908 131.245 97.9925 131.245Z" fill="#007AFF"/>
</g>
<path d="M2.47191 128.123C1.14778 128.123 0.0742188 127.051 0.0742188 125.728V55.4922C0.0742188 54.1696 1.14778 53.0972 2.47191 53.0972C3.79603 53.0972 4.8696 54.1696 4.8696 55.4922V125.728C4.8696 127.051 3.79603 128.123 2.47191 128.123Z" fill="#007AFF"/>
</g>
<defs>
<clipPath id="clip0_69_5270">
<rect width="199" height="191" fill="white"/>
</clipPath>
</defs>
</svg>
