<svg width="40" height="40" viewBox="0 0 40 40" fill="none" xmlns="http://www.w3.org/2000/svg">
<path d="M20 3.33334C15.5798 3.33334 11.3405 5.08928 8.21493 8.21489C5.08932 11.3405 3.33337 15.5797 3.33337 20C3.33337 24.4203 5.08932 28.6595 8.21493 31.7851C11.3405 34.9107 15.5798 36.6667 20 36.6667C24.4203 36.6667 28.6595 34.9107 31.7852 31.7851C34.9108 28.6595 36.6667 24.4203 36.6667 20C36.6667 15.5797 34.9108 11.3405 31.7852 8.21489C28.6595 5.08928 24.4203 3.33334 20 3.33334Z" fill="#29B6F6"/>
<path d="M28.2917 12.5L25.17 28.4383C25.17 28.4383 25.0359 29.1667 24.1325 29.1667C23.6525 29.1667 23.405 28.9383 23.405 28.9383L16.6434 23.3275L13.335 21.66L9.08921 20.5308C9.08921 20.5308 8.33337 20.3125 8.33337 19.6875C8.33337 19.1667 9.11087 18.9183 9.11087 18.9183L26.8742 11.8617C26.8742 11.8617 27.4167 11.6658 27.8125 11.6667C28.0559 11.6667 28.3334 11.7708 28.3334 12.0833C28.3334 12.2917 28.2917 12.5 28.2917 12.5Z" fill="white"/>
<path d="M19.1666 25.4208L16.3116 28.2325C16.3116 28.2325 16.1874 28.3283 16.0216 28.3325C15.9641 28.3342 15.9024 28.325 15.8391 28.2967L16.6424 23.3258L19.1666 25.4208Z" fill="#B0BEC5"/>
<path d="M24.9142 15.1633C24.7734 14.98 24.5134 14.9467 24.33 15.0858L13.3334 21.6667C13.3334 21.6667 15.0884 26.5767 15.3559 27.4267C15.6242 28.2775 15.8392 28.2975 15.8392 28.2975L16.6425 23.3267L24.8359 15.7467C25.0192 15.6075 25.0534 15.3467 24.9142 15.1633Z" fill="#CFD8DC"/>
</svg>
