<svg width="40" height="40" viewBox="0 0 40 40" fill="none" xmlns="http://www.w3.org/2000/svg">
<path fill-rule="evenodd" clip-rule="evenodd" d="M9.08667 5H30.9125C33.17 5 35 6.83 35 9.08667V30.9125C35 33.17 33.17 35 30.9133 35H9.08667C6.83 35 5 33.17 5 30.9133V9.08667C5 6.83 6.83 5 9.08667 5Z" fill="#212121"/>
<path fill-rule="evenodd" clip-rule="evenodd" d="M24.34 17.1727C25.6533 18.1111 27.2625 18.6627 29 18.6627V15.3202C28.6708 15.3202 28.3433 15.2861 28.0217 15.2177V17.8486C26.2842 17.8486 24.6758 17.2961 23.3617 16.3586V23.1786C23.3617 26.5902 20.5942 29.3561 17.1808 29.3561C15.9075 29.3561 14.7233 28.9711 13.74 28.3111C14.8625 29.4577 16.4275 30.1694 18.1592 30.1694C21.5725 30.1694 24.34 27.4036 24.34 23.9919V17.1727ZM25.5475 13.8011C24.8767 13.0686 24.4358 12.1211 24.34 11.0736V10.6436H23.4125C23.6458 11.9744 24.4425 13.1119 25.5475 13.8011ZM15.8992 25.6936C15.5242 25.2019 15.3217 24.6011 15.3225 23.9827C15.3225 22.4219 16.5883 21.1569 18.15 21.1569C18.4408 21.1569 18.73 21.2011 19.0075 21.2894V17.8727C18.6833 17.8286 18.3567 17.8094 18.0292 17.8161V20.4752C17.7517 20.3869 17.4625 20.3427 17.1708 20.3427C15.6092 20.3427 14.3433 21.6077 14.3433 23.1686C14.3442 24.2727 14.9767 25.2286 15.8992 25.6936Z" fill="#EC407A"/>
<path fill-rule="evenodd" clip-rule="evenodd" d="M23.3616 16.3586C24.675 17.2969 26.2841 17.8486 28.0216 17.8486V15.2177C27.0516 15.0111 26.1933 14.5044 25.5475 13.8002C24.4425 13.1111 23.6466 11.9744 23.4133 10.6436H20.9775V23.9919C20.9716 25.5477 19.7083 26.8077 18.15 26.8077C17.2316 26.8077 16.4158 26.3702 15.8991 25.6927C14.9766 25.2277 14.3441 24.2719 14.3441 23.1686C14.3441 21.6077 15.61 20.3427 17.1716 20.3427C17.4708 20.3427 17.7591 20.3894 18.03 20.4752V17.8169C14.6766 17.8861 11.98 20.6244 11.98 23.9927C11.98 25.6744 12.6516 27.1986 13.7416 28.3119C14.725 28.9719 15.9091 29.3569 17.1825 29.3569C20.5958 29.3569 23.3633 26.5911 23.3633 23.1794L23.3616 16.3586Z" fill="white"/>
<path fill-rule="evenodd" clip-rule="evenodd" d="M28.0217 15.2183V14.5066C27.1467 14.5083 26.29 14.2633 25.5475 13.7999C26.2042 14.5191 27.0692 15.0149 28.0217 15.2183ZM23.4125 10.6433C23.39 10.5158 23.3733 10.3883 23.3617 10.2591V9.8291H19.9983V23.1783C19.9933 24.7341 18.7292 25.9941 17.1708 25.9941C16.7133 25.9941 16.2817 25.8858 15.8992 25.6924C16.4158 26.3699 17.2317 26.8074 18.15 26.8074C19.7083 26.8074 20.9717 25.5474 20.9775 23.9916V10.6433H23.4125ZM18.0292 17.8166V17.0591C17.7483 17.0208 17.465 17.0016 17.1808 17.0016C13.7667 17.0016 11 19.7674 11 23.1791C11 25.3183 12.0875 27.2033 13.74 28.3116C12.65 27.1983 11.9783 25.6741 11.9783 23.9924C11.9783 20.6241 14.6758 17.8858 18.0292 17.8166Z" fill="#81D4FA"/>
</svg>
