<svg width="40" height="40" viewBox="0 0 40 40" fill="none" xmlns="http://www.w3.org/2000/svg">
<path d="M20 4.16667C17.8008 4.16667 11.1083 4.16667 7.40829 7.545C5.20496 9.74 4.16663 12.9117 4.16663 17.5V20C4.16663 24.5883 5.20496 27.76 7.43413 29.98C8.54413 30.9925 10.0575 31.8017 11.9075 32.3608L12.5 32.5392V36.9792C12.5 37.5 12.6508 37.5 12.7008 37.5C12.8033 37.5 12.9675 37.4675 13.2791 37.1908C13.3541 37.1167 13.9041 36.5217 16.5791 33.525L16.8491 33.2225L17.2533 33.2483C18.1491 33.3042 19.0733 33.3333 20 33.3333C22.1991 33.3333 28.8916 33.3333 32.5916 29.9542C34.7941 27.7592 35.8333 24.5875 35.8333 20V17.5C35.8333 12.9117 34.795 9.74 32.5658 7.52C28.8916 4.16667 22.1991 4.16667 20 4.16667Z" fill="url(#paint0_linear_27_93)"/>
<path d="M27.8758 24.045C26.95 23.265 26.5225 23.0292 25.2441 22.2617C24.7116 21.9425 23.9 21.6667 23.4741 21.6667C23.1833 21.6667 22.835 21.8892 22.6216 22.1025C22.075 22.6492 21.8958 23.3333 20.9375 23.3333C20 23.3333 18.3625 22.3792 17.1875 21.1458C15.9541 19.9708 15 18.3333 15 17.3958C15 16.4375 15.6716 16.2458 16.2183 15.6983C16.4316 15.4858 16.6666 15.1375 16.6666 14.8467C16.6666 14.4208 16.3908 13.6217 16.0716 13.0892C15.3041 11.81 15.0691 11.3825 14.2883 10.4575C14.0241 10.1442 13.7233 10.0008 13.4083 10C12.8758 9.99917 12.1766 10.2633 11.7033 10.6158C10.9916 11.1467 10.2475 11.8692 10.0483 12.7692C10.0216 12.8917 10.0058 13.015 10.0008 13.1383C9.96247 14.0758 10.3308 15.0275 10.7283 15.8333C11.6641 17.7325 12.9025 19.5708 14.25 21.2125C14.6808 21.7375 15.15 22.2258 15.6358 22.6975C16.1075 23.1825 16.5958 23.6517 17.1208 24.0833C18.7625 25.4308 20.6008 26.6692 22.5 27.605C23.2983 27.9983 24.2383 28.36 25.1666 28.3333C25.2991 28.3292 25.4316 28.3142 25.5641 28.285C26.4641 28.0867 27.1866 27.3417 27.7175 26.63C28.07 26.1567 28.3341 25.4583 28.3333 24.925C28.3325 24.61 28.1891 24.3092 27.8758 24.045ZM28.3333 20C27.8733 20 27.5 19.6267 27.5 19.1667V18.3333C27.5 14.1983 24.135 10.8333 20 10.8333C19.54 10.8333 19.1666 10.46 19.1666 10C19.1666 9.54 19.54 9.16667 20 9.16667C25.0541 9.16667 29.1666 13.2792 29.1666 18.3333V19.1667C29.1666 19.6267 28.7933 20 28.3333 20ZM23.215 18.3333C22.845 18.3333 22.5066 18.085 22.4091 17.71C22.1808 16.8342 21.4975 16.15 20.625 15.925C20.1791 15.8092 19.9116 15.355 20.0266 14.9092C20.1416 14.4642 20.595 14.1967 21.0425 14.3108C22.4991 14.6883 23.6408 15.8292 24.0216 17.2892C24.1375 17.735 23.8708 18.1892 23.4258 18.3058C23.355 18.3242 23.2841 18.3333 23.215 18.3333ZM25.8333 19.1667C25.3733 19.1667 25 18.7933 25 18.3333C25 15.6767 22.9216 13.485 20.2683 13.345C19.8083 13.3208 19.4558 12.9283 19.48 12.4692C19.5041 12.0092 19.9033 11.6558 20.3558 11.6808C23.895 11.8675 26.6666 14.79 26.6666 18.3333C26.6666 18.7933 26.2933 19.1667 25.8333 19.1667ZM20 3.33333C16.25 3.33333 10.4066 3.67833 6.84664 6.93C4.32997 9.43583 3.3333 12.9508 3.3333 17.5C3.3333 17.8767 3.33164 18.2967 3.33497 18.75C3.33164 19.2025 3.3333 19.6225 3.3333 19.9992C3.3333 24.5483 4.32997 28.0633 6.84664 30.5692C8.20164 31.8067 9.89164 32.6208 11.6666 33.1575V36.9792C11.6666 38.3092 12.5408 38.3333 12.7008 38.3333H12.7083C13.12 38.3317 13.4758 38.13 13.8325 37.8133C13.9666 37.6942 15.5158 35.9675 17.2008 34.0792C18.2041 34.1433 19.1575 34.1667 19.9991 34.1667C23.7491 34.1667 29.5916 33.8208 33.1525 30.5692C35.6683 28.0642 36.6658 24.5483 36.6658 19.9992C36.6658 19.6225 36.6675 19.2025 36.6641 18.7492C36.6675 18.2958 36.6658 17.8767 36.6658 17.4992C36.6658 12.95 35.6691 9.435 33.1525 6.92916C29.5925 3.67833 23.75 3.33333 20 3.33333ZM34.1666 19.7092V19.9992C34.1666 24.0875 33.2958 26.8733 31.4283 28.7592C28.1933 31.6667 22.0308 31.6667 19.9991 31.6667C19.3808 31.6667 18.3775 31.6658 17.1933 31.5833C16.8641 31.9533 13.3333 35.9025 13.3333 35.9025V31.0167C11.58 30.5958 9.84747 29.9058 8.57164 28.76C6.70414 26.8733 5.8333 24.0875 5.8333 19.9992V19.7092C5.8333 19.4167 5.83247 19.1008 5.83497 18.7317C5.83247 18.3983 5.83247 18.0833 5.8333 17.79V17.5C5.8333 13.4117 6.70414 10.6258 8.57164 8.74C11.8058 5.8325 17.9691 5.8325 20 5.8325C22.0308 5.8325 28.1933 5.8325 31.4275 8.74C33.2958 10.6258 34.1658 13.4117 34.1658 17.5V17.79C34.1658 18.0825 34.1666 18.3983 34.1641 18.7675C34.1666 19.1017 34.1666 19.4167 34.1666 19.7092Z" fill="url(#paint1_linear_27_93)"/>
<defs>
<linearGradient id="paint0_linear_27_93" x1="11.7591" y1="-4.97583" x2="28.4608" y2="43.1092" gradientUnits="userSpaceOnUse">
<stop stop-color="#FCFCFC"/>
<stop offset="0.495" stop-color="#F4F4F4"/>
<stop offset="0.946" stop-color="#E8E8E8"/>
<stop offset="1" stop-color="#E8E8E8"/>
</linearGradient>
<linearGradient id="paint1_linear_27_93" x1="35.5066" y1="40.3308" x2="2.10164" y2="-6.0525" gradientUnits="userSpaceOnUse">
<stop stop-color="#912FBD"/>
<stop offset="1" stop-color="#9332BF"/>
</linearGradient>
</defs>
</svg>
